<svg width="290" height="39" viewBox="0 0 290 39" fill="none" xmlns="http://www.w3.org/2000/svg">
<path d="M54.726 3.64702C54.7535 2.85617 55.0645 2.10756 55.5938 1.55849C56.123 1.00943 56.8293 0.702661 57.5642 0.702661C58.2992 0.702661 59.0055 1.00943 59.5347 1.55849C60.064 2.10756 60.375 2.85617 60.4025 3.64702V32.8772C60.375 33.6681 60.064 34.4167 59.5347 34.9657C59.0055 35.5148 58.2992 35.8216 57.5642 35.8216C56.8293 35.8216 56.123 35.5148 55.5938 34.9657C55.0645 34.4167 54.7535 33.6681 54.726 32.8772V3.64702Z" fill="#E4002B"/>
<path d="M131.454 31.6868L143.456 2.85272C143.731 2.10923 144.209 1.47322 144.827 1.02896C145.445 0.584706 146.174 0.353175 146.917 0.365046C147.679 0.349536 148.428 0.577593 149.069 1.02039C149.711 1.46318 150.216 2.10083 150.521 2.85272L162.522 31.6868C162.71 32.0846 162.82 32.5194 162.847 32.9647C162.855 33.3483 162.792 33.7298 162.661 34.0867C162.53 34.4435 162.334 34.7684 162.084 35.0421C161.834 35.3158 161.536 35.5328 161.207 35.6801C160.878 35.8274 160.525 35.902 160.169 35.8996C158.832 35.8996 157.993 35.0477 157.4 33.7698L154.769 27.2567H139.073L136.347 33.97C135.746 35.2479 134.915 35.9082 133.717 35.9082C133.37 35.9127 133.026 35.8425 132.704 35.7015C132.383 35.5605 132.091 35.3516 131.846 35.0872C131.601 34.8228 131.407 34.5082 131.277 34.1619C131.146 33.8157 131.082 33.4448 131.086 33.0712C131.112 32.586 131.238 32.1131 131.454 31.6868ZM152.597 21.8426L146.921 7.78548L141.241 21.8426H152.597Z" fill="#E4002B"/>
<path d="M35.3865 33.7912L30.9641 29.0203C33.4437 25.266 34.5229 20.6454 33.9878 16.0746C33.4528 11.5037 31.3426 7.31607 28.0754 4.34177C24.8082 1.36746 20.6225 -0.176443 16.348 0.0160583C12.0735 0.20856 8.0222 2.12342 4.99703 5.3811C1.97186 8.63878 0.193674 13.0015 0.0149121 17.6045C-0.16385 22.2076 1.26986 26.7149 4.03188 30.2332C6.7939 33.7515 10.6826 36.024 14.9273 36.6001C19.1719 37.1763 23.4627 36.0141 26.9491 33.3439L31.3794 38.1063C31.9108 38.6785 32.6315 39 33.383 39C34.1345 39 34.8552 38.6785 35.3865 38.1063C35.9179 37.5341 36.2164 36.758 36.2164 35.9488C36.2164 35.1395 35.9179 34.3634 35.3865 33.7912ZM5.71887 18.4008C5.71887 15.9785 6.38596 13.6106 7.63577 11.5965C8.88559 9.58246 10.662 8.01277 12.7403 7.08597C14.8186 6.15917 17.1054 5.9169 19.3116 6.38978C21.5178 6.86267 23.5442 8.02948 25.1345 9.74264C26.7248 11.4558 27.8077 13.6383 28.246 16.0142C28.6844 18.3902 28.4586 20.8527 27.5973 23.0904C26.7359 25.3281 25.2776 27.2405 23.4069 28.5857C21.5361 29.9308 19.337 30.6484 17.0875 30.6475C14.0726 30.643 11.1824 29.3513 9.0505 27.0556C6.91863 24.7599 5.7191 21.6475 5.71491 18.4008H5.71887Z" fill="#E4002B"/>
<path d="M82.02 3.74699C82.02 0.42015 86.3713 -0.636261 88.1157 2.30295L97.9021 18.7966L107.732 2.25609C109.294 -0.640521 113.78 0.407371 113.78 3.74699V32.8792C113.78 33.6768 113.486 34.4418 112.962 35.0057C112.439 35.5697 111.728 35.8866 110.988 35.8866C110.247 35.8866 109.537 35.5697 109.013 35.0057C108.489 34.4418 108.195 33.6768 108.195 32.8792V12.0875C108.195 12.0875 101.506 22.8263 100.256 24.7602C99.0057 26.6941 96.7629 26.7197 95.5406 24.7602L87.6054 12.1003V32.9261C87.6055 33.322 87.5323 33.714 87.3902 34.0791C87.2481 34.4442 87.0399 34.7752 86.7777 35.0528C86.5155 35.3304 86.2047 35.5489 85.8632 35.6957C85.5218 35.8426 85.1566 35.9147 84.789 35.9079C84.4237 35.9142 84.061 35.8414 83.7224 35.6938C83.3838 35.5462 83.0762 35.3268 82.8179 35.0486C82.5596 34.7705 82.3559 34.4392 82.2188 34.0746C82.0817 33.71 82.0141 33.3194 82.02 32.9261V3.74699Z" fill="#E4002B"/>
<path d="M179.976 21.3498C179.592 21.3498 179.305 21.5539 179.209 21.8855L176.715 29.9969L176.164 32.114H176.14L175.564 29.9969L173.094 22.4721C172.927 21.86 172.399 21.3498 171.752 21.3498C171.272 21.3498 170.841 21.6559 170.841 22.1661C170.841 22.5742 171.08 22.9058 171.44 22.9823C171.584 23.0078 171.728 23.1098 171.776 23.2629L175.468 34.0526C175.636 34.4097 175.852 34.6137 176.188 34.6137C176.523 34.6137 176.811 34.3842 176.907 34.0526L179.568 25.5331L179.928 24.1301L180.312 25.5331L182.949 34.0526C183.045 34.3842 183.333 34.6137 183.669 34.6137C184.004 34.6137 184.22 34.4097 184.388 34.0526L188.08 23.2629C188.128 23.1098 188.272 23.0078 188.416 22.9823C188.776 22.9058 189.016 22.5742 189.016 22.1661C189.016 21.6559 188.584 21.3498 188.104 21.3498C187.457 21.3498 186.93 21.86 186.762 22.4721L184.292 29.9969L183.693 32.114H183.669L183.141 29.9969L180.647 21.8855C180.551 21.5539 180.264 21.3498 179.976 21.3498Z" fill="#3366B0"/>
<path d="M196.539 22.8548C199.224 22.8548 201.406 25.1504 201.406 27.9563C201.406 30.8131 199.224 33.1088 196.539 33.1088C193.901 33.1088 191.695 30.8131 191.695 27.9563C191.695 25.1504 193.901 22.8548 196.539 22.8548ZM196.539 34.7413C200.063 34.7413 202.917 31.7059 202.917 27.9563C202.917 24.2577 200.063 21.2223 196.539 21.2223C193.038 21.2223 190.185 24.2577 190.185 27.9563C190.185 31.7059 193.038 34.7413 196.539 34.7413Z" fill="#3366B0"/>
<path d="M206.252 21.3498C205.82 21.3498 205.437 21.6814 205.437 22.1661C205.437 22.4721 205.605 22.7782 205.892 22.9058C205.892 22.9058 206.06 22.9823 206.06 23.2374V32.7262C206.06 32.9813 205.892 33.0578 205.892 33.0578C205.605 33.1853 205.437 33.4914 205.437 33.7975C205.437 34.2821 205.82 34.6137 206.252 34.6137C207.139 34.6137 207.595 33.7975 207.595 32.8282V25.278C207.595 23.671 209.033 22.9058 210.4 22.9058C210.952 22.9058 211.551 23.0333 212.055 23.2119C212.558 23.3904 213.11 23.0588 213.11 22.4466C213.11 22.013 212.894 21.7579 212.582 21.6304C211.863 21.3498 211.119 21.2223 210.4 21.2223C209.225 21.2223 208.098 21.809 207.499 22.8037C207.499 22.5742 207.451 22.3446 207.427 22.2681C207.235 21.7324 206.827 21.3498 206.252 21.3498Z" fill="#3366B0"/>
<path d="M216.438 34.6137C217.325 34.6137 217.781 33.7975 217.781 32.8282V30.6091L219.363 28.9511L222.888 33.823C223.199 34.2821 223.727 34.6137 224.23 34.6137C224.71 34.6137 225.262 34.2566 225.262 33.67C225.262 33.2618 224.998 32.8792 224.59 32.8792C224.47 32.8792 224.422 32.9302 224.326 32.9302C224.207 32.9302 224.111 32.8537 224.039 32.7517L220.442 27.7777L224.135 23.8496C224.47 23.4924 224.71 23.0588 224.686 22.3956C224.662 21.8855 224.326 21.3498 223.751 21.3498C223.367 21.3498 223.008 21.6049 223.008 22.064C223.032 22.3446 223.199 22.5487 222.984 22.7782L219.507 26.4768L217.733 28.5685H217.709L217.781 26.4768V17.7277C217.781 16.7585 217.349 15.9422 216.462 15.9422C216.03 15.9422 215.646 16.2738 215.646 16.7585C215.646 17.0645 215.79 17.3706 216.078 17.4982C216.078 17.4982 216.246 17.5747 216.246 17.8298V32.7262C216.246 32.9813 216.078 33.0578 216.078 33.0578C215.79 33.1853 215.623 33.4914 215.623 33.7975C215.623 34.2821 216.006 34.6137 216.438 34.6137Z" fill="#3366B0"/>
<path d="M235.806 31.2978C235.806 29.1551 233.528 27.9818 231.754 27.2165C230.603 26.7319 228.901 26.0432 228.901 24.8188C228.901 23.7475 230.147 22.8548 231.586 22.8548C232.449 22.8548 233.336 23.1609 234.008 23.722C234.583 24.1812 235.279 23.722 235.279 23.1353C235.279 22.9058 235.183 22.6507 234.967 22.4466C234.104 21.7069 232.881 21.2223 231.586 21.2223C229.356 21.2223 227.366 22.7527 227.366 24.7933C227.366 27.089 229.788 28.1858 231.37 28.849C232.737 29.4357 234.248 29.9969 234.248 31.2978C234.248 32.3436 232.881 33.1088 231.394 33.1088C230.387 33.1088 229.428 32.8282 228.733 32.2926C228.061 31.8079 227.414 32.267 227.414 32.8537C227.414 33.1088 227.51 33.3639 227.75 33.5424C228.733 34.2311 230.123 34.7413 231.298 34.7413C233.169 34.7413 235.806 33.823 235.806 31.2978Z" fill="#3366B0"/>
<path d="M239.151 38.9245C240.038 38.9245 240.494 38.1083 240.494 37.139V32.1905C241.501 33.925 243.107 34.6137 244.714 34.6137C248.023 34.6137 250.42 31.6038 250.42 28.1348C250.42 24.5128 248.095 21.3498 244.714 21.3498C243.083 21.3498 241.333 22.2936 240.494 24.0791V23.1353C240.494 22.1661 240.038 21.3498 239.151 21.3498C238.719 21.3498 238.336 21.6814 238.336 22.1661C238.336 22.4721 238.504 22.7782 238.791 22.9058C238.791 22.9058 238.959 22.9823 238.959 23.2374V37.037C238.959 37.292 238.791 37.3686 238.791 37.3686C238.504 37.4961 238.336 37.8022 238.336 38.1083C238.336 38.5929 238.719 38.9245 239.151 38.9245ZM244.69 22.9823C247.279 22.9823 248.886 25.6096 248.886 28.1348C248.886 30.7111 247.255 32.9813 244.69 32.9813C242.124 32.9813 240.494 30.7621 240.494 28.1603C240.494 25.6606 242.076 22.9823 244.69 22.9823Z" fill="#3366B0"/>
<path d="M262.221 34.7413C262.652 34.7413 263.036 34.2821 263.036 33.7975C263.036 33.4914 262.868 33.1853 262.58 33.0578C262.58 33.0578 262.413 32.9813 262.413 32.7262V25.7626C262.413 25.0484 262.389 24.3087 262.173 23.722C261.478 21.809 259.487 21.2223 257.497 21.2223C256.346 21.2223 255.171 21.4518 254.284 21.809C253.972 21.9365 253.757 22.2426 253.757 22.5742C253.757 23.0333 254.068 23.3649 254.5 23.3649C254.596 23.3649 254.74 23.3394 254.836 23.3139C255.795 23.0333 256.538 22.8548 257.593 22.8548C258.984 22.8548 260.351 23.1864 260.734 24.3087C260.806 24.5128 260.878 25.227 260.878 25.8136C260.878 26.0687 260.878 26.3748 260.878 26.5278C260.111 26.0177 258.96 25.6861 257.929 25.6861C255.004 25.6861 252.462 27.191 252.462 30.507C252.462 33.2618 254.668 34.7413 257.042 34.7413C258.456 34.7413 260.207 33.9505 260.878 32.6497C260.878 32.9047 260.878 33.2108 260.926 33.4149C261.094 34.1036 261.525 34.7413 262.221 34.7413ZM260.878 29.8183C260.878 31.9099 258.864 33.1343 257.09 33.1343C255.555 33.1343 253.996 32.2926 253.996 30.4815C253.996 28.2369 255.915 27.3186 257.857 27.3186C258.912 27.3186 259.799 27.4716 260.878 28.1093V29.8183Z" fill="#3366B0"/>
<path d="M271.587 34.7413C272.978 34.7413 274.368 34.2566 275.447 33.3384C276.383 32.5476 275.352 31.2723 274.488 32.012C273.625 32.7517 272.618 33.0833 271.587 33.0833C268.926 33.0833 266.696 30.7876 266.696 28.0073C266.696 25.1249 268.926 22.8803 271.587 22.8803C272.618 22.8803 273.625 23.2119 274.488 23.9261C275.4 24.6913 276.407 23.3904 275.447 22.5997C274.344 21.6814 272.978 21.2223 271.587 21.2223C268.062 21.2223 265.185 24.2577 265.185 28.0073C265.185 31.7059 268.062 34.7413 271.587 34.7413Z" fill="#3366B0"/>
<path d="M279.81 27.1655C280.049 24.8954 281.896 22.8548 284.102 22.8548C286.355 22.8548 288.154 24.8954 288.441 27.1655H279.81ZM289.185 28.798C289.592 28.798 290 28.4409 290 27.9563C290 24.4617 287.578 21.2223 284.102 21.2223C280.649 21.2223 278.251 24.4872 278.251 27.9563C278.251 31.5783 280.649 34.7413 284.102 34.7413C286.283 34.7413 287.842 34.0526 288.921 32.8282C289.065 32.6752 289.137 32.4711 289.137 32.2415C289.137 31.8079 288.753 31.4763 288.37 31.4763C288.154 31.4763 287.938 31.5528 287.77 31.7314C286.979 32.5731 285.78 33.1088 284.102 33.1088C281.848 33.1088 280.121 31.0427 279.81 28.798H289.185Z" fill="#3366B0"/>
</svg>
