<svg width="50" height="50" viewBox="0 0 50 50" fill="none" xmlns="http://www.w3.org/2000/svg">
<rect width="50" height="50" rx="4" fill="#1E46BD"/>
<path d="M32.1732 19.7388C32.5936 20.1382 32.6106 20.8028 32.2112 21.2233L26.5112 27.2233C26.3084 27.4368 26.0252 27.5553 25.7307 27.5499C25.4362 27.5445 25.1575 27.4156 24.9627 27.1948L22.7127 24.6449C22.329 24.21 22.3705 23.5465 22.8053 23.1628C23.2401 22.7792 23.9036 22.8206 24.2873 23.2554L25.7786 24.9455L30.6887 19.7769C31.0882 19.3565 31.7528 19.3394 32.1732 19.7388Z" fill="white"/>
<path d="M20.05 25.0001C20.05 22.2663 22.2662 20.0501 25 20.0501C25.6583 20.0501 26.2842 20.178 26.856 20.4095C27.3935 20.6271 28.0057 20.3677 28.2233 19.8302C28.4409 19.2927 28.1815 18.6805 27.644 18.4629C26.8261 18.1319 25.933 17.9501 25 17.9501C21.1064 17.9501 17.95 21.1065 17.95 25.0001C17.95 28.8937 21.1064 32.0501 25 32.0501C27.4095 32.0501 29.5363 30.8403 30.8062 28.9998C31.1356 28.5225 31.0156 27.8686 30.5383 27.5393C30.061 27.2099 29.4071 27.3299 29.0777 27.8072C28.1831 29.1039 26.6902 29.9501 25 29.9501C22.2662 29.9501 20.05 27.7339 20.05 25.0001Z" fill="white"/>
<path fill-rule="evenodd" clip-rule="evenodd" d="M13.027 16.3856L23.53 10.3891C24.4375 9.87133 25.564 9.86981 26.4685 10.3875L36.97 16.384C37.915 16.9261 38.5 17.9433 38.5 19.0381V19.2589C38.5 27.5761 34.0645 35.2765 26.923 39.3528L26.47 39.6117C26.017 39.8706 25.5085 40 25 40C24.4915 40 23.983 39.8721 23.5315 39.6132L23.077 39.3528C15.9355 35.2765 11.5 27.5761 11.5 19.2589V19.0381C11.5 17.9433 12.085 16.9261 13.027 16.3856ZM24.576 37.7914C24.6956 37.86 24.8415 37.9 25 37.9C25.1537 37.9 25.3015 37.8607 25.4281 37.7884L25.8811 37.5295C32.3583 33.8324 36.4 26.8332 36.4 19.2589V19.0381C36.4 18.6885 36.2114 18.3704 35.9262 18.2063L25.4253 12.2101C25.1704 12.0642 24.8368 12.0615 24.5712 12.2128L14.0722 18.207L14.0707 18.2078C13.7895 18.3699 13.6 18.6874 13.6 19.0381V19.2589C13.6 26.8332 17.6408 33.8319 24.118 37.529L24.1209 37.5307L24.576 37.7914Z" fill="white"/>
</svg>
