<svg width="50" height="50" viewBox="0 0 50 50" fill="none" xmlns="http://www.w3.org/2000/svg">
<rect width="50" height="50" rx="4" fill="#1E46BD"/>
<path fill-rule="evenodd" clip-rule="evenodd" d="M18.2376 10C13.6881 10 10 13.6265 10 18.1C10 20.1171 10.7498 21.9619 11.9903 23.3798L11.9893 23.3885L10.3111 38.8385C10.263 39.2818 10.5048 39.7066 10.9142 39.8981C11.3237 40.0897 11.8115 40.0061 12.1309 39.6896L18.3733 33.5049L24.3278 39.6729C24.6404 39.9966 25.1269 40.0907 25.5409 39.9073C25.9548 39.7239 26.2056 39.3033 26.1661 38.8586L24.7933 23.4086L24.759 23.0494C25.835 21.6806 26.4752 19.9638 26.4752 18.1C26.4752 13.6265 22.7871 10 18.2376 10ZM24.3395 18.1C24.3395 14.7863 21.6076 12.1 18.2376 12.1C14.8676 12.1 12.1357 14.7863 12.1357 18.1C12.1357 21.4137 14.8676 24.1 18.2376 24.1C21.6076 24.1 24.3395 21.4137 24.3395 18.1ZM12.7578 36.0874L17.6324 31.2578C17.8358 31.0563 18.1135 30.9444 18.4022 30.9475C18.6909 30.9507 18.966 31.0687 19.1648 31.2746L23.7725 36.0474L22.7784 24.8593C21.4765 25.7066 19.9157 26.2 18.2376 26.2C16.671 26.2 15.2065 25.77 13.9596 25.0234L12.7578 36.0874Z" fill="white"/>
<path fill-rule="evenodd" clip-rule="evenodd" d="M27.374 14.5C27.374 13.9201 27.8434 13.45 28.4224 13.45H38.9066C39.4857 13.45 39.9551 13.9201 39.9551 14.5C39.9551 15.0799 39.4857 15.55 38.9066 15.55H28.4224C27.8434 15.55 27.374 15.0799 27.374 14.5Z" fill="white"/>
<path fill-rule="evenodd" clip-rule="evenodd" d="M27.4189 20.5C27.4189 19.9201 27.8883 19.45 28.4674 19.45H38.9516C39.5306 19.45 40 19.9201 40 20.5C40 21.0799 39.5306 21.55 38.9516 21.55H28.4674C27.8883 21.55 27.4189 21.0799 27.4189 20.5Z" fill="white"/>
<path fill-rule="evenodd" clip-rule="evenodd" d="M27.5238 26.5C27.5238 25.9201 27.9932 25.45 28.5722 25.45H37.5587C38.1377 25.45 38.6071 25.9201 38.6071 26.5C38.6071 27.0799 38.1377 27.55 37.5587 27.55H28.5722C27.9932 27.55 27.5238 27.0799 27.5238 26.5Z" fill="white"/>
</svg>
