<svg width="50" height="50" viewBox="0 0 50 50" fill="none" xmlns="http://www.w3.org/2000/svg">
<rect width="50" height="50" rx="4" fill="#1E46BD"/>
<path d="M14.05 12.1C12.973 12.1 12.1 12.973 12.1 14.05V35.95C12.1 37.027 12.973 37.9 14.05 37.9H28.45C30.3554 37.9 31.9 36.3554 31.9 34.45V26.0501C31.9 25.4702 32.3701 25.0001 32.95 25.0001C33.5299 25.0001 34 25.4702 34 26.0501V34.45C34 37.5152 31.5152 40 28.45 40H14.05C11.8132 40 10 38.1868 10 35.95V14.05C10 11.8133 11.8132 10 14.05 10H21.1C21.6799 10 22.15 10.4701 22.15 11.05C22.15 11.6299 21.6799 12.1 21.1 12.1H14.05Z" fill="white"/>
<path d="M23.9631 17.95L25.8748 15.0824C26.1965 14.5999 26.0661 13.948 25.5836 13.6263C25.1011 13.3047 24.4492 13.4351 24.1275 13.9176L21.1275 18.4176C20.8924 18.7703 20.8924 19.2297 21.1275 19.5824L24.1275 24.0824C24.4492 24.5649 25.1011 24.6953 25.5836 24.3737C26.0661 24.052 26.1965 23.4001 25.8748 22.9176L23.9631 20.05H37.8994V31C37.8994 31.5799 38.3695 32.05 38.9494 32.05C39.5293 32.05 39.9994 31.5799 39.9994 31V19C39.9994 18.4201 39.5293 17.95 38.9494 17.95H23.9631Z" fill="white"/>
</svg>
