<svg width="50" height="50" viewBox="0 0 50 50" fill="none" xmlns="http://www.w3.org/2000/svg">
<rect width="50" height="50" rx="4" fill="#4169E1"/>
<path d="M37.9 14.0497C37.9 12.9729 37.0271 12.1 35.95 12.1L14.05 12.1C12.973 12.1 12.1 12.973 12.1 14.05L12.1 35.95C12.1 37.027 12.973 37.9 14.05 37.9H20.9499C21.5298 37.9 21.9999 38.3701 21.9999 38.95C21.9999 39.5299 21.5298 40 20.9499 40H14.05C11.8133 40 10 38.1868 10 35.95L10 14.05C10 11.8133 11.8132 10 14.05 10H35.95C38.1866 10 40 11.8128 40 14.0497V14.9501C40 15.53 39.5299 16.0001 38.95 16.0001C38.3701 16.0001 37.9 15.53 37.9 14.9501V14.0497Z" fill="white"/>
<path fill-rule="evenodd" clip-rule="evenodd" d="M25.45 23.5001C25.45 19.6065 28.6064 16.4501 32.5 16.4501C36.3936 16.4501 39.55 19.6065 39.55 23.5001C39.55 25.1111 39.0085 26.5978 38.0987 27.785L39.5416 39.1175C39.5967 39.5502 39.3785 39.9719 38.9935 40.1769C38.6085 40.3819 38.1368 40.3275 37.8085 40.0403L32.5 35.3953L27.1914 40.0403C26.8631 40.3275 26.3915 40.3819 26.0065 40.1769C25.6215 39.9719 25.4033 39.5502 25.4584 39.1175L26.9012 27.785C25.9915 26.5978 25.45 25.1111 25.45 23.5001ZM32.5 18.5501C29.7662 18.5501 27.55 20.7663 27.55 23.5001C27.55 24.7562 28.0165 25.9008 28.7872 26.774C29.6958 27.8034 31.0217 28.4501 32.5 28.4501C33.9783 28.4501 35.3042 27.8034 36.2127 26.774C36.9835 25.9008 37.45 24.7562 37.45 23.5001C37.45 20.7663 35.2338 18.5501 32.5 18.5501ZM28.7996 29.5018L27.8911 36.6377L32.5 32.6049L37.1089 36.6377L36.2003 29.5018C35.1249 30.1661 33.857 30.5501 32.5 30.5501C31.1429 30.5501 29.875 30.1661 28.7996 29.5018Z" fill="white"/>
<path d="M21.4 26.0499C21.9799 26.0499 22.45 25.5798 22.45 24.9999C22.45 24.42 21.9799 23.9499 21.4 23.9499L16 23.9499C15.4201 23.9499 14.95 24.42 14.95 24.9999C14.95 25.5798 15.4201 26.0499 16 26.0499H21.4Z" fill="white"/>
<path d="M22.45 29.4999C22.45 30.0798 21.9799 30.5499 21.4 30.5499H16C15.4201 30.5499 14.95 30.0798 14.95 29.4999C14.95 28.92 15.4201 28.4499 16 28.4499L21.4 28.4499C21.9799 28.4499 22.45 28.92 22.45 29.4999Z" fill="white"/>
<path d="M21.4 21.5499C21.9799 21.5499 22.45 21.0798 22.45 20.4999C22.45 19.92 21.9799 19.4499 21.4 19.4499H16C15.4201 19.4499 14.95 19.92 14.95 20.4999C14.95 21.0798 15.4201 21.5499 16 21.5499H21.4Z" fill="white"/>
</svg>
