<svg width="50" height="50" viewBox="0 0 50 50" fill="none" xmlns="http://www.w3.org/2000/svg">
<rect width="50" height="50" rx="4" fill="#1E46BD"/>
<g clip-path="url(#clip0_952_10323)">
<path d="M15.1 35.9499C15.1 37.0269 15.973 37.8999 17.05 37.8999H24.1C24.6799 37.8999 25.15 38.37 25.15 38.9499C25.15 39.5298 24.6799 39.9999 24.1 39.9999H17.05C14.8132 39.9999 13 38.1867 13 35.9499V14.0499C13 11.8132 14.8132 9.99991 17.05 9.99991H32.95C35.1868 9.99991 37 11.8132 37 14.0499V19.4498C37 20.0297 36.5299 20.4998 35.95 20.4998C35.3701 20.4998 34.9 20.0297 34.9 19.4498V14.0499C34.9 12.973 34.027 12.0999 32.95 12.0999L17.05 12.0999C15.973 12.0999 15.1 12.973 15.1 14.0499L15.1 35.9499Z" fill="white"/>
<path fill-rule="evenodd" clip-rule="evenodd" d="M34.1255 24.4532C31.4546 21.7823 27.1242 21.7823 24.4533 24.4532C21.7823 27.1241 21.7823 31.4545 24.4533 34.1254C26.8717 36.5438 30.6507 36.7724 33.3264 34.8112L38.2076 39.6924C38.6177 40.1025 39.2825 40.1025 39.6925 39.6924C40.1026 39.2824 40.1026 38.6176 39.6925 38.2075L34.8113 33.3263C36.7725 30.6506 36.5439 26.8716 34.1255 24.4532ZM25.9382 25.9381C27.789 24.0873 30.7897 24.0873 32.6406 25.9381C34.4914 27.7889 34.4914 30.7896 32.6406 32.6405C30.7897 34.4913 27.789 34.4913 25.9382 32.6405C24.0874 30.7896 24.0874 27.7889 25.9382 25.9381Z" fill="white"/>
</g>
<defs>
<clipPath id="clip0_952_10323">
<rect width="30" height="30" fill="white" transform="translate(10 10)"/>
</clipPath>
</defs>
</svg>
