<svg width="50" height="50" viewBox="0 0 50 50" fill="none" xmlns="http://www.w3.org/2000/svg">
<rect width="50" height="50" rx="4" fill="#1E46BD"/>
<path d="M32.5001 26.05C32.5001 26.6299 32.03 27.1 31.4501 27.1L18.5501 27.1C17.9702 27.1 17.5001 26.6299 17.5001 26.05C17.5001 25.4701 17.9702 25 18.5501 25H31.4501C32.03 25 32.5001 25.4701 32.5001 26.05Z" fill="white"/>
<path d="M31.4501 22.6C32.03 22.6 32.5001 22.1299 32.5001 21.55C32.5001 20.9701 32.03 20.5 31.4501 20.5L18.5501 20.5C17.9702 20.5 17.5001 20.9701 17.5001 21.55C17.5001 22.1299 17.9702 22.6 18.5501 22.6L31.4501 22.6Z" fill="white"/>
<path d="M32.5001 17.05C32.5001 17.6299 32.03 18.1 31.4501 18.1L18.5501 18.1C17.9702 18.1 17.5001 17.6299 17.5001 17.05C17.5001 16.4701 17.9702 16 18.5501 16L31.4501 16C32.03 16 32.5001 16.4701 32.5001 17.05Z" fill="white"/>
<path d="M31.4501 29.5L24.5501 29.5C23.9702 29.5 23.5001 29.9701 23.5001 30.55C23.5001 31.1299 23.9702 31.6 24.5501 31.6H31.4501C32.03 31.6 32.5001 31.1299 32.5001 30.55C32.5001 29.9701 32.03 29.5 31.4501 29.5Z" fill="white"/>
<path fill-rule="evenodd" clip-rule="evenodd" d="M13 12.55C13 11.1417 14.1417 10 15.55 10H34.45C35.8583 10 37 11.1417 37 12.55V37.2937C37 39.2965 34.7969 40.5176 33.0985 39.4561L29.9415 37.483L26.3216 39.6768C25.5093 40.1691 24.4907 40.1691 23.6784 39.6768L20.0585 37.483L16.9015 39.4561C15.2031 40.5176 13 39.2965 13 37.2937V12.55ZM15.55 12.1C15.3015 12.1 15.1 12.3015 15.1 12.55V37.2937C15.1 37.6471 15.4888 37.8626 15.7885 37.6753L19.4935 35.3597C19.8296 35.1496 20.2553 35.1467 20.5942 35.3521L24.7668 37.8809C24.9101 37.9678 25.0899 37.9678 25.2332 37.8809L29.4058 35.3521C29.7447 35.1467 30.1704 35.1496 30.5065 35.3597L34.2115 37.6753C34.5112 37.8626 34.9 37.6471 34.9 37.2937V12.55C34.9 12.3015 34.6985 12.1 34.45 12.1H15.55Z" fill="white"/>
</svg>
