<svg width="50" height="50" viewBox="0 0 50 50" fill="none" xmlns="http://www.w3.org/2000/svg">
<rect width="50" height="50" rx="4" fill="#1E46BD"/>
<path fill-rule="evenodd" clip-rule="evenodd" d="M14.5012 14.3624C14.2526 14.3624 14.0512 14.5651 14.0512 14.8151V20.5488H17.6087C17.6904 20.5488 17.7706 20.5264 17.8406 20.4841L23.7367 16.917L20.9821 14.4755C20.8999 14.4026 20.7941 14.3624 20.6846 14.3624H14.5012ZM25.6246 15.7748L22.3704 12.8905C21.9047 12.4777 21.3053 12.25 20.6846 12.25H14.5012C13.0928 12.25 11.9512 13.3984 11.9512 14.8151V20.6199C10.8318 20.8909 10 21.9047 10 23.1139V35.1849C10 36.6016 11.1417 37.75 12.55 37.75H37.45C38.8583 37.75 40 36.6016 40 35.1849V17.0784C40 15.6617 38.8583 14.5133 37.45 14.5133H28.4175C27.9544 14.5133 27.5001 14.6402 27.1032 14.8802L25.6246 15.7748ZM28.4175 16.6257C28.3358 16.6257 28.2556 16.6481 28.1856 16.6905L18.9229 22.2943C18.5261 22.5344 18.0718 22.6612 17.6087 22.6612H12.55C12.3015 22.6612 12.1 22.8639 12.1 23.1139V35.1849C12.1 35.4349 12.3015 35.6376 12.55 35.6376H37.45C37.6985 35.6376 37.9 35.4349 37.9 35.1849V17.0784C37.9 16.8284 37.6985 16.6257 37.45 16.6257H28.4175Z" fill="white"/>
</svg>
