<svg width="50" height="50" viewBox="0 0 50 50" fill="none" xmlns="http://www.w3.org/2000/svg">
<rect width="50" height="50" rx="4" fill="#1E46BD"/>
<path d="M12.55 10C11.1417 10 10 11.1417 10 12.55V37.45C10 38.8583 11.1417 40 12.55 40H22.0012C22.5811 40 23.0512 39.5299 23.0512 38.95C23.0512 38.3701 22.5811 37.9 22.0012 37.9H12.55C12.3015 37.9 12.1 37.6985 12.1 37.45V12.55C12.1 12.3015 12.3015 12.1 12.55 12.1H37.45C37.6985 12.1 37.9 12.3015 37.9 12.55V22C37.9 22.5799 38.3701 23.05 38.95 23.05C39.5299 23.05 40 22.5799 40 22V12.55C40 11.1417 38.8583 10 37.45 10H12.55Z" fill="white"/>
<path d="M24.9994 31.45C24.9994 27.8878 27.8872 25 31.4494 25C32.2209 25 32.9585 25.135 33.6414 25.3817C34.1868 25.5788 34.7887 25.2964 34.9858 24.751C35.1828 24.2056 34.9004 23.6038 34.355 23.4067C33.4466 23.0785 32.4677 22.9 31.4494 22.9C26.7274 22.9 22.8994 26.728 22.8994 31.45C22.8994 36.172 26.7274 40 31.4494 40C34.2813 40 36.7915 38.6222 38.3457 36.5049C38.6889 36.0375 38.5881 35.3803 38.1206 35.0372C37.6532 34.694 36.996 34.7948 36.6529 35.2622C35.4772 36.8638 33.5844 37.9 31.4494 37.9C27.8872 37.9 24.9994 35.0122 24.9994 31.45Z" fill="white"/>
<path d="M39.7516 26.5704C40.1269 27.0125 40.0728 27.6751 39.6308 28.0504L31.6808 34.8004C31.264 35.1543 30.6453 35.1291 30.2587 34.7425L27.2587 31.7425C26.8487 31.3324 26.8487 30.6676 27.2587 30.2575C27.6688 29.8475 28.3336 29.8475 28.7436 30.2575L31.0593 32.5732L38.2716 26.4496C38.7136 26.0743 39.3763 26.1284 39.7516 26.5704Z" fill="white"/>
<path d="M16.0012 14.95C15.4213 14.95 14.9512 15.4201 14.9512 16C14.9512 16.5799 15.4213 17.05 16.0012 17.05H28.0012C28.5811 17.05 29.0512 16.5799 29.0512 16C29.0512 15.4201 28.5811 14.95 28.0012 14.95H16.0012Z" fill="white"/>
<path d="M14.9512 20.5C14.9512 19.9201 15.4213 19.45 16.0012 19.45H28.0012C28.5811 19.45 29.0512 19.9201 29.0512 20.5C29.0512 21.0799 28.5811 21.55 28.0012 21.55H16.0012C15.4213 21.55 14.9512 21.0799 14.9512 20.5Z" fill="white"/>
<path d="M16.0012 23.95C15.4213 23.95 14.9512 24.4201 14.9512 25C14.9512 25.5799 15.4213 26.05 16.0012 26.05H20.5012C21.0811 26.05 21.5512 25.5799 21.5512 25C21.5512 24.4201 21.0811 23.95 20.5012 23.95H16.0012Z" fill="white"/>
</svg>
