<svg width="50" height="50" viewBox="0 0 50 50" fill="none" xmlns="http://www.w3.org/2000/svg">
<rect width="50" height="50" rx="4" fill="#1E46BD"/>
<path fill-rule="evenodd" clip-rule="evenodd" d="M13.6 12.4H36.4C38.3882 12.4 40 14.0117 40 16V34C40 35.9882 38.3882 37.6 36.4 37.6H13.6C11.6118 37.6 10 35.9882 10 34V16C10 14.0117 11.6118 12.4 13.6 12.4ZM13.6 14.5C12.7716 14.5 12.1 15.1715 12.1 16V34C12.1 34.8284 12.7716 35.5 13.6 35.5H36.4C37.2284 35.5 37.9 34.8284 37.9 34V16C37.9 15.1715 37.2284 14.5 36.4 14.5H13.6Z" fill="white"/>
<path fill-rule="evenodd" clip-rule="evenodd" d="M15.9994 28.45C16.5793 28.45 17.0494 28.9201 17.0494 29.5V32.5C17.0494 33.0799 16.5793 33.55 15.9994 33.55C15.4195 33.55 14.9494 33.0799 14.9494 32.5V29.5C14.9494 28.9201 15.4195 28.45 15.9994 28.45Z" fill="white"/>
<path fill-rule="evenodd" clip-rule="evenodd" d="M21.9994 26.95C22.5793 26.95 23.0494 27.4201 23.0494 28V32.5C23.0494 33.0799 22.5793 33.55 21.9994 33.55C21.4195 33.55 20.9494 33.0799 20.9494 32.5V28C20.9494 27.4201 21.4195 26.95 21.9994 26.95Z" fill="white"/>
<path fill-rule="evenodd" clip-rule="evenodd" d="M27.9994 25.45C28.5793 25.45 29.0494 25.9201 29.0494 26.5V32.5C29.0494 33.0799 28.5793 33.55 27.9994 33.55C27.4195 33.55 26.9494 33.0799 26.9494 32.5V26.5C26.9494 25.9201 27.4195 25.45 27.9994 25.45Z" fill="white"/>
<path fill-rule="evenodd" clip-rule="evenodd" d="M33.9994 23.95C34.5793 23.95 35.0494 24.4201 35.0494 25V32.5C35.0494 33.0799 34.5793 33.55 33.9994 33.55C33.4195 33.55 32.9494 33.0799 32.9494 32.5V25C32.9494 24.4201 33.4195 23.95 33.9994 23.95Z" fill="white"/>
<path fill-rule="evenodd" clip-rule="evenodd" d="M28.4494 16.75C28.4494 16.1701 28.9195 15.7 29.4994 15.7H34.7494C35.0869 15.7 35.4039 15.8622 35.6012 16.136C35.7986 16.4098 35.8523 16.7618 35.7455 17.082L34.2455 21.582C34.0621 22.1321 33.4675 22.4295 32.9174 22.2461C32.3672 22.0627 32.0699 21.4681 32.2533 20.9179L32.7856 19.3211L28.5818 22.1236C28.4094 22.2386 28.2067 22.3 27.9994 22.3H20.9823L16.7966 27.1833C16.4192 27.6236 15.7564 27.6746 15.3161 27.2972C14.8758 26.9198 14.8248 26.2569 15.2022 25.8166L19.7022 20.5666C19.9017 20.3339 20.1929 20.2 20.4994 20.2H27.6815L31.2815 17.8H29.4994C28.9195 17.8 28.4494 17.3299 28.4494 16.75Z" fill="white"/>
</svg>
