<svg width="50" height="50" viewBox="0 0 50 50" fill="none" xmlns="http://www.w3.org/2000/svg">
<rect width="50" height="50" rx="4" fill="#E5353D"/>
<path d="M26.0512 29.2399C26.7642 28.8624 27.25 28.1129 27.25 27.25C27.25 26.0074 26.2426 25 25 25C23.7574 25 22.75 26.0074 22.75 27.25C22.75 28.1139 23.2369 28.8641 23.9512 29.2411V31C23.9512 31.5799 24.4213 32.05 25.0012 32.05C25.5811 32.05 26.0512 31.5799 26.0512 31V29.2399Z" fill="white"/>
<path fill-rule="evenodd" clip-rule="evenodd" d="M35.0488 15.6598C35.0488 12.534 32.5149 10 29.3891 10H19.9738C17.1986 10 14.9488 12.2498 14.9488 15.025V16C14.9488 16.5799 15.4189 17.05 15.9988 17.05C16.5787 17.05 17.0488 16.5799 17.0488 16V15.025C17.0488 13.4096 18.3584 12.1 19.9738 12.1L29.3891 12.1C31.3551 12.1 32.9488 13.6938 32.9488 15.6598V20.95H14.05C12.6417 20.95 11.5 22.0917 11.5 23.5V35.95C11.5 37.3583 12.6417 38.5 14.05 38.5H35.95C37.3583 38.5 38.5 37.3583 38.5 35.95V23.5C38.5 22.0917 37.3583 20.95 35.95 20.95H35.0488V15.6598ZM35.95 23.05C36.1985 23.05 36.4 23.2515 36.4 23.5V35.95C36.4 36.1985 36.1985 36.4 35.95 36.4H14.05C13.8015 36.4 13.6 36.1985 13.6 35.95V23.5C13.6 23.2515 13.8015 23.05 14.05 23.05H35.95Z" fill="white"/>
</svg>
