<svg width="50" height="50" viewBox="0 0 50 50" fill="none" xmlns="http://www.w3.org/2000/svg">
<rect width="50" height="50" rx="4" fill="#E5353D"/>
<path fill-rule="evenodd" clip-rule="evenodd" d="M14.05 13.45C11.8132 13.45 10 15.2632 10 17.5V32.5C10 34.7367 11.8133 36.55 14.05 36.55H35.95C38.1868 36.55 40 34.7367 40 32.5V17.5C40 15.2632 38.1867 13.45 35.95 13.45H14.05ZM13.9089 15.555C13.9555 15.5517 14.0026 15.55 14.05 15.55H35.95C35.9982 15.55 36.046 15.5517 36.0933 15.5552L27.1944 22.8837C25.9205 23.9328 24.0819 23.9328 22.808 22.8837L13.9089 15.555ZM12.2036 16.8711C12.1364 17.0684 12.1 17.2799 12.1 17.5V32.5C12.1 33.5769 12.973 34.45 14.05 34.45H35.95C37.027 34.45 37.9 33.577 37.9 32.5V17.5C37.9 17.2805 37.8637 17.0695 37.7969 16.8726L28.5294 24.5047C26.48 26.1924 23.5224 26.1924 21.473 24.5047L12.2036 16.8711Z" fill="white"/>
</svg>
