<svg width="50" height="50" viewBox="0 0 50 50" fill="none" xmlns="http://www.w3.org/2000/svg">
<rect width="50" height="50" rx="4" fill="#E5353D"/>
<path d="M16.0012 15.7C16.5811 15.7 17.0512 16.1701 17.0512 16.75V21.25C17.0512 21.8299 16.5811 22.3 16.0012 22.3C15.4213 22.3 14.9512 21.8299 14.9512 21.25V16.75C14.9512 16.1701 15.4213 15.7 16.0012 15.7Z" fill="white"/>
<path d="M21.5512 16.75C21.5512 16.1701 21.0811 15.7 20.5012 15.7C19.9213 15.7 19.4512 16.1701 19.4512 16.75V21.25C19.4512 21.8299 19.9213 22.3 20.5012 22.3C21.0811 22.3 21.5512 21.8299 21.5512 21.25V16.75Z" fill="white"/>
<path d="M25.0012 15.7C25.5811 15.7 26.0512 16.1701 26.0512 16.75V21.25C26.0512 21.8299 25.5811 22.3 25.0012 22.3C24.4213 22.3 23.9512 21.8299 23.9512 21.25V16.75C23.9512 16.1701 24.4213 15.7 25.0012 15.7Z" fill="white"/>
<path d="M32.9512 20.5C33.7796 20.5 34.4512 19.8284 34.4512 19C34.4512 18.1716 33.7796 17.5 32.9512 17.5C32.1227 17.5 31.4512 18.1716 31.4512 19C31.4512 19.8284 32.1227 20.5 32.9512 20.5Z" fill="white"/>
<path fill-rule="evenodd" clip-rule="evenodd" d="M14.05 11.95C11.8132 11.95 10 13.7632 10 16V22C10 23.1894 10.5127 24.2591 11.3292 25C10.5127 25.7409 10 26.8106 10 28V34C10 36.2368 11.8133 38.05 14.05 38.05H29.5012C30.0811 38.05 30.5512 37.5799 30.5512 37C30.5512 36.4201 30.0811 35.95 29.5012 35.95H14.05C12.973 35.95 12.1 35.077 12.1 34V28C12.1 26.923 12.973 26.05 14.05 26.05H35.95C37.027 26.05 37.9 26.923 37.9 28V29.5C37.9 30.0799 38.3701 30.55 38.95 30.55C39.5299 30.55 40 30.0799 40 29.5V28C40 26.8106 39.4873 25.7409 38.6708 25C39.4873 24.2591 40 23.1894 40 22V16C40 13.7632 38.1867 11.95 35.95 11.95H14.05ZM14.05 23.95H35.95C37.027 23.95 37.9 23.077 37.9 22V16C37.9 14.923 37.027 14.05 35.95 14.05H14.05C12.973 14.05 12.1 14.923 12.1 16V22C12.1 23.077 12.973 23.95 14.05 23.95Z" fill="white"/>
<path d="M35.1994 28.45C35.7793 28.45 36.2494 28.9201 36.2494 29.5V32.2H38.9494C39.5293 32.2 39.9994 32.6701 39.9994 33.25C39.9994 33.8299 39.5293 34.3 38.9494 34.3H36.2494V37C36.2494 37.5799 35.7793 38.05 35.1994 38.05C34.6195 38.05 34.1494 37.5799 34.1494 37V34.3H31.4494C30.8695 34.3 30.3994 33.8299 30.3994 33.25C30.3994 32.6701 30.8695 32.2 31.4494 32.2H34.1494V29.5C34.1494 28.9201 34.6195 28.45 35.1994 28.45Z" fill="white"/>
</svg>
