<svg width="50" height="50" viewBox="0 0 50 50" fill="none" xmlns="http://www.w3.org/2000/svg">
<rect width="50" height="50" rx="4" fill="#E5353D"/>
<path d="M33.2436 13.7575C32.8336 13.3475 32.1688 13.3475 31.7587 13.7575C31.3487 14.1676 31.3487 14.8324 31.7587 15.2424L32.9662 16.45H14.5012C13.9213 16.45 13.4512 16.9201 13.4512 17.5C13.4512 18.0799 13.9213 18.55 14.5012 18.55H32.9662L31.7587 19.7575C31.3487 20.1676 31.3487 20.8324 31.7587 21.2424C32.1688 21.6525 32.8336 21.6525 33.2436 21.2424L36.2436 18.2424C36.6537 17.8324 36.6537 17.1676 36.2436 16.7575L33.2436 13.7575Z" fill="white"/>
<path fill-rule="evenodd" clip-rule="evenodd" d="M34.45 33.55H15.55C12.4848 33.55 10 31.0652 10 28C10 24.9348 12.4848 22.45 15.55 22.45H34.45C37.5152 22.45 40 24.9348 40 28C40 31.0652 37.5152 33.55 34.45 33.55ZM15.55 24.55C13.6446 24.55 12.1 26.0946 12.1 28C12.1 28.6882 12.3015 29.3293 12.6487 29.8675L17.9662 24.55H15.55ZM20.9361 24.55L14.2781 31.208C14.6717 31.3641 15.1008 31.45 15.55 31.45H20.2907L27.1907 24.55H20.9361ZM30.1605 24.55L23.2605 31.45H29.0662L35.7236 24.7927C35.3295 24.6361 34.8998 24.55 34.45 24.55H30.1605ZM37.3522 26.1338L32.0361 31.45H34.45C36.3554 31.45 37.9 29.9054 37.9 28C37.9 27.3124 37.6989 26.6718 37.3522 26.1338Z" fill="white"/>
</svg>
