<svg width="50" height="50" viewBox="0 0 50 50" fill="none" xmlns="http://www.w3.org/2000/svg">
<rect width="50" height="50" rx="4" fill="#F58F00"/>
<path d="M29.9501 29.05C30.53 29.05 31.0001 28.5799 31.0001 28C31.0001 27.4201 30.53 26.95 29.9501 26.95L20.05 26.95C19.4701 26.95 19 27.4201 19 28C19 28.5799 19.4701 29.05 20.05 29.05H29.9501Z" fill="white"/>
<path d="M31.0001 32.5C31.0001 33.0799 30.53 33.55 29.9501 33.55H20.05C19.4701 33.55 19 33.0799 19 32.5C19 31.9201 19.4701 31.45 20.05 31.45L29.9501 31.45C30.53 31.45 31.0001 31.9201 31.0001 32.5Z" fill="white"/>
<path d="M29.9501 24.55C30.53 24.55 31.0001 24.0799 31.0001 23.5C31.0001 22.9201 30.53 22.45 29.9501 22.45L20.05 22.45C19.4701 22.45 19 22.9201 19 23.5C19 24.0799 19.4701 24.55 20.05 24.55H29.9501Z" fill="white"/>
<path fill-rule="evenodd" clip-rule="evenodd" d="M32.05 12.5501V13.0321C34.833 13.3312 37 15.6876 37 18.55V34.45C37 37.5152 34.5152 40 31.45 40H18.55C15.4848 40 13 37.5152 13 34.45V18.55C13 15.6876 15.167 13.3312 17.95 13.0321V12.5501C17.95 11.1418 19.0917 10.0001 20.5 10.0001H29.5C30.9083 10.0001 32.05 11.1418 32.05 12.5501ZM20.05 12.5501C20.05 12.3016 20.2515 12.1001 20.5 12.1001H29.5C29.7485 12.1001 29.95 12.3016 29.95 12.5501V14.05C29.95 15.127 29.077 16 28 16H21.9999C20.923 16 20.05 15.127 20.05 14.05V12.5501ZM28 18.1C29.8629 18.1 31.432 16.8423 31.9045 15.1297C33.5951 15.3522 34.9 16.7987 34.9 18.55V34.45C34.9 36.3554 33.3554 37.9 31.45 37.9H18.55C16.6446 37.9 15.1 36.3554 15.1 34.45V18.55C15.1 16.7987 16.4049 15.3522 18.0955 15.1297C18.568 16.8423 20.1371 18.1 21.9999 18.1H28Z" fill="white"/>
</svg>
