<svg width="50" height="50" viewBox="0 0 50 50" fill="none" xmlns="http://www.w3.org/2000/svg">
<rect width="50" height="50" rx="4" fill="#F58F00"/>
<path fill-rule="evenodd" clip-rule="evenodd" d="M10 16C10 14.5917 11.1417 13.45 12.55 13.45H37.45C38.8583 13.45 40 14.5917 40 16V25C40 25.5799 39.5299 26.05 38.95 26.05C38.3701 26.05 37.9 25.5799 37.9 25V20.05H20.0512V34.45H25C25.5799 34.45 26.05 34.9201 26.05 35.5C26.05 36.0799 25.5799 36.55 25 36.55H12.55C11.1417 36.55 10 35.4083 10 34V16ZM17.9512 34.45V20.05H12.1V34C12.1 34.2485 12.3015 34.45 12.55 34.45H17.9512ZM37.9 16V17.95H12.1V16C12.1 15.7515 12.3015 15.55 12.55 15.55H37.45C37.6985 15.55 37.9 15.7515 37.9 16Z" fill="white"/>
<path d="M34.4523 27.4C35.0322 27.4 35.5023 27.8701 35.5023 28.45V31.9H38.95C39.5299 31.9 40 32.3701 40 32.95C40 33.5299 39.5299 34 38.95 34H35.5023V37.45C35.5023 38.0299 35.0322 38.5 34.4523 38.5C33.8724 38.5 33.4023 38.0299 33.4023 37.45V34H29.95C29.3701 34 28.9 33.5299 28.9 32.95C28.9 32.3701 29.3701 31.9 29.95 31.9H33.4023V28.45C33.4023 27.8701 33.8724 27.4 34.4523 27.4Z" fill="white"/>
</svg>
