<svg width="50" height="50" viewBox="0 0 50 50" fill="none" xmlns="http://www.w3.org/2000/svg">
<rect width="50" height="50" rx="4" fill="#F58F00"/>
<path d="M19.0012 23.95C18.4213 23.95 17.9512 24.4201 17.9512 25C17.9512 25.5799 18.4213 26.05 19.0012 26.05H23.5012C24.0811 26.05 24.5512 25.5799 24.5512 25C24.5512 24.4201 24.0811 23.95 23.5012 23.95H19.0012Z" fill="white"/>
<path d="M17.9512 29.5C17.9512 28.9201 18.4213 28.45 19.0012 28.45H29.5012C30.0811 28.45 30.5512 28.9201 30.5512 29.5C30.5512 30.0799 30.0811 30.55 29.5012 30.55H19.0012C18.4213 30.55 17.9512 30.0799 17.9512 29.5Z" fill="white"/>
<path d="M19.0012 32.95C18.4213 32.95 17.9512 33.4201 17.9512 34C17.9512 34.5799 18.4213 35.05 19.0012 35.05H29.5012C30.0811 35.05 30.5512 34.5799 30.5512 34C30.5512 33.4201 30.0811 32.95 29.5012 32.95H19.0012Z" fill="white"/>
<path fill-rule="evenodd" clip-rule="evenodd" d="M13 14.0499C13 11.8132 14.8132 9.99991 17.05 9.99991H24.4464C25.1192 9.99991 25.7648 10.2658 26.2424 10.7397L36.246 20.6645C36.7286 21.1433 37 21.7949 37 22.4747V34.4499C37 37.5151 34.5152 39.9999 31.45 39.9999H17.05C14.8132 39.9999 13 38.1867 13 35.9499V14.0499ZM17.05 12.0999C15.973 12.0999 15.1 12.973 15.1 14.0499V35.9499C15.1 37.0269 15.973 37.8999 17.05 37.8999H31.45C33.3554 37.8999 34.9 36.3553 34.9 34.4499V23.05H28C25.7632 23.05 23.95 21.2367 23.95 19V12.0999H17.05ZM26.05 13.5069L33.5521 20.95H28C26.923 20.95 26.05 20.0769 26.05 19V13.5069Z" fill="white"/>
</svg>
