<svg width="50" height="50" viewBox="0 0 50 50" fill="none" xmlns="http://www.w3.org/2000/svg">
<rect width="50" height="50" rx="4" fill="#F58F00"/>
<path fill-rule="evenodd" clip-rule="evenodd" d="M10 14.05C10 12.6417 11.1417 11.5 12.55 11.5H37.45C38.8583 11.5 40 12.6417 40 14.05V35.95C40 37.3583 38.8583 38.5 37.45 38.5H12.55C11.1417 38.5 10 37.3583 10 35.95V14.05ZM12.55 13.6C12.3015 13.6 12.1 13.8015 12.1 14.05V19.45H17.2012V13.75C17.2012 13.6991 17.2048 13.649 17.2118 13.6H12.55ZM17.2012 21.55H12.1V25.45H17.2012V21.55ZM12.1 35.95V27.55H17.2012V36.25C17.2012 36.3009 17.2048 36.351 17.2118 36.4H12.55C12.3015 36.4 12.1 36.1985 12.1 35.95ZM23.9618 36.4H19.2905C19.2975 36.351 19.3012 36.3009 19.3012 36.25V21.55H23.9512V36.25C23.9512 36.3009 23.9548 36.351 23.9618 36.4ZM23.9512 19.45H19.3012V13.75C19.3012 13.6991 19.2975 13.649 19.2905 13.6H23.9618C23.9548 13.649 23.9512 13.6991 23.9512 13.75V19.45ZM26.0512 36.25C26.0512 36.3009 26.0475 36.351 26.0405 36.4H30.7118C30.7048 36.351 30.7012 36.3009 30.7012 36.25V13.75C30.7012 13.6991 30.7048 13.649 30.7118 13.6H26.0405C26.0475 13.649 26.0512 13.6991 26.0512 13.75V36.25ZM37.45 36.4H32.7905C32.7975 36.351 32.8012 36.3009 32.8012 36.25V32.05H37.9V35.95C37.9 36.1985 37.6985 36.4 37.45 36.4ZM37.9 29.95H32.8012V21.55H37.9V29.95ZM32.8012 13.75V19.45H37.9V14.05C37.9 13.8015 37.6985 13.6 37.45 13.6H32.7905C32.7975 13.649 32.8012 13.6991 32.8012 13.75Z" fill="white"/>
</svg>
