<svg width="50" height="50" viewBox="0 0 50 50" fill="none" xmlns="http://www.w3.org/2000/svg">
<rect y="0.00012207" width="50" height="50" rx="4" fill="#00A876"/>
<path d="M10 12.5501C10 11.1418 11.1417 10.0001 12.55 10.0001H27.55C28.9583 10.0001 30.1 11.1418 30.1 12.5501V17.9657L31.3081 16.7576C31.7182 16.3475 32.383 16.3475 32.793 16.7576C33.2031 17.1676 33.2031 17.8325 32.793 18.2425L29.793 21.2425C29.383 21.6526 28.7182 21.6526 28.3081 21.2425L25.3081 18.2425C24.8981 17.8325 24.8981 17.1676 25.3081 16.7576C25.7182 16.3475 26.383 16.3475 26.793 16.7576L28 17.9645V12.5501C28 12.3016 27.7985 12.1001 27.55 12.1001H12.55C12.3015 12.1001 12.1 12.3016 12.1 12.5501V27.5501C12.1 27.7987 12.3015 28.0001 12.55 28.0001H15.55C16.1299 28.0001 16.6 28.4702 16.6 29.0501C16.6 29.63 16.1299 30.1001 15.55 30.1001H12.55C11.1417 30.1001 10 28.9584 10 27.5501V12.5501Z" fill="#F2F5FD"/>
<path d="M37.45 40.0001C38.8583 40.0001 40 38.8584 40 37.4501V22.4501C40 21.0418 38.8583 19.9001 37.45 19.9001H34.45C33.8701 19.9001 33.4 20.3702 33.4 20.9501C33.4 21.53 33.8701 22.0001 34.45 22.0001H37.45C37.6985 22.0001 37.9 22.2016 37.9 22.4501V37.4501C37.9 37.6987 37.6985 37.9001 37.45 37.9001H22.45C22.2015 37.9001 22 37.6987 22 37.4501V32.0357L23.207 33.2427C23.617 33.6527 24.2818 33.6527 24.6919 33.2427C25.1019 32.8326 25.1019 32.1678 24.6919 31.7577L21.6919 28.7577C21.2818 28.3477 20.617 28.3477 20.207 28.7577L17.207 31.7577C16.7969 32.1678 16.7969 32.8326 17.207 33.2427C17.617 33.6527 18.2818 33.6527 18.6919 33.2427L19.9 32.0345V37.4501C19.9 38.8584 21.0417 40.0001 22.45 40.0001H37.45Z" fill="#F2F5FD"/>
<path d="M13.4497 16.0002C13.4497 15.4203 13.9198 14.9502 14.4997 14.9502H17.9497V14.5002C17.9497 13.9203 18.4198 13.4502 18.9997 13.4502C19.5796 13.4502 20.0497 13.9203 20.0497 14.5002V14.9502H23.4997C23.8422 14.9502 24.1632 15.1173 24.3597 15.3978C24.5562 15.6784 24.6035 16.0371 24.4865 16.359C23.9505 17.833 22.8393 20.0172 21.2101 21.8533C21.0198 22.0678 20.8207 22.2794 20.6129 22.4858C21.6838 23.0483 22.8978 23.2002 23.4997 23.2002C24.0796 23.2002 24.5497 23.6703 24.5497 24.2502C24.5497 24.8301 24.0796 25.3002 23.4997 25.3002C22.6308 25.3002 20.9349 25.0921 19.4163 24.2243C19.2413 24.1244 19.0687 24.0155 18.9002 23.8973C17.6403 24.7359 16.1681 25.3002 14.4997 25.3002C13.9198 25.3002 13.4497 24.8301 13.4497 24.2502C13.4497 23.6703 13.9198 23.2002 14.4997 23.2002C15.5327 23.2002 16.5008 22.8905 17.3936 22.3647C16.8187 21.4946 16.4497 20.3882 16.4497 19.0002C16.4497 18.4203 16.9198 17.9502 17.4997 17.9502C18.0796 17.9502 18.5497 18.4203 18.5497 19.0002C18.5497 19.8586 18.7441 20.5332 19.0594 21.0688C19.258 20.875 19.4513 20.6714 19.6393 20.4596C20.6018 19.3748 21.366 18.1343 21.9031 17.0502H14.4997C13.9198 17.0502 13.4497 16.5801 13.4497 16.0002Z" fill="#F2F5FD"/>
<path fill-rule="evenodd" clip-rule="evenodd" d="M31.9391 24.5306C31.7554 24.1632 31.3744 23.9367 30.9638 23.9508C30.5533 23.965 30.1887 24.2172 30.0308 24.5964L26.2808 33.5964C26.0577 34.1316 26.3108 34.7464 26.8461 34.9694C27.3814 35.1925 27.9962 34.9393 28.2192 34.404L29.3143 31.7758C29.3746 31.7866 29.4366 31.7922 29.5 31.7922H33.222L34.5608 34.4698C34.8202 34.9885 35.4509 35.1987 35.9696 34.9393C36.4882 34.68 36.6985 34.0493 36.4391 33.5306L31.9391 24.5306ZM32.172 29.6922H30.1825L31.0868 27.5218L32.172 29.6922Z" fill="#F2F5FD"/>
</svg>
