<svg width="50" height="50" viewBox="0 0 50 50" fill="none" xmlns="http://www.w3.org/2000/svg">
<rect width="50" height="50" rx="4" fill="#00A876"/>
<path fill-rule="evenodd" clip-rule="evenodd" d="M24.9999 25C29.0936 25 32.4121 21.6421 32.4121 17.5C32.4121 13.3579 29.0936 10 24.9999 10C20.9063 10 17.5877 13.3579 17.5877 17.5C17.5877 21.6421 20.9063 25 24.9999 25ZM30.3367 17.5C30.3367 20.4824 27.9474 22.9 24.9999 22.9C22.0525 22.9 19.6632 20.4824 19.6632 17.5C19.6632 14.5177 22.0525 12.1 24.9999 12.1C27.9474 12.1 30.3367 14.5177 30.3367 17.5Z" fill="white"/>
<path fill-rule="evenodd" clip-rule="evenodd" d="M30.9298 40C35.0234 40 38.4994 36.3965 36.3372 32.8793C33.9827 29.0495 29.7856 26.5 25 26.5C20.2144 26.5 16.0173 29.0495 13.6628 32.8793C11.5006 36.3965 14.9766 40 19.0702 40H30.9298ZM25 28.6C29.0389 28.6 32.5834 30.749 34.5749 33.9885C35.1234 34.8807 34.9978 35.6745 34.3888 36.4096C33.7035 37.2369 32.4123 37.9 30.9298 37.9H19.0702C17.5877 37.9 16.2965 37.2369 15.6112 36.4096C15.0022 35.6745 14.8766 34.8807 15.4251 33.9885C17.4166 30.749 20.9611 28.6 25 28.6Z" fill="white"/>
</svg>
