<svg width="50" height="50" viewBox="0 0 50 50" fill="none" xmlns="http://www.w3.org/2000/svg">
<rect width="50" height="50" rx="4" fill="#00A876"/>
<path d="M17.9642 29.87C17.3874 30.2069 16.7162 30.4 16 30.4C15.2838 30.4 14.6126 30.2069 14.0358 29.87C13.3333 30.1437 12.6901 30.56 12.1335 31.0882C12.7096 31.5742 13.3785 31.9536 14.1098 32.1962C14.6931 31.81 15.3491 31.6 16 31.6C16.6509 31.6 17.3069 31.81 17.8902 32.1962C18.6215 31.9536 19.2904 31.5742 19.8665 31.0882C19.3099 30.56 18.6667 30.1437 17.9642 29.87Z" fill="white"/>
<path fill-rule="evenodd" clip-rule="evenodd" d="M12.1 26.5C12.1 27.9377 12.8779 29.1937 14.0358 29.87C13.3333 30.1437 12.6901 30.56 12.1335 31.0882C10.8288 29.9876 10 28.3406 10 26.5C10 23.1863 12.6863 20.5 16 20.5C19.3137 20.5 22 23.1863 22 26.5C22 28.3406 21.1712 29.9876 19.8665 31.0882C19.3099 30.56 18.6667 30.1437 17.9642 29.87C18.401 29.6148 18.7838 29.2772 19.0911 28.8784C19.5983 28.2201 19.9 27.3953 19.9 26.5C19.9 25.6442 19.6243 24.8527 19.1569 24.2096C18.448 23.2342 17.2981 22.6 16 22.6C13.8461 22.6 12.1 24.3461 12.1 26.5Z" fill="white"/>
<path d="M14.1098 32.1962C13.3785 31.9536 12.7096 31.5742 12.1335 31.0882C10.8288 32.3264 10 34.1793 10 36.25V38.95C10 39.5299 10.4701 40 11.05 40C11.6299 40 12.1 39.5299 12.1 38.95V36.25C12.1 34.3903 12.9652 32.954 14.1098 32.1962Z" fill="white"/>
<path d="M19.8665 31.0882C19.2904 31.5742 18.6215 31.9536 17.8902 32.1962C19.0348 32.954 19.9 34.3903 19.9 36.25V38.95C19.9 39.5299 20.3701 40 20.95 40C21.5299 40 22 39.5299 22 38.95V36.25C22 34.1793 21.1712 32.3264 19.8665 31.0882Z" fill="white"/>
<path d="M26.9642 19.37C26.3874 19.7069 25.7162 19.9 25 19.9C24.2838 19.9 23.6126 19.7069 23.0358 19.37C22.3333 19.6437 21.6901 20.06 21.1335 20.5882C21.7096 21.0742 22.3785 21.4536 23.1098 21.6962C23.6931 21.31 24.3491 21.1 25 21.1C25.6509 21.1 26.3069 21.31 26.8902 21.6962C27.6215 21.4536 28.2904 21.0742 28.8665 20.5882C28.3099 20.06 27.6667 19.6437 26.9642 19.37Z" fill="white"/>
<path fill-rule="evenodd" clip-rule="evenodd" d="M21.1 16C21.1 17.4377 21.8779 18.6937 23.0358 19.37C22.3333 19.6437 21.6901 20.06 21.1335 20.5882C19.8288 19.4876 19 17.8406 19 16C19 12.6863 21.6863 10 25 10C28.3137 10 31 12.6863 31 16C31 17.8406 30.1712 19.4876 28.8665 20.5882C28.3099 20.06 27.6667 19.6437 26.9642 19.37C28.1221 18.6937 28.9 17.4377 28.9 16C28.9 13.8461 27.1539 12.1 25 12.1C22.8461 12.1 21.1 13.8461 21.1 16Z" fill="white"/>
<path d="M35.9642 29.87C35.3874 30.2069 34.7162 30.4 34 30.4C33.2838 30.4 32.6126 30.2069 32.0358 29.87C31.3333 30.1437 30.6901 30.56 30.1335 31.0882C30.7096 31.5742 31.3785 31.9536 32.1098 32.1962C32.6931 31.81 33.3491 31.6 34 31.6C34.6509 31.6 35.3069 31.81 35.8902 32.1962C36.6215 31.9536 37.2904 31.5742 37.8665 31.0882C37.3099 30.56 36.6667 30.1437 35.9642 29.87Z" fill="white"/>
<path fill-rule="evenodd" clip-rule="evenodd" d="M30.1 26.5C30.1 27.3953 30.4017 28.2201 30.9089 28.8784C31.2162 29.2772 31.599 29.6148 32.0358 29.87C31.3333 30.1437 30.6901 30.56 30.1335 31.0882C28.8288 29.9876 28 28.3406 28 26.5C28 23.1863 30.6863 20.5 34 20.5C37.3137 20.5 40 23.1863 40 26.5C40 28.3406 39.1712 29.9876 37.8665 31.0882C37.3099 30.56 36.6667 30.1437 35.9642 29.87C37.1221 29.1937 37.9 27.9377 37.9 26.5C37.9 24.3461 36.1539 22.6 34 22.6C32.7019 22.6 31.552 23.2342 30.8431 24.2096C30.3757 24.8527 30.1 25.6442 30.1 26.5Z" fill="white"/>
<path d="M32.1098 32.1962C31.3785 31.9536 30.7096 31.5742 30.1335 31.0882C28.8288 32.3264 28 34.1793 28 36.25V38.95C28 39.5299 28.4701 40 29.05 40C29.6299 40 30.1 39.5299 30.1 38.95V36.25C30.1 34.3903 30.9652 32.954 32.1098 32.1962Z" fill="white"/>
<path d="M37.8665 31.0882C37.2904 31.5742 36.6215 31.9536 35.8902 32.1962C37.0348 32.954 37.9 34.3903 37.9 36.25V38.95C37.9 39.5299 38.3701 40 38.95 40C39.5299 40 40 39.5299 40 38.95V36.25C40 34.1793 39.1712 32.3264 37.8665 31.0882Z" fill="white"/>
<path fill-rule="evenodd" clip-rule="evenodd" d="M21.1335 20.5882C21.7096 21.0742 22.3785 21.4536 23.1098 21.6962C21.9652 22.454 21.1 23.8903 21.1 25.75V28.45C21.1 29.0299 20.6299 29.5 20.05 29.5C19.6227 29.5 19.255 29.2447 19.0911 28.8784C19.5983 28.2201 19.9 27.3953 19.9 26.5C19.9 25.6442 19.6243 24.8527 19.1569 24.2096C19.4554 22.7712 20.1627 21.5095 21.1335 20.5882Z" fill="white"/>
<path fill-rule="evenodd" clip-rule="evenodd" d="M26.8902 21.6962C27.6215 21.4536 28.2904 21.0742 28.8665 20.5882C29.8373 21.5095 30.5446 22.7712 30.8431 24.2096C30.3757 24.8527 30.1 25.6442 30.1 26.5C30.1 27.3953 30.4017 28.2201 30.9089 28.8784C30.745 29.2447 30.3773 29.5 29.95 29.5C29.3701 29.5 28.9 29.0299 28.9 28.45V25.75C28.9 23.8903 28.0348 22.454 26.8902 21.6962Z" fill="white"/>
</svg>
