<svg width="50" height="50" viewBox="0 0 50 50" fill="none" xmlns="http://www.w3.org/2000/svg">
<rect width="50" height="50" rx="4" fill="#00A876"/>
<path fill-rule="evenodd" clip-rule="evenodd" d="M36.7857 11.4H13.2143C12.2675 11.4 11.5 12.1163 11.5 13V37C11.5 37.8837 12.2675 38.6 13.2143 38.6H36.7857C37.7325 38.6 38.5 37.8837 38.5 37V13C38.5 12.1163 37.7325 11.4 36.7857 11.4ZM13.2143 10C11.4391 10 10 11.3431 10 13V37C10 38.6569 11.4391 40 13.2143 40H36.7857C38.5609 40 40 38.6569 40 37V13C40 11.3431 38.5609 10 36.7857 10H13.2143Z" fill="white"/>
<path fill-rule="evenodd" clip-rule="evenodd" d="M30.9786 20.44C31.3099 20.208 31.78 20.2707 32.0286 20.58L34.7607 23.98C35.2464 24.5844 35.2464 25.4156 34.7607 26.02L32.0286 29.42C31.78 29.7293 31.3099 29.792 30.9786 29.56C30.6472 29.328 30.58 28.8893 30.8286 28.58L33.5607 25.18C33.6464 25.0733 33.6464 24.9267 33.5607 24.82L30.8286 21.42C30.58 21.1107 30.6472 20.672 30.9786 20.44Z" fill="white"/>
<path fill-rule="evenodd" clip-rule="evenodd" d="M19.0214 20.44C18.6901 20.208 18.22 20.2707 17.9714 20.58L15.2393 23.98C14.7536 24.5844 14.7536 25.4156 15.2393 26.02L17.9714 29.42C18.22 29.7293 18.6901 29.792 19.0214 29.56C19.3528 29.328 19.42 28.8893 19.1714 28.58L16.4393 25.18C16.3536 25.0733 16.3536 24.9267 16.4393 24.82L19.1714 21.42C19.42 21.1107 19.3528 20.672 19.0214 20.44Z" fill="white"/>
<path fill-rule="evenodd" clip-rule="evenodd" d="M27.4564 18.7026C27.8432 18.8412 28.0363 19.246 27.8879 19.607L23.5576 30.1386C23.4092 30.4995 22.9754 30.6798 22.5886 30.5413C22.2019 30.4028 22.0087 29.9979 22.1572 29.637L26.4875 19.1054C26.6359 18.7444 27.0697 18.5641 27.4564 18.7026Z" fill="white"/>
</svg>
