<svg width="50" height="50" viewBox="0 0 50 50" fill="none" xmlns="http://www.w3.org/2000/svg">
<rect width="50" height="50" rx="4" fill="#00A876"/>
<path fill-rule="evenodd" clip-rule="evenodd" d="M20.1239 12.4741C20.039 12.1304 19.6164 12.0118 19.3691 12.2623L14.1158 17.5835C13.8684 17.834 13.9855 18.2621 14.3248 18.348L17.1779 19.0705L20.8371 15.364L20.1239 12.4741ZM22.3947 16.7945L18.5902 20.6481L19.2043 27.4902C19.2208 27.6749 19.3462 27.831 19.5214 27.885L31.7877 31.6664L24.2575 24.0391C23.8475 23.6237 23.8475 22.9503 24.2575 22.535C24.6676 22.1197 25.3324 22.1197 25.7424 22.535L33.2726 30.1623L29.5394 17.7377C29.4861 17.5603 29.3319 17.4333 29.1496 17.4165L22.3947 16.7945ZM16.5218 21.0969L13.8155 20.4116C11.8926 19.9247 11.2293 17.499 12.6308 16.0794L17.8842 10.7583C19.2857 9.33861 21.6804 10.0105 22.1612 11.9582L22.8377 14.6994L29.3397 15.2982C30.373 15.3933 31.2463 16.113 31.5484 17.1184L36.5045 33.6129C36.6174 33.9886 36.5166 34.3969 36.2424 34.6746C35.9682 34.9523 35.5652 35.0544 35.1942 34.94L18.91 29.92C17.9174 29.614 17.2068 28.7294 17.1129 27.6828L16.5218 21.0969Z" fill="white"/>
<path fill-rule="evenodd" clip-rule="evenodd" d="M10 38.9364C10 38.3491 10.4701 37.8729 11.05 37.8729H38.95C39.5299 37.8729 40 38.3491 40 38.9364C40 39.5238 39.5299 40 38.95 40H11.05C10.4701 40 10 39.5238 10 38.9364Z" fill="white"/>
</svg>
