<svg width="50" height="50" viewBox="0 0 50 50" fill="none" xmlns="http://www.w3.org/2000/svg">
<rect width="50" height="50" rx="4" fill="#00A876"/>
<path fill-rule="evenodd" clip-rule="evenodd" d="M36.3493 24.771C36.3493 25.3597 35.872 25.837 35.2832 25.837L25.2278 25.837C24.6391 25.837 24.1618 25.3597 24.1618 24.771L24.1618 14.726C24.1618 14.1372 24.6391 13.66 25.2278 13.66C25.8166 13.66 26.2939 14.1372 26.2939 14.726V22.1973L38.1802 10.311C38.5965 9.89473 39.2715 9.89473 39.6878 10.311C40.1041 10.7274 40.1041 11.4023 39.6878 11.8186L27.8015 23.7049L35.2832 23.7049C35.872 23.7049 36.3493 24.1822 36.3493 24.771ZM15.6347 40C12.5228 40 10 37.4772 10 34.3653V18.2225C10 15.1104 12.5235 12.5878 15.6353 12.5878H21.1169C21.7056 12.5878 22.1829 13.0651 22.1829 13.6538C22.1829 14.2426 21.7056 14.7198 21.1169 14.7198H15.6353C13.7007 14.7198 12.1321 16.2882 12.1321 18.2225V34.3653C12.1321 36.2997 13.7003 37.8679 15.6347 37.8679L31.7775 37.8679C33.712 37.8679 35.2802 36.2997 35.2802 34.3653V28.8828C35.2802 28.2941 35.7575 27.8168 36.3462 27.8168C36.935 27.8168 37.4123 28.2941 37.4123 28.8828V34.3653C37.4123 37.4773 34.8895 40 31.7775 40H15.6347ZM16.0934 19.1362C15.5046 19.1362 15.0273 19.6135 15.0273 20.2023C15.0273 20.791 15.5046 21.2683 16.0934 21.2683H20.6621C21.2508 21.2683 21.7281 20.791 21.7281 20.2023C21.7281 19.6135 21.2508 19.1362 20.6621 19.1362H16.0934ZM15.0273 24.771C15.0273 24.1823 15.5046 23.705 16.0934 23.705H20.6621C21.2508 23.705 21.7281 24.1823 21.7281 24.771C21.7281 25.3598 21.2508 25.8371 20.6621 25.8371H16.0934C15.5046 25.8371 15.0273 25.3598 15.0273 24.771ZM16.0934 28.2737C15.5046 28.2737 15.0273 28.7509 15.0273 29.3397C15.0273 29.9284 15.5046 30.4057 16.0934 30.4057H20.6621C21.2508 30.4057 21.7281 29.9284 21.7281 29.3397C21.7281 28.7509 21.2508 28.2737 20.6621 28.2737H16.0934Z" fill="white"/>
</svg>
