<svg width="50" height="50" viewBox="0 0 50 50" fill="none" xmlns="http://www.w3.org/2000/svg">
<rect width="50" height="50" rx="4" fill="#00A876"/>
<path fill-rule="evenodd" clip-rule="evenodd" d="M27.6321 11.527C27.9851 11.4454 28.3552 11.5514 28.6113 11.8076L37.0966 20.2928C37.369 20.5653 37.4704 20.9651 37.3606 21.3344C37.2509 21.7038 36.9476 21.9833 36.5706 22.0627L32.3495 22.9521L18.2615 37.0401C16.3716 38.93 13.3074 38.93 11.4174 37.0401C9.52752 35.1502 9.52752 32.086 11.4174 30.1961L25.5543 16.0592L26.8757 12.2092C26.9933 11.8665 27.2792 11.6087 27.6321 11.527ZM28.3159 14.482L27.4617 16.9707C27.4098 17.1219 27.3241 17.2593 27.2111 17.3723L23.0328 21.5505L29.3804 22.9514L31.0853 21.2465C31.2292 21.1025 31.412 21.0035 31.6112 20.9615L34.2413 20.4074L28.3159 14.482ZM27.6186 24.7131L21.2711 23.3123L12.9024 31.681C11.8325 32.7508 11.8325 34.4854 12.9024 35.5552C13.9722 36.625 15.7067 36.625 16.7766 35.5552L27.6186 24.7131Z" fill="white"/>
<path fill-rule="evenodd" clip-rule="evenodd" d="M36.0651 25.6032L35.2012 26.2L34.3372 25.6032C34.5333 25.3194 34.8562 25.15 35.2012 25.15C35.5461 25.15 35.8691 25.3194 36.0651 25.6032ZM35.2012 28.1114C34.9087 28.5721 34.5712 29.1197 34.2344 29.7002C33.7751 30.492 33.3278 31.327 32.9984 32.0767C32.6501 32.8696 32.5012 33.4207 32.5012 33.7C32.5012 35.1912 33.71 36.4 35.2012 36.4C36.6923 36.4 37.9012 35.1912 37.9012 33.7C37.9012 33.4207 37.7522 32.8696 37.4039 32.0767C37.0745 31.327 36.6272 30.492 36.1679 29.7002C35.8312 29.1197 35.4936 28.5721 35.2012 28.1114ZM35.2012 26.2C34.3372 25.6032 34.3372 25.6032 34.3372 25.6032L34.3337 25.6084L34.3248 25.6214L34.2916 25.6698C34.2629 25.7119 34.2213 25.7731 34.1687 25.8514C34.0635 26.0079 33.9139 26.2328 33.7346 26.5087C33.3768 27.0597 32.8981 27.8187 32.4179 28.6465C31.9397 29.4708 31.4495 30.3813 31.0758 31.232C30.721 32.0396 30.4012 32.9438 30.4012 33.7C30.4012 36.351 32.5502 38.5 35.2012 38.5C37.8521 38.5 40.0012 36.351 40.0012 33.7C40.0012 32.9438 39.6814 32.0396 39.3265 31.232C38.9528 30.3813 38.4626 29.4708 37.9844 28.6465C37.5042 27.8187 37.0255 27.0597 36.6677 26.5087C36.4885 26.2328 36.3389 26.0079 36.2336 25.8514C36.181 25.7731 36.1394 25.7119 36.1107 25.6698L36.0776 25.6214L36.0687 25.6084L36.0651 25.6032C36.0651 25.6032 36.0651 25.6032 35.2012 26.2Z" fill="white"/>
</svg>
