<svg width="50" height="50" viewBox="0 0 50 50" fill="none" xmlns="http://www.w3.org/2000/svg">
<rect width="50" height="50" rx="4" fill="#00A876"/>
<path fill-rule="evenodd" clip-rule="evenodd" d="M24.9988 10C21.1052 10 17.9488 13.1564 17.9488 17.05C17.9488 20.9436 21.1052 24.1 24.9988 24.1C26.451 24.1 27.8006 23.6609 28.9222 22.9083L30.2564 24.2425C30.6664 24.6525 31.3312 24.6525 31.7413 24.2425C32.1513 23.8324 32.1513 23.1676 31.7413 22.7575L30.4746 21.4909C31.459 20.2787 32.0488 18.7332 32.0488 17.05C32.0488 13.1564 28.8924 10 24.9988 10ZM20.0488 17.05C20.0488 14.3162 22.265 12.1 24.9988 12.1C27.7326 12.1 29.9488 14.3162 29.9488 17.05C29.9488 19.7838 27.7326 22 24.9988 22C22.265 22 20.0488 19.7838 20.0488 17.05Z" fill="white"/>
<path d="M34.9184 32.1792C34.4927 31.7854 33.8284 31.8113 33.4346 32.2371C33.0409 32.6628 33.0668 33.3271 33.4925 33.7209L34.7675 34.9H12.5477C11.9678 34.9 11.4977 35.3701 11.4977 35.95C11.4977 36.5299 11.9678 37 12.5477 37H34.7675L33.4925 38.1792C33.0668 38.5729 33.0409 39.2372 33.4346 39.6629C33.8284 40.0887 34.4927 40.1146 34.9184 39.7209L38.1622 36.7209C38.3771 36.5221 38.4992 36.2427 38.4992 35.95C38.4992 35.6573 38.3771 35.3779 38.1622 35.1792L34.9184 32.1792Z" fill="white"/>
<path d="M16.5607 24.8871C16.167 24.4613 15.5026 24.4354 15.0769 24.8291L11.8332 27.8291C11.6183 28.0279 11.4961 28.3073 11.4961 28.6C11.4961 28.8927 11.6183 29.1721 11.8332 29.3709L15.0769 32.3709C15.5026 32.7646 16.167 32.7387 16.5607 32.3129C16.9544 31.8872 16.9285 31.2229 16.5028 30.8291L15.2278 29.65H37.4477C38.0276 29.65 38.4977 29.1799 38.4977 28.6C38.4977 28.0201 38.0276 27.55 37.4477 27.55H15.2278L16.5028 26.3709C16.9285 25.9771 16.9544 25.3128 16.5607 24.8871Z" fill="white"/>
</svg>
