<svg width="50" height="50" viewBox="0 0 50 50" fill="none" xmlns="http://www.w3.org/2000/svg">
<rect width="50" height="50" rx="4" fill="#00A876"/>
<path d="M15.8499 15.1C15.4356 15.1 15.0999 15.4358 15.0999 15.85V17.35C15.0999 17.7642 15.4356 18.1 15.8499 18.1H17.3499C17.7641 18.1 18.0999 17.7642 18.0999 17.35V15.85C18.0999 15.4358 17.7641 15.1 17.3499 15.1H15.8499Z" fill="white"/>
<path fill-rule="evenodd" clip-rule="evenodd" d="M19.6 10H13.6C11.6118 10 10 11.6118 10 13.6V19.6C10 21.5882 11.6118 23.2 13.6 23.2H19.6C21.5882 23.2 23.2 21.5882 23.2 19.6V13.6C23.2 11.6118 21.5882 10 19.6 10ZM12.1 13.6C12.1 12.7716 12.7716 12.1 13.6 12.1H19.6C20.4284 12.1 21.1 12.7716 21.1 13.6V19.6C21.1 20.4284 20.4284 21.1 19.6 21.1H13.6C12.7716 21.1 12.1 20.4284 12.1 19.6V13.6Z" fill="white"/>
<path d="M15.0999 32.65C15.0999 32.2358 15.4356 31.9 15.8499 31.9H17.3499C17.7641 31.9 18.0999 32.2358 18.0999 32.65V34.15C18.0999 34.5642 17.7641 34.9 17.3499 34.9H15.8499C15.4356 34.9 15.0999 34.5642 15.0999 34.15V32.65Z" fill="white"/>
<path fill-rule="evenodd" clip-rule="evenodd" d="M19.6 26.7999H13.6C11.6118 26.7999 10 28.4117 10 30.3999V36.3999C10 38.3882 11.6118 39.9999 13.6 39.9999H19.6C21.5882 39.9999 23.2 38.3882 23.2 36.3999V30.3999C23.2 28.4117 21.5882 26.7999 19.6 26.7999ZM12.1 30.3999C12.1 29.5715 12.7716 28.8999 13.6 28.8999H19.6C20.4284 28.8999 21.1 29.5715 21.1 30.3999V36.3999C21.1 37.2284 20.4284 37.8999 19.6 37.8999H13.6C12.7716 37.8999 12.1 37.2284 12.1 36.3999V30.3999Z" fill="white"/>
<path d="M32.6501 15.1C32.2359 15.1 31.9001 15.4358 31.9001 15.85V17.35C31.9001 17.7642 32.2359 18.1 32.6501 18.1H34.1501C34.5644 18.1 34.9001 17.7642 34.9001 17.35V15.85C34.9001 15.4358 34.5644 15.1 34.1501 15.1H32.6501Z" fill="white"/>
<path fill-rule="evenodd" clip-rule="evenodd" d="M30.4003 10H36.4003C38.3885 10 40.0003 11.6118 40.0003 13.6V19.6C40.0003 21.5882 38.3885 23.2 36.4003 23.2H30.4003C28.4121 23.2 26.8003 21.5882 26.8003 19.6V13.6C26.8003 11.6118 28.4121 10 30.4003 10ZM30.4003 12.1C29.5719 12.1 28.9003 12.7716 28.9003 13.6V19.6C28.9003 20.4284 29.5719 21.1 30.4003 21.1H36.4003C37.2287 21.1 37.9003 20.4284 37.9003 19.6V13.6C37.9003 12.7716 37.2287 12.1 36.4003 12.1H30.4003Z" fill="white"/>
<path d="M27.9997 26.8001C27.4198 26.8001 26.9497 27.2702 26.9497 27.8501V38.9501C26.9497 39.53 27.4198 40.0001 27.9997 40.0001C28.5796 40.0001 29.0497 39.53 29.0497 38.9501V28.9001H32.4997C33.0796 28.9001 33.5497 28.43 33.5497 27.8501C33.5497 27.2702 33.0796 26.8001 32.4997 26.8001H27.9997Z" fill="white"/>
<path d="M38.9501 26.8001C39.53 26.8001 40.0001 27.2702 40.0001 27.8501V33.1001C40.0001 33.68 39.53 34.1501 38.9501 34.1501H32.9501C32.3702 34.1501 31.9001 33.68 31.9001 33.1001C31.9001 32.5202 32.3702 32.0501 32.9501 32.0501H37.9001V27.8501C37.9001 27.2702 38.3702 26.8001 38.9501 26.8001Z" fill="white"/>
<path d="M34.1496 37.45C34.1496 36.8701 33.6795 36.4 33.0996 36.4C32.5197 36.4 32.0496 36.8701 32.0496 37.45V38.95C32.0496 39.5299 32.5197 40 33.0996 40C33.6795 40 34.1496 39.5299 34.1496 38.95V37.45Z" fill="white"/>
<path d="M38.9501 36.4001C39.53 36.4001 40.0001 36.8702 40.0001 37.4501V38.9501C40.0001 39.53 39.53 40.0001 38.9501 40.0001C38.3702 40.0001 37.9001 39.53 37.9001 38.9501V37.4501C37.9001 36.8702 38.3702 36.4001 38.9501 36.4001Z" fill="white"/>
</svg>
