<svg width="50" height="50" viewBox="0 0 50 50" fill="none" xmlns="http://www.w3.org/2000/svg">
<rect width="50" height="50" rx="4" fill="#00A876"/>
<path fill-rule="evenodd" clip-rule="evenodd" d="M21.0844 22.1381C22.2438 21.3635 23.6068 20.95 25.0012 20.95C25.5811 20.95 26.0512 21.4201 26.0512 22V26.95H31.0012C31.5811 26.95 32.0512 27.4201 32.0512 28C32.0512 29.3944 31.6377 30.7574 30.863 31.9168C30.0884 33.0761 28.9873 33.9798 27.6991 34.5134C26.4109 35.047 24.9934 35.1866 23.6258 34.9145C22.2582 34.6425 21.002 33.9711 20.0161 32.9851C19.0301 31.9991 18.3587 30.743 18.0866 29.3754C17.8146 28.0078 17.9542 26.5903 18.4878 25.3021C19.0214 24.0139 19.925 22.9128 21.0844 22.1381ZM23.9512 23.1626C23.3473 23.2937 22.7701 23.5374 22.2511 23.8842C21.4371 24.4281 20.8026 25.2012 20.428 26.1057C20.0533 27.0102 19.9553 28.0055 20.1463 28.9657C20.3373 29.9259 20.8087 30.8079 21.501 31.5002C22.1933 32.1925 23.0753 32.6639 24.0355 32.8549C24.9957 33.0459 25.991 32.9479 26.8955 32.5732C27.8 32.1986 28.573 31.5641 29.1169 30.7501C29.4637 30.2311 29.7074 29.6539 29.8385 29.05H25.0012C24.7227 29.05 24.4556 28.9394 24.2587 28.7425C24.0618 28.5456 23.9512 28.2785 23.9512 28V23.1626Z" fill="white"/>
<path d="M29.5012 22.45C28.9213 22.45 28.4512 22.9201 28.4512 23.5C28.4512 24.0799 28.9213 24.55 29.5012 24.55H31.0012C31.5811 24.55 32.0512 24.0799 32.0512 23.5C32.0512 22.9201 31.5811 22.45 31.0012 22.45H29.5012Z" fill="white"/>
<path fill-rule="evenodd" clip-rule="evenodd" d="M32.05 12.55V13.032C34.833 13.3311 37 15.6875 37 18.5499V34.4499C37 37.5151 34.5152 39.9999 31.45 39.9999H18.55C15.4848 39.9999 13 37.5151 13 34.4499V18.5499C13 15.6875 15.167 13.3312 17.95 13.032V12.55C17.95 11.1417 19.0917 10 20.5 10H29.5C30.9083 10 32.05 11.1417 32.05 12.55ZM20.05 12.55C20.05 12.3015 20.2515 12.1 20.5 12.1H29.5C29.7485 12.1 29.95 12.3015 29.95 12.55V14.0499C29.95 15.1269 29.077 15.9999 28 15.9999H21.9999C20.923 15.9999 20.05 15.1269 20.05 14.0499V12.55ZM28 18.0999C29.8629 18.0999 31.432 16.8422 31.9045 15.1296C33.5951 15.3521 34.9 16.7986 34.9 18.5499V34.4499C34.9 36.3553 33.3554 37.8999 31.45 37.8999H18.55C16.6446 37.8999 15.1 36.3553 15.1 34.4499V18.5499C15.1 16.7986 16.4049 15.3521 18.0955 15.1296C18.568 16.8422 20.1371 18.0999 21.9999 18.0999H28Z" fill="white"/>
</svg>
