<svg width="50" height="50" viewBox="0 0 50 50" fill="none" xmlns="http://www.w3.org/2000/svg">
<rect width="50" height="50" rx="4" fill="#00A876"/>
<path d="M24.9139 10.0002L25.0001 10C30.317 10 34.9868 12.7671 37.6493 16.9347C37.9615 17.4234 37.8185 18.0727 37.3298 18.3849C36.8411 18.697 36.1918 18.554 35.8796 18.0653C34.2765 15.5559 31.8312 13.6395 28.943 12.7136C29.7289 13.9235 30.3678 15.4745 30.8392 17.2273C30.9899 17.7873 30.658 18.3633 30.098 18.514C29.538 18.6646 28.962 18.3327 28.8113 17.7727C28.3107 15.9116 27.6391 14.4365 26.8986 13.4515C26.1623 12.4721 25.4707 12.1131 24.9034 12.1004L24.8098 12.1014C24.2483 12.1262 23.5682 12.4896 22.8451 13.4515C22.1046 14.4365 21.433 15.9116 20.9324 17.7727C20.7818 18.3327 20.2057 18.6646 19.6457 18.514C19.0857 18.3633 18.7538 17.7873 18.9045 17.2273C19.3618 15.5269 19.9767 14.0166 20.7306 12.8232C17.9847 13.7858 15.6628 15.6511 14.1205 18.0653C13.8083 18.554 13.1591 18.697 12.6704 18.3849C12.1817 18.0727 12.0386 17.4234 12.3508 16.9347C14.9714 12.8327 19.5367 10.0875 24.7495 10.0021C24.7901 10.0007 24.8309 10 24.8719 10L24.9139 10.0002Z" fill="white"/>
<path d="M22.8451 36.5485C22.1046 35.5635 21.433 34.0884 20.9324 32.2273C20.7818 31.6673 20.2057 31.3354 19.6457 31.486C19.0857 31.6367 18.7538 32.2127 18.9045 32.7727C19.3618 34.4731 19.9767 35.9834 20.7306 37.1768C17.9847 36.2142 15.6628 34.3489 14.1205 31.9347C13.8083 31.446 13.1591 31.303 12.6704 31.6151C12.1817 31.9273 12.0386 32.5766 12.3508 33.0653C14.9714 37.1673 19.5367 39.9125 24.7495 39.9979C24.7901 39.9993 24.8309 40 24.8719 40L24.9139 39.9998L25.0001 40C30.317 40 34.9868 37.2329 37.6493 33.0653C37.9615 32.5766 37.8185 31.9273 37.3298 31.6151C36.8411 31.303 36.1918 31.446 35.8796 31.9347C34.2765 34.4441 31.8312 36.3604 28.943 37.2864C29.7289 36.0765 30.3678 34.5256 30.8392 32.7727C30.9899 32.2127 30.658 31.6367 30.098 31.486C29.538 31.3354 28.962 31.6673 28.8113 32.2273C28.3107 34.0884 27.6391 35.5635 26.8986 36.5485C26.1623 37.5279 25.4707 37.8869 24.9034 37.8996L24.8098 37.8986C24.2483 37.8738 23.5682 37.5104 22.8451 36.5485Z" fill="white"/>
<path d="M12.0525 21.6868C11.8795 21.1333 11.2906 20.8248 10.7371 20.9978C10.1836 21.1708 9.87511 21.7597 10.0481 22.3132L11.9231 28.3132C12.0454 28.7047 12.3846 28.9891 12.7914 29.0414C13.1982 29.0937 13.5983 28.9043 13.8157 28.5565L14.8003 26.9811L15.7849 28.5565C16.0023 28.9043 16.4023 29.0937 16.8092 29.0414C17.216 28.9891 17.5551 28.7047 17.6775 28.3132L19.5525 22.3132C19.7255 21.7597 19.417 21.1708 18.8635 20.9978C18.31 20.8248 17.721 21.1333 17.5481 21.6868L16.3546 25.5058L15.6907 24.4435C15.4988 24.1365 15.1623 23.95 14.8003 23.95C14.4383 23.95 14.1018 24.1365 13.9099 24.4435L13.2459 25.5058L12.0525 21.6868Z" fill="white"/>
<path d="M31.1365 20.9978C31.69 20.8248 32.2789 21.1333 32.4519 21.6868L33.6453 25.5058L34.3093 24.4435C34.5012 24.1365 34.8377 23.95 35.1997 23.95C35.5617 23.95 35.8982 24.1365 36.0901 24.4435L36.754 25.5058L37.9475 21.6868C38.1205 21.1333 38.7094 20.8248 39.2629 20.9978C39.8164 21.1708 40.1249 21.7597 39.9519 22.3132L38.0769 28.3132C37.9546 28.7047 37.6154 28.9891 37.2086 29.0414C36.8017 29.0937 36.4017 28.9043 36.1843 28.5565L35.1997 26.9811L34.2151 28.5565C33.9977 28.9043 33.5976 29.0937 33.1908 29.0414C32.784 28.9891 32.4448 28.7047 32.3225 28.3132L30.4475 22.3132C30.2745 21.7597 30.583 21.1708 31.1365 20.9978Z" fill="white"/>
<path d="M22.2537 21.6868C22.0807 21.1333 21.4918 20.8248 20.9383 20.9978C20.3848 21.1708 20.0763 21.7597 20.2492 22.3132L22.1242 28.3132C22.2466 28.7047 22.5857 28.9891 22.9926 29.0414C23.3994 29.0937 23.7995 28.9043 24.0169 28.5565L25.0015 26.9811L25.9861 28.5565C26.2035 28.9043 26.6035 29.0937 27.0103 29.0414C27.4172 28.9891 27.7563 28.7047 27.8787 28.3132L29.7537 22.3132C29.9266 21.7597 29.6181 21.1708 29.0646 20.9978C28.5111 20.8248 27.9222 21.1333 27.7492 21.6868L26.5558 25.5058L25.8919 24.4435C25.7 24.1365 25.3635 23.95 25.0015 23.95C24.6394 23.95 24.3029 24.1365 24.1111 24.4435L23.4471 25.5058L22.2537 21.6868Z" fill="white"/>
</svg>
