<svg width="222" height="20" viewBox="0 0 222 20" fill="none" xmlns="http://www.w3.org/2000/svg">
<path d="M30.5819 1.87375C30.5845 1.45934 30.7527 1.06275 31.05 0.7706C31.3472 0.478447 31.7493 0.314465 32.1684 0.314465C32.5875 0.314465 32.9896 0.478447 33.2869 0.7706C33.5841 1.06275 33.7524 1.45934 33.7549 1.87375V16.8719C33.7524 17.2863 33.5841 17.6829 33.2869 17.9751C32.9896 18.2672 32.5875 18.4312 32.1684 18.4312C31.7493 18.4312 31.3472 18.2672 31.05 17.9751C30.7527 17.6829 30.5845 17.2863 30.5819 16.8719V1.87375Z" fill="#E4002B"/>
<path d="M73.4579 16.2597L80.165 1.46578C80.3185 1.08424 80.5858 0.757895 80.9313 0.530079C81.2768 0.302263 81.6842 0.183752 82.0994 0.190283C82.5248 0.182554 82.9429 0.299575 83.3011 0.526577C83.6592 0.75358 83.9413 1.08039 84.1118 1.46578L90.8191 16.2597C90.9243 16.4663 90.9858 16.692 90.9996 16.9229C91.0043 17.1197 90.969 17.3154 90.8958 17.4984C90.8226 17.6814 90.713 17.848 90.5735 17.9884C90.434 18.1287 90.2674 18.2399 90.0836 18.3154C89.8998 18.391 89.7025 18.4292 89.5035 18.4279C89.164 18.4199 88.8348 18.3109 88.5587 18.1153C88.2827 17.9197 88.0726 17.6465 87.9557 17.3311L86.4852 13.9896H77.7145L76.1924 17.4331C76.0779 17.7266 75.8761 17.9788 75.6135 18.1564C75.351 18.334 75.0402 18.4287 74.7221 18.4279C74.5283 18.4302 74.3361 18.3941 74.1567 18.3218C73.9773 18.2495 73.8143 18.1425 73.6773 18.0071C73.5403 17.8716 73.432 17.7104 73.3589 17.533C73.2858 17.3556 73.2493 17.1655 73.2516 16.974C73.2663 16.7238 73.3368 16.4799 73.4579 16.2597ZM85.2728 11.2096L82.0999 3.99112L78.9269 11.2096H85.2728Z" fill="#E4002B"/>
<path d="M19.776 17.3411L17.3043 14.8971C18.6913 12.9706 19.2955 10.5991 18.9972 8.25282C18.6989 5.90651 17.5198 3.75669 15.6937 2.2296C13.8677 0.702513 11.528 -0.0903537 9.13844 0.00819843C6.74892 0.106751 4.4841 1.08953 2.79299 2.76168C1.10188 4.43383 0.107961 6.67326 0.00829139 9.03599C-0.0913781 11.3987 0.710478 13.7122 2.25488 15.5178C3.79929 17.3234 5.97348 18.4893 8.34639 18.7842C10.7193 19.0792 13.1177 18.4818 15.066 17.1103L17.5377 19.5543C17.8357 19.8422 18.2364 20.0023 18.6531 20C19.0697 19.9976 19.4686 19.8329 19.7632 19.5416C20.0578 19.2503 20.2243 18.8559 20.2267 18.4439C20.2291 18.032 20.0672 17.6357 19.776 17.3411ZM3.19608 9.44397C3.19608 8.20118 3.56879 6.98629 4.26708 5.95295C4.96537 4.9196 5.95788 4.11421 7.11909 3.63862C8.2803 3.16302 9.55806 3.03859 10.7908 3.28105C12.0235 3.52351 13.1559 4.12198 14.0446 5.00077C14.9334 5.87956 15.5386 6.99921 15.7838 8.21812C16.029 9.43704 15.9031 10.7005 15.4221 11.8487C14.9411 12.9969 14.1266 13.9782 13.0815 14.6687C12.0365 15.3591 10.8078 15.7276 9.55093 15.7276C7.8661 15.7257 6.25082 15.0631 5.05947 13.8851C3.86812 12.7071 3.19798 11.1099 3.19608 9.44397Z" fill="#E4002B"/>
<path d="M45.8347 1.92476C45.8347 0.21843 48.2571 -0.324376 49.2398 1.1851L54.7086 9.65343L60.2032 1.15933C61.0763 -0.325794 63.5827 0.211109 63.5827 1.92454V16.8717C63.5833 17.0784 63.5421 17.2831 63.4616 17.4738C63.3811 17.6645 63.2629 17.8374 63.1139 17.9824C62.9649 18.1273 62.7882 18.2413 62.594 18.3178C62.3998 18.3943 62.1922 18.4317 61.9832 18.4277C61.5731 18.4197 61.1829 18.2515 60.8978 17.96C60.6127 17.6685 60.4558 17.2772 60.4614 16.8717V6.20354C60.4614 6.20354 56.7238 11.7152 56.0255 12.7143C55.8922 12.9436 55.7002 13.1341 55.4687 13.2665C55.2373 13.399 54.9746 13.4687 54.7072 13.4687C54.4397 13.4687 54.1771 13.399 53.9456 13.2665C53.7142 13.1341 53.5221 12.9436 53.3889 12.7143L48.9562 6.21001V16.8976C48.957 17.101 48.9167 17.3025 48.8376 17.4902C48.7585 17.6779 48.6422 17.8481 48.4956 17.9908C48.3489 18.1334 48.1749 18.2455 47.9837 18.3207C47.7926 18.3958 47.5882 18.4323 47.3825 18.4281C47.1782 18.4318 46.9753 18.3948 46.7858 18.3192C46.5963 18.2436 46.4242 18.131 46.2797 17.9881C46.1352 17.8453 46.0214 17.6751 45.9449 17.4877C45.8684 17.3004 45.831 17.0997 45.8347 16.8977V1.92476Z" fill="#E4002B"/>
<path d="M95 12.5089V12.462C95 12.1801 95.2417 12 95.556 12C95.8703 12 96.112 12.1801 96.112 12.462V12.5089C96.112 12.7908 95.8703 12.9787 95.556 12.9787C95.2417 12.9787 95 12.7908 95 12.5089ZM95.0725 17.2774V14.0045C95.0725 13.7383 95.282 13.5268 95.556 13.5268C95.83 13.5268 96.0476 13.7383 96.0476 14.0045V17.2774C96.0476 17.5436 95.83 17.7472 95.556 17.7472C95.2901 17.7472 95.0725 17.5436 95.0725 17.2774Z" fill="#3366B0"/>
<path d="M97.3218 17.2774V14.0045C97.3218 13.7383 97.5313 13.5268 97.8053 13.5268C98.0793 13.5268 98.2969 13.7383 98.2969 14.0045V14.2081C98.5709 13.8244 98.9657 13.4877 99.6265 13.4877C100.585 13.4877 101.141 14.1141 101.141 15.0694V17.2774C101.141 17.5436 100.932 17.7472 100.658 17.7472C100.384 17.7472 100.166 17.5436 100.166 17.2774V15.3591C100.166 14.717 99.836 14.349 99.2558 14.349C98.6917 14.349 98.2969 14.7327 98.2969 15.3747V17.2774C98.2969 17.5436 98.0793 17.7472 97.8053 17.7472C97.5394 17.7472 97.3218 17.5436 97.3218 17.2774Z" fill="#3366B0"/>
<path d="M103.777 17.7864C103.237 17.7864 102.649 17.6219 102.158 17.2931C102.053 17.2383 101.972 17.1208 101.972 16.9642C101.972 16.7528 102.142 16.5805 102.367 16.5805C102.448 16.5805 102.52 16.604 102.577 16.6353C102.988 16.9016 103.415 17.0347 103.802 17.0347C104.221 17.0347 104.462 16.8624 104.462 16.5884V16.5727C104.462 16.2517 104.011 16.1421 103.511 15.9933C102.883 15.821 102.182 15.5705 102.182 14.7796V14.764C102.182 13.981 102.851 13.5034 103.697 13.5034C104.148 13.5034 104.624 13.6286 105.034 13.84C105.171 13.9105 105.268 14.0358 105.268 14.2002C105.268 14.4195 105.091 14.5839 104.865 14.5839C104.785 14.5839 104.736 14.5682 104.672 14.5369C104.325 14.3647 103.971 14.255 103.673 14.255C103.294 14.255 103.076 14.4273 103.076 14.6622V14.6779C103.076 14.9832 103.536 15.1085 104.035 15.2651C104.656 15.453 105.357 15.7271 105.357 16.4709V16.4866C105.357 17.3557 104.664 17.7864 103.777 17.7864Z" fill="#3366B0"/>
<path d="M106.356 18.5302V14.0045C106.356 13.7383 106.565 13.5268 106.839 13.5268C107.113 13.5268 107.331 13.7383 107.331 14.0045V14.2629C107.645 13.8322 108.088 13.4877 108.781 13.4877C109.781 13.4877 110.756 14.255 110.756 15.6331V15.6488C110.756 17.019 109.789 17.7942 108.781 17.7942C108.072 17.7942 107.629 17.4497 107.331 17.066V18.5302C107.331 18.7964 107.113 19 106.839 19C106.573 19 106.356 18.7964 106.356 18.5302ZM108.548 16.972C109.216 16.972 109.764 16.4631 109.764 15.6488V15.6331C109.764 14.8345 109.208 14.3098 108.548 14.3098C107.887 14.3098 107.307 14.8423 107.307 15.6331V15.6488C107.307 16.4396 107.887 16.972 108.548 16.972Z" fill="#3366B0"/>
<path d="M112.495 15.3512H114.679C114.615 14.7405 114.244 14.2629 113.599 14.2629C113.003 14.2629 112.584 14.7092 112.495 15.3512ZM115.243 17.2539C114.856 17.5906 114.373 17.802 113.712 17.802C112.479 17.802 111.528 16.9329 111.528 15.6566V15.6409C111.528 14.4586 112.391 13.4877 113.607 13.4877C114.961 13.4877 115.63 14.5682 115.63 15.5235C115.63 15.7897 115.42 15.9776 115.171 15.9776H112.503C112.608 16.651 113.1 17.0268 113.728 17.0268C114.139 17.0268 114.462 16.8859 114.736 16.6667C114.808 16.6119 114.873 16.5805 114.985 16.5805C115.203 16.5805 115.372 16.745 115.372 16.9642C115.372 17.0817 115.316 17.1834 115.243 17.2539Z" fill="#3366B0"/>
<path d="M118.592 17.802C117.326 17.802 116.392 16.8389 116.392 15.6644V15.6488C116.392 14.4743 117.326 13.4877 118.608 13.4877C119.276 13.4877 119.736 13.6991 120.098 14.0045C120.163 14.0593 120.252 14.1767 120.252 14.3333C120.252 14.5761 120.05 14.764 119.8 14.764C119.679 14.764 119.575 14.717 119.51 14.67C119.26 14.4664 118.986 14.3177 118.6 14.3177C117.89 14.3177 117.367 14.9128 117.367 15.6331V15.6488C117.367 16.3848 117.89 16.972 118.64 16.972C119.027 16.972 119.325 16.8233 119.591 16.604C119.647 16.557 119.744 16.5022 119.857 16.5022C120.09 16.5022 120.276 16.6902 120.276 16.9172C120.276 17.0425 120.227 17.1443 120.139 17.2148C119.76 17.5671 119.301 17.802 118.592 17.802Z" fill="#3366B0"/>
<path d="M122.655 17.7785C121.938 17.7785 121.43 17.4732 121.43 16.5649V14.3881H121.269C121.035 14.3881 120.85 14.2081 120.85 13.981C120.85 13.7539 121.035 13.5738 121.269 13.5738H121.43V12.8691C121.43 12.6107 121.648 12.3993 121.922 12.3993C122.188 12.3993 122.405 12.6107 122.405 12.8691V13.5738H123.171C123.405 13.5738 123.598 13.7539 123.598 13.981C123.598 14.2081 123.405 14.3881 123.171 14.3881H122.405V16.4161C122.405 16.7841 122.599 16.9329 122.929 16.9329C123.042 16.9329 123.139 16.9094 123.171 16.9094C123.388 16.9094 123.582 17.0817 123.582 17.3009C123.582 17.4732 123.461 17.6141 123.324 17.6689C123.115 17.7394 122.913 17.7785 122.655 17.7785Z" fill="#3366B0"/>
<path d="M126.446 17.802C125.149 17.802 124.19 16.8389 124.19 15.6644V15.6488C124.19 14.4664 125.157 13.4877 126.463 13.4877C127.768 13.4877 128.727 14.4508 128.727 15.6331V15.6488C128.727 16.8233 127.76 17.802 126.446 17.802ZM126.463 16.972C127.252 16.972 127.752 16.377 127.752 15.6644V15.6488C127.752 14.9206 127.212 14.3177 126.446 14.3177C125.665 14.3177 125.165 14.9128 125.165 15.6331V15.6488C125.165 16.3691 125.705 16.972 126.463 16.972Z" fill="#3366B0"/>
<path d="M129.72 17.2774V14.0045C129.72 13.7383 129.929 13.5268 130.203 13.5268C130.477 13.5268 130.695 13.7383 130.695 14.0045V14.4273C130.921 13.9105 131.34 13.519 131.767 13.519C132.073 13.519 132.25 13.7148 132.25 13.9888C132.25 14.2394 132.081 14.4038 131.863 14.443C131.17 14.5604 130.695 15.0772 130.695 16.0559V17.2774C130.695 17.5358 130.477 17.7472 130.203 17.7472C129.937 17.7472 129.72 17.5436 129.72 17.2774Z" fill="#3366B0"/>
<path d="M136.689 17.7942C135.892 17.7942 135.182 17.3479 135.182 16.5179V16.5022C135.182 15.6096 135.9 15.1711 136.939 15.1711C137.415 15.1711 137.753 15.2416 138.083 15.3434V15.2416C138.083 14.6544 137.713 14.3412 137.028 14.3412C136.657 14.3412 136.351 14.4038 136.085 14.5056C136.029 14.5213 135.98 14.5291 135.932 14.5291C135.706 14.5291 135.521 14.3568 135.521 14.1376C135.521 13.9653 135.642 13.8166 135.787 13.7617C136.19 13.613 136.601 13.519 137.157 13.519C137.793 13.519 138.269 13.6834 138.567 13.981C138.881 14.2785 139.026 14.717 139.026 15.2573V17.2931C139.026 17.5515 138.817 17.7472 138.551 17.7472C138.269 17.7472 138.075 17.5593 138.075 17.3479V17.1913C137.785 17.528 137.342 17.7942 136.689 17.7942ZM136.963 17.1051C137.608 17.1051 138.1 16.745 138.1 16.2204V15.9385C137.85 15.8445 137.519 15.774 137.133 15.774C136.504 15.774 136.133 16.0324 136.133 16.4631V16.4787C136.133 16.8781 136.496 17.1051 136.963 17.1051Z" fill="#3366B0"/>
<path d="M140.194 18.5302V14.0045C140.194 13.7383 140.404 13.5268 140.677 13.5268C140.951 13.5268 141.169 13.7383 141.169 14.0045V14.2629C141.483 13.8322 141.926 13.4877 142.62 13.4877C143.619 13.4877 144.594 14.255 144.594 15.6331V15.6488C144.594 17.019 143.627 17.7942 142.62 17.7942C141.91 17.7942 141.467 17.4497 141.169 17.066V18.5302C141.169 18.7964 140.951 19 140.677 19C140.412 19 140.194 18.7964 140.194 18.5302ZM142.386 16.972C143.055 16.972 143.603 16.4631 143.603 15.6488V15.6331C143.603 14.8345 143.047 14.3098 142.386 14.3098C141.725 14.3098 141.145 14.8423 141.145 15.6331V15.6488C141.145 16.4396 141.725 16.972 142.386 16.972Z" fill="#3366B0"/>
<path d="M145.6 18.5302V14.0045C145.6 13.7383 145.81 13.5268 146.084 13.5268C146.358 13.5268 146.575 13.7383 146.575 14.0045V14.2629C146.89 13.8322 147.333 13.4877 148.026 13.4877C149.025 13.4877 150 14.255 150 15.6331V15.6488C150 17.019 149.033 17.7942 148.026 17.7942C147.317 17.7942 146.873 17.4497 146.575 17.066V18.5302C146.575 18.7964 146.358 19 146.084 19C145.818 19 145.6 18.7964 145.6 18.5302ZM147.792 16.972C148.461 16.972 149.009 16.4631 149.009 15.6488V15.6331C149.009 14.8345 148.453 14.3098 147.792 14.3098C147.131 14.3098 146.551 14.8423 146.551 15.6331V15.6488C146.551 16.4396 147.131 16.972 147.792 16.972Z" fill="#3366B0"/>
</svg>
