<svg width="222" height="20" viewBox="0 0 222 20" fill="none" xmlns="http://www.w3.org/2000/svg">
<g clip-path="url(#clip0_1151_15653)">
<path d="M29.4951 6.05678V13.2076H28.2189L24.4869 8.3368H24.4211V13.2076H22.9863V6.05678H24.2703L27.9984 10.9311H28.068V6.05678H29.4951Z" fill="#191919"/>
<path d="M33.6264 13.3124C33.0308 13.3124 32.5165 13.2006 32.0833 12.9772C31.6528 12.7514 31.3215 12.4325 31.0894 12.0205C30.8574 11.6061 30.7414 11.1185 30.7414 10.5575C30.7414 10.0058 30.8574 9.52163 31.0894 9.10496C31.324 8.68597 31.6515 8.36008 32.0717 8.12731C32.492 7.8922 32.9857 7.77465 33.5529 7.77465C33.9191 7.77465 34.2645 7.82819 34.5894 7.93527C34.9168 8.04002 35.2056 8.20296 35.4557 8.4241C35.7084 8.64523 35.9069 8.92689 36.0513 9.26907C36.1956 9.60892 36.2678 10.0139 36.2678 10.4842V10.8717H31.3988V10.0198H34.9259C34.9233 9.77768 34.8653 9.56236 34.7518 9.37382C34.6384 9.18294 34.4798 9.0328 34.2761 8.9234C34.075 8.81399 33.8404 8.75929 33.5723 8.75929C33.2861 8.75929 33.0347 8.82214 32.8181 8.94784C32.6016 9.07121 32.4327 9.23415 32.3115 9.43666C32.1929 9.63685 32.1323 9.85682 32.1297 10.0966V10.8403C32.1297 11.1522 32.1929 11.4199 32.3192 11.6434C32.4456 11.8645 32.6222 12.0344 32.8491 12.1531C33.076 12.2695 33.3415 12.3277 33.6458 12.3277C33.8494 12.3277 34.0338 12.3021 34.1988 12.2509C34.3638 12.1974 34.5069 12.1194 34.6281 12.017C34.7492 11.9146 34.8408 11.7877 34.9026 11.6364L36.2098 11.7691C36.1273 12.081 35.97 12.3533 35.738 12.5861C35.5085 12.8166 35.2146 12.9958 34.8562 13.1238C34.4979 13.2495 34.0879 13.3124 33.6264 13.3124Z" fill="#191919"/>
<path d="M40.4185 7.84449V8.82214H37.0036V7.84449H40.4185ZM37.8467 6.55957H39.2467V11.5945C39.2467 11.7644 39.275 11.8948 39.3317 11.9855C39.391 12.074 39.4684 12.1345 39.5638 12.1671C39.6592 12.1997 39.7649 12.216 39.8809 12.216C39.9686 12.216 40.0485 12.2102 40.1207 12.1985C40.1955 12.1869 40.2522 12.1764 40.2909 12.1671L40.5268 13.1552C40.452 13.1785 40.345 13.2041 40.2058 13.2321C40.0691 13.26 39.9015 13.2763 39.703 13.2809C39.3524 13.2903 39.0365 13.2425 38.7555 13.1378C38.4745 13.0307 38.2515 12.8654 38.0865 12.642C37.924 12.4185 37.8441 12.1392 37.8467 11.804V6.55957Z" fill="#191919"/>
<path d="M46.1606 7.84449C46.1141 7.49067 45.9259 7.21599 45.5959 7.02046C45.2659 6.82493 44.8611 6.72717 44.3816 6.72717C44.0309 6.72717 43.7241 6.77838 43.4611 6.8808C43.2007 6.98322 42.997 7.12405 42.8501 7.30329C42.7057 7.48252 42.6335 7.6862 42.6335 7.91432C42.6335 8.10519 42.6838 8.2693 42.7843 8.40664C42.8875 8.54165 43.019 8.65454 43.1788 8.74532C43.3387 8.83378 43.5062 8.9071 43.6816 8.9653C43.8569 9.02116 44.018 9.06655 44.165 9.10147L44.9694 9.297C45.1757 9.34588 45.4051 9.41339 45.6578 9.49951C45.913 9.58564 46.1567 9.70319 46.3887 9.85217C46.6233 9.99882 46.8167 10.1874 46.9688 10.4178C47.1209 10.6483 47.197 10.9311 47.197 11.2663C47.197 11.6527 47.0849 12.0018 46.8605 12.3138C46.6388 12.6257 46.314 12.8736 45.886 13.0575C45.4606 13.2414 44.9436 13.3333 44.3352 13.3333C43.7679 13.3333 43.2768 13.2507 42.8617 13.0854C42.4492 12.9201 42.1243 12.6897 41.8871 12.3941C41.6525 12.0984 41.5197 11.7551 41.4888 11.364H42.4788C42.5046 11.6341 42.6052 11.8575 42.7805 12.0344C42.9584 12.209 43.1827 12.3394 43.4534 12.4255C43.7267 12.5093 44.0206 12.5512 44.3352 12.5512C44.7013 12.5512 45.03 12.4977 45.3213 12.3906C45.6127 12.2812 45.8434 12.1299 46.0136 11.9367C46.1838 11.7411 46.2688 11.513 46.2688 11.2523C46.2688 11.0149 46.1954 10.8217 46.0484 10.6727C45.9014 10.5237 45.7081 10.4027 45.4683 10.3096C45.2285 10.2165 44.9694 10.135 44.691 10.0652L43.7164 9.81376C43.0976 9.65315 42.6077 9.42386 42.2468 9.12591C41.8858 8.82796 41.7053 8.43806 41.7053 7.95622C41.7053 7.55585 41.8252 7.20668 42.065 6.90873C42.3074 6.60845 42.6322 6.37568 43.0396 6.21041C43.4495 6.04281 43.9072 5.95901 44.4125 5.95901C44.923 5.95901 45.3768 6.04165 45.7738 6.20692C46.1709 6.36986 46.4854 6.59332 46.7175 6.87731C46.9521 7.16129 47.0758 7.48369 47.0887 7.84449H46.1606Z" fill="#191919"/>
<path d="M52.3938 11.0149V7.84449H53.3065V13.2076H52.3938V12.2998H52.3319C52.1927 12.5721 51.9761 12.8038 51.6822 12.9946C51.3883 13.1832 51.017 13.2774 50.5684 13.2774C50.1971 13.2774 49.8671 13.2041 49.5783 13.0575C49.2896 12.9085 49.0627 12.685 48.8977 12.3871C48.7327 12.0868 48.6502 11.7085 48.6502 11.2523V7.84449H49.5629V11.1964C49.5629 11.5875 49.684 11.8994 49.9264 12.1322C50.1713 12.365 50.4833 12.4814 50.8623 12.4814C51.0892 12.4814 51.3199 12.429 51.5546 12.3242C51.7918 12.2195 51.9903 12.0589 52.1501 11.8424C52.3126 11.6259 52.3938 11.3501 52.3938 11.0149Z" fill="#191919"/>
<path d="M54.9781 13.2076V7.84449H55.8908V13.2076H54.9781ZM55.4422 6.95063C55.2643 6.95063 55.1109 6.89593 54.982 6.78653C54.8557 6.67712 54.7925 6.5456 54.7925 6.39197C54.7925 6.23834 54.8557 6.10682 54.982 5.99742C55.1109 5.88801 55.2643 5.83331 55.4422 5.83331C55.6201 5.83331 55.7722 5.88801 55.8986 5.99742C56.0275 6.10682 56.0919 6.23834 56.0919 6.39197C56.0919 6.5456 56.0275 6.67712 55.8986 6.78653C55.7722 6.89593 55.6201 6.95063 55.4422 6.95063Z" fill="#191919"/>
<path d="M60.1459 7.84449V8.54281H57.0675V7.84449H60.1459ZM57.9647 6.55957H58.8774V11.6713C58.8774 11.9041 58.9148 12.0787 58.9896 12.195C59.0669 12.3091 59.1649 12.3859 59.2835 12.4255C59.4047 12.4627 59.5323 12.4814 59.6664 12.4814C59.7669 12.4814 59.8494 12.4767 59.9139 12.4674C59.9783 12.4558 60.0299 12.4464 60.0686 12.4395L60.2542 13.1797C60.1923 13.2006 60.106 13.2216 59.9951 13.2425C59.8842 13.2658 59.7437 13.2774 59.5735 13.2774C59.3157 13.2774 59.0631 13.2274 58.8155 13.1273C58.5706 13.0272 58.3669 12.8747 58.2045 12.6699C58.0446 12.4651 57.9647 12.2067 57.9647 11.8948V6.55957Z" fill="#191919"/>
<path d="M63.9456 13.3193C63.3732 13.3193 62.8795 13.2053 62.4644 12.9772C62.0519 12.7467 61.7335 12.4255 61.5092 12.0135C61.2874 11.5991 61.1766 11.1173 61.1766 10.5679C61.1766 10.0186 61.2874 9.53443 61.5092 9.11544C61.7335 8.69411 62.0454 8.3659 62.4451 8.1308C62.8473 7.89337 63.3165 7.77465 63.8528 7.77465C64.1622 7.77465 64.4677 7.82121 64.7694 7.91432C65.071 8.00743 65.3456 8.15873 65.5931 8.36823C65.8406 8.5754 66.0378 8.85007 66.1848 9.19225C66.3318 9.53443 66.4052 9.95575 66.4052 10.4562V10.8054H61.8263V10.0931H65.4771C65.4771 9.79048 65.41 9.52046 65.276 9.28303C65.1445 9.0456 64.9563 8.85822 64.7113 8.72088C64.469 8.58355 64.1828 8.51488 63.8528 8.51488C63.4893 8.51488 63.1747 8.59635 62.9091 8.75929C62.6462 8.91991 62.4438 9.1294 62.302 9.38778C62.1602 9.64616 62.0893 9.92316 62.0893 10.2188V10.6936C62.0893 11.0987 62.1666 11.442 62.3213 11.7237C62.4786 12.003 62.6964 12.216 62.9749 12.3626C63.2533 12.507 63.5769 12.5791 63.9456 12.5791C64.1854 12.5791 64.402 12.5489 64.5953 12.4883C64.7913 12.4255 64.9601 12.3324 65.1019 12.209C65.2437 12.0833 65.3533 11.9274 65.4307 11.7411L66.3124 11.9646C66.2196 12.2346 66.0636 12.472 65.8445 12.6769C65.6253 12.8794 65.3546 13.0377 65.0323 13.1517C64.7101 13.2635 64.3478 13.3193 63.9456 13.3193Z" fill="#191919"/>
<g clip-path="url(#clip1_1151_15653)">
<path d="M1.02162 6.43516H5.10811V15.6018H7.15135V18.6574H1.02162V6.43516ZM19.4108 13.5648H15.3243V4.39813H13.2811V1.34257H19.4108V13.5648Z" fill="#BACCDB"/>
<path d="M0 0.833313H12.2595V11.5278L8.17297 5.41665H0V0.833313ZM20.4324 19.1666H8.17297V8.4722L12.2595 14.5833H20.4324" fill="#125580"/>
</g>
</g>
<defs>
<clipPath id="clip0_1151_15653">
<rect width="222" height="20" fill="white"/>
</clipPath>
<clipPath id="clip1_1151_15653">
<rect width="20.4324" height="20" fill="white"/>
</clipPath>
</defs>
</svg>
