<svg width="222" height="20" viewBox="0 0 222 20" fill="none" xmlns="http://www.w3.org/2000/svg">
<path d="M30.5819 1.87375C30.5845 1.45934 30.7527 1.06275 31.05 0.7706C31.3472 0.478447 31.7493 0.314465 32.1684 0.314465C32.5875 0.314465 32.9896 0.478447 33.2869 0.7706C33.5841 1.06275 33.7524 1.45934 33.7549 1.87375V16.8719C33.7524 17.2863 33.5841 17.6829 33.2869 17.9751C32.9896 18.2672 32.5875 18.4312 32.1684 18.4312C31.7493 18.4312 31.3472 18.2672 31.05 17.9751C30.7527 17.6829 30.5845 17.2863 30.5819 16.8719V1.87375Z" fill="#E4002B"/>
<path d="M73.4579 16.2597L80.165 1.46578C80.3185 1.08424 80.5858 0.757895 80.9313 0.530079C81.2768 0.302263 81.6842 0.183752 82.0994 0.190283C82.5248 0.182554 82.9429 0.299575 83.3011 0.526577C83.6592 0.75358 83.9413 1.08039 84.1118 1.46578L90.8191 16.2597C90.9243 16.4663 90.9858 16.692 90.9996 16.9229C91.0043 17.1197 90.969 17.3154 90.8958 17.4984C90.8226 17.6814 90.713 17.848 90.5735 17.9884C90.434 18.1287 90.2674 18.2399 90.0836 18.3154C89.8998 18.391 89.7025 18.4292 89.5035 18.4279C89.164 18.4199 88.8348 18.3109 88.5587 18.1153C88.2827 17.9197 88.0726 17.6465 87.9557 17.3311L86.4852 13.9896H77.7145L76.1924 17.4331C76.0779 17.7266 75.8761 17.9788 75.6135 18.1564C75.351 18.334 75.0402 18.4287 74.7221 18.4279C74.5283 18.4302 74.3361 18.3941 74.1567 18.3218C73.9773 18.2495 73.8143 18.1425 73.6773 18.0071C73.5403 17.8716 73.432 17.7104 73.3589 17.533C73.2858 17.3556 73.2493 17.1655 73.2516 16.974C73.2663 16.7238 73.3368 16.4799 73.4579 16.2597ZM85.2728 11.2096L82.0999 3.99112L78.9269 11.2096H85.2728Z" fill="#E4002B"/>
<path d="M19.776 17.3411L17.3043 14.8971C18.6913 12.9706 19.2955 10.5991 18.9972 8.25282C18.6989 5.90651 17.5198 3.75669 15.6937 2.2296C13.8677 0.702513 11.528 -0.0903537 9.13844 0.00819843C6.74892 0.106751 4.4841 1.08953 2.79299 2.76168C1.10188 4.43383 0.107961 6.67326 0.00829139 9.03599C-0.0913781 11.3987 0.710478 13.7122 2.25488 15.5178C3.79929 17.3234 5.97348 18.4893 8.34639 18.7842C10.7193 19.0792 13.1177 18.4818 15.066 17.1103L17.5377 19.5543C17.8357 19.8422 18.2364 20.0023 18.6531 20C19.0697 19.9976 19.4686 19.8329 19.7632 19.5416C20.0578 19.2503 20.2243 18.8559 20.2267 18.4439C20.2291 18.032 20.0672 17.6357 19.776 17.3411ZM3.19608 9.44397C3.19608 8.20118 3.56879 6.98629 4.26708 5.95295C4.96537 4.9196 5.95788 4.11421 7.11909 3.63862C8.2803 3.16302 9.55806 3.03859 10.7908 3.28105C12.0235 3.52351 13.1559 4.12198 14.0446 5.00077C14.9334 5.87956 15.5386 6.99921 15.7838 8.21812C16.029 9.43704 15.9031 10.7005 15.4221 11.8487C14.9411 12.9969 14.1266 13.9782 13.0815 14.6687C12.0365 15.3591 10.8078 15.7276 9.55093 15.7276C7.8661 15.7257 6.25082 15.0631 5.05947 13.8851C3.86812 12.7071 3.19798 11.1099 3.19608 9.44397Z" fill="#E4002B"/>
<path d="M45.8347 1.92476C45.8347 0.21843 48.2571 -0.324376 49.2398 1.1851L54.7086 9.65343L60.2032 1.15933C61.0763 -0.325794 63.5827 0.211109 63.5827 1.92454V16.8717C63.5833 17.0784 63.5421 17.2831 63.4616 17.4738C63.3811 17.6645 63.2629 17.8374 63.1139 17.9824C62.9649 18.1273 62.7882 18.2413 62.594 18.3178C62.3998 18.3943 62.1922 18.4317 61.9832 18.4277C61.5731 18.4197 61.1829 18.2515 60.8978 17.96C60.6127 17.6685 60.4558 17.2772 60.4614 16.8717V6.20354C60.4614 6.20354 56.7238 11.7152 56.0255 12.7143C55.8922 12.9436 55.7002 13.1341 55.4687 13.2665C55.2373 13.399 54.9746 13.4687 54.7072 13.4687C54.4397 13.4687 54.1771 13.399 53.9456 13.2665C53.7142 13.1341 53.5221 12.9436 53.3889 12.7143L48.9562 6.21001V16.8976C48.957 17.101 48.9167 17.3025 48.8376 17.4902C48.7585 17.6779 48.6422 17.8481 48.4956 17.9908C48.3489 18.1334 48.1749 18.2455 47.9837 18.3207C47.7926 18.3958 47.5882 18.4323 47.3825 18.4281C47.1782 18.4318 46.9753 18.3948 46.7858 18.3192C46.5963 18.2436 46.4242 18.131 46.2797 17.9881C46.1352 17.8453 46.0214 17.6751 45.9449 17.4877C45.8684 17.3004 45.831 17.0997 45.8347 16.8977V1.92476Z" fill="#E4002B"/>
<path d="M97.2164 17.802C95.942 17.802 95 16.8389 95 15.6644V15.6488C95 14.4664 95.9499 13.4877 97.2322 13.4877C98.5145 13.4877 99.4565 14.4508 99.4565 15.6331V15.6488C99.4565 16.8233 98.5066 17.802 97.2164 17.802ZM97.2322 16.972C98.0079 16.972 98.4987 16.377 98.4987 15.6644V15.6488C98.4987 14.9206 97.9683 14.3177 97.2164 14.3177C96.4486 14.3177 95.9578 14.9128 95.9578 15.6331V15.6488C95.9578 16.3691 96.4881 16.972 97.2322 16.972Z" fill="#3366B0"/>
<path d="M100.432 17.2774V14.0045C100.432 13.7383 100.638 13.5268 100.907 13.5268C101.176 13.5268 101.39 13.7383 101.39 14.0045V14.2081C101.659 13.8244 102.047 13.4877 102.696 13.4877C103.638 13.4877 104.184 14.1141 104.184 15.0694V17.2774C104.184 17.5436 103.978 17.7472 103.709 17.7472C103.44 17.7472 103.226 17.5436 103.226 17.2774V15.3591C103.226 14.717 102.902 14.349 102.332 14.349C101.778 14.349 101.39 14.7327 101.39 15.3747V17.2774C101.39 17.5436 101.176 17.7472 100.907 17.7472C100.646 17.7472 100.432 17.5436 100.432 17.2774Z" fill="#3366B0"/>
<path d="M106.061 15.3512H108.206C108.143 14.7405 107.778 14.2629 107.145 14.2629C106.559 14.2629 106.148 14.7092 106.061 15.3512ZM108.76 17.2539C108.38 17.5906 107.905 17.802 107.256 17.802C106.045 17.802 105.111 16.9329 105.111 15.6566V15.6409C105.111 14.4586 105.958 13.4877 107.153 13.4877C108.483 13.4877 109.14 14.5682 109.14 15.5235C109.14 15.7897 108.934 15.9776 108.689 15.9776H106.069C106.172 16.651 106.654 17.0268 107.272 17.0268C107.676 17.0268 107.992 16.8859 108.261 16.6667C108.333 16.6119 108.396 16.5805 108.507 16.5805C108.72 16.5805 108.887 16.745 108.887 16.9642C108.887 17.0817 108.831 17.1834 108.76 17.2539Z" fill="#3366B0"/>
<path d="M112.222 17.3009C112.222 17.2304 112.245 17.16 112.285 17.0817L114.343 12.5403C114.454 12.2975 114.652 12.1488 114.929 12.1488H114.976C115.253 12.1488 115.443 12.2975 115.554 12.5403L117.612 17.0817C117.652 17.1521 117.668 17.2226 117.668 17.2852C117.668 17.5436 117.47 17.7472 117.208 17.7472C116.979 17.7472 116.821 17.6141 116.733 17.4105L116.282 16.3848H113.591L113.124 17.4418C113.045 17.6376 112.879 17.7472 112.673 17.7472C112.42 17.7472 112.222 17.5515 112.222 17.3009ZM113.963 15.5313H115.91L114.937 13.3154L113.963 15.5313Z" fill="#3366B0"/>
<path d="M118.613 18.5302V14.0045C118.613 13.7383 118.819 13.5268 119.088 13.5268C119.357 13.5268 119.571 13.7383 119.571 14.0045V14.2629C119.879 13.8322 120.315 13.4877 120.996 13.4877C121.977 13.4877 122.935 14.255 122.935 15.6331V15.6488C122.935 17.019 121.985 17.7942 120.996 17.7942C120.299 17.7942 119.864 17.4497 119.571 17.066V18.5302C119.571 18.7964 119.357 19 119.088 19C118.827 19 118.613 18.7964 118.613 18.5302ZM120.766 16.972C121.423 16.972 121.961 16.4631 121.961 15.6488V15.6331C121.961 14.8345 121.415 14.3098 120.766 14.3098C120.117 14.3098 119.547 14.8423 119.547 15.6331V15.6488C119.547 16.4396 120.117 16.972 120.766 16.972Z" fill="#3366B0"/>
<path d="M123.908 12.5089V12.462C123.908 12.1801 124.145 12 124.454 12C124.763 12 125 12.1801 125 12.462V12.5089C125 12.7908 124.763 12.9787 124.454 12.9787C124.145 12.9787 123.908 12.7908 123.908 12.5089ZM123.979 17.2774V14.0045C123.979 13.7383 124.185 13.5268 124.454 13.5268C124.723 13.5268 124.937 13.7383 124.937 14.0045V17.2774C124.937 17.5436 124.723 17.7472 124.454 17.7472C124.193 17.7472 123.979 17.5436 123.979 17.2774Z" fill="#3366B0"/>
</svg>
