<svg width="222" height="20" viewBox="0 0 222 20" fill="none" xmlns="http://www.w3.org/2000/svg">
<path d="M30.5819 1.87375C30.5845 1.45934 30.7527 1.06275 31.05 0.7706C31.3472 0.478447 31.7493 0.314465 32.1684 0.314465C32.5875 0.314465 32.9896 0.478447 33.2869 0.7706C33.5841 1.06275 33.7524 1.45934 33.7549 1.87375V16.8719C33.7524 17.2863 33.5841 17.6829 33.2869 17.9751C32.9896 18.2672 32.5875 18.4312 32.1684 18.4312C31.7493 18.4312 31.3472 18.2672 31.05 17.9751C30.7527 17.6829 30.5845 17.2863 30.5819 16.8719V1.87375Z" fill="#E4002B"/>
<path d="M73.4579 16.2597L80.165 1.46578C80.3185 1.08424 80.5858 0.757895 80.9313 0.530079C81.2768 0.302263 81.6842 0.183752 82.0994 0.190283C82.5248 0.182554 82.9429 0.299575 83.3011 0.526577C83.6592 0.75358 83.9413 1.08039 84.1118 1.46578L90.8191 16.2597C90.9243 16.4663 90.9858 16.692 90.9996 16.9229C91.0043 17.1197 90.969 17.3154 90.8958 17.4984C90.8226 17.6814 90.713 17.848 90.5735 17.9884C90.434 18.1287 90.2674 18.2399 90.0836 18.3154C89.8998 18.391 89.7025 18.4292 89.5035 18.4279C89.164 18.4199 88.8348 18.3109 88.5587 18.1153C88.2827 17.9197 88.0726 17.6465 87.9557 17.3311L86.4852 13.9896H77.7145L76.1924 17.4331C76.0779 17.7266 75.8761 17.9788 75.6135 18.1564C75.351 18.334 75.0402 18.4287 74.7221 18.4279C74.5283 18.4302 74.3361 18.3941 74.1567 18.3218C73.9773 18.2495 73.8143 18.1425 73.6773 18.0071C73.5403 17.8716 73.432 17.7104 73.3589 17.533C73.2858 17.3556 73.2493 17.1655 73.2516 16.974C73.2663 16.7238 73.3368 16.4799 73.4579 16.2597ZM85.2728 11.2096L82.0999 3.99112L78.9269 11.2096H85.2728Z" fill="#E4002B"/>
<path d="M19.776 17.3411L17.3043 14.8971C18.6913 12.9706 19.2955 10.5991 18.9972 8.25282C18.6989 5.90651 17.5198 3.75669 15.6937 2.2296C13.8677 0.702513 11.528 -0.0903537 9.13844 0.00819843C6.74892 0.106751 4.4841 1.08953 2.79299 2.76168C1.10188 4.43383 0.107961 6.67326 0.00829139 9.03599C-0.0913781 11.3987 0.710478 13.7122 2.25488 15.5178C3.79929 17.3234 5.97348 18.4893 8.34639 18.7842C10.7193 19.0792 13.1177 18.4818 15.066 17.1103L17.5377 19.5543C17.8357 19.8422 18.2364 20.0023 18.6531 20C19.0697 19.9976 19.4686 19.8329 19.7632 19.5416C20.0578 19.2503 20.2243 18.8559 20.2267 18.4439C20.2291 18.032 20.0672 17.6357 19.776 17.3411ZM3.19608 9.44397C3.19608 8.20118 3.56879 6.98629 4.26708 5.95295C4.96537 4.9196 5.95788 4.11421 7.11909 3.63862C8.2803 3.16302 9.55806 3.03859 10.7908 3.28105C12.0235 3.52351 13.1559 4.12198 14.0446 5.00077C14.9334 5.87956 15.5386 6.99921 15.7838 8.21812C16.029 9.43704 15.9031 10.7005 15.4221 11.8487C14.9411 12.9969 14.1266 13.9782 13.0815 14.6687C12.0365 15.3591 10.8078 15.7276 9.55093 15.7276C7.8661 15.7257 6.25082 15.0631 5.05947 13.8851C3.86812 12.7071 3.19798 11.1099 3.19608 9.44397Z" fill="#E4002B"/>
<path d="M45.8347 1.92476C45.8347 0.21843 48.2571 -0.324376 49.2398 1.1851L54.7086 9.65343L60.2032 1.15933C61.0763 -0.325794 63.5827 0.211109 63.5827 1.92454V16.8717C63.5833 17.0784 63.5421 17.2831 63.4616 17.4738C63.3811 17.6645 63.2629 17.8374 63.1139 17.9824C62.9649 18.1273 62.7882 18.2413 62.594 18.3178C62.3998 18.3943 62.1922 18.4317 61.9832 18.4277C61.5731 18.4197 61.1829 18.2515 60.8978 17.96C60.6127 17.6685 60.4558 17.2772 60.4614 16.8717V6.20354C60.4614 6.20354 56.7238 11.7152 56.0255 12.7143C55.8922 12.9436 55.7002 13.1341 55.4687 13.2665C55.2373 13.399 54.9746 13.4687 54.7072 13.4687C54.4397 13.4687 54.1771 13.399 53.9456 13.2665C53.7142 13.1341 53.5221 12.9436 53.3889 12.7143L48.9562 6.21001V16.8976C48.957 17.101 48.9167 17.3025 48.8376 17.4902C48.7585 17.6779 48.6422 17.8481 48.4956 17.9908C48.3489 18.1334 48.1749 18.2455 47.9837 18.3207C47.7926 18.3958 47.5882 18.4323 47.3825 18.4281C47.1782 18.4318 46.9753 18.3948 46.7858 18.3192C46.5963 18.2436 46.4242 18.131 46.2797 17.9881C46.1352 17.8453 46.0214 17.6751 45.9449 17.4877C45.8684 17.3004 45.831 17.0997 45.8347 16.8977V1.92476Z" fill="#E4002B"/>
<path d="M95 18.5333V14.0378C95 13.7733 95.2084 13.5633 95.4809 13.5633C95.7534 13.5633 95.9698 13.7733 95.9698 14.0378V14.2944C96.2824 13.8667 96.7232 13.5244 97.4125 13.5244C98.4064 13.5244 99.3762 14.2867 99.3762 15.6556V15.6711C99.3762 17.0322 98.4144 17.8022 97.4125 17.8022C96.7072 17.8022 96.2664 17.46 95.9698 17.0789V18.5333C95.9698 18.7978 95.7534 19 95.4809 19C95.2164 19 95 18.7978 95 18.5333ZM97.1801 16.9856C97.8453 16.9856 98.3904 16.48 98.3904 15.6711V15.6556C98.3904 14.8622 97.8373 14.3411 97.1801 14.3411C96.5229 14.3411 95.9458 14.87 95.9458 15.6556V15.6711C95.9458 16.4567 96.5229 16.9856 97.1801 16.9856Z" fill="#3366B0"/>
<path d="M101.107 15.3756H103.279C103.215 14.7689 102.846 14.2944 102.205 14.2944C101.612 14.2944 101.195 14.7378 101.107 15.3756ZM103.84 17.2656C103.455 17.6 102.974 17.81 102.317 17.81C101.091 17.81 100.145 16.9467 100.145 15.6789V15.6633C100.145 14.4889 101.002 13.5244 102.213 13.5244C103.559 13.5244 104.224 14.5978 104.224 15.5467C104.224 15.8111 104.016 15.9978 103.768 15.9978H101.115C101.219 16.6667 101.708 17.04 102.333 17.04C102.742 17.04 103.062 16.9 103.335 16.6822C103.407 16.6278 103.471 16.5967 103.583 16.5967C103.8 16.5967 103.968 16.76 103.968 16.9778C103.968 17.0944 103.912 17.1956 103.84 17.2656Z" fill="#3366B0"/>
<path d="M107.226 17.81C105.936 17.81 104.982 16.8533 104.982 15.6867V15.6711C104.982 14.4967 105.944 13.5244 107.242 13.5244C108.541 13.5244 109.494 14.4811 109.494 15.6556V15.6711C109.494 16.8378 108.533 17.81 107.226 17.81ZM107.242 16.9856C108.028 16.9856 108.525 16.3944 108.525 15.6867V15.6711C108.525 14.9478 107.988 14.3489 107.226 14.3489C106.449 14.3489 105.952 14.94 105.952 15.6556V15.6711C105.952 16.3867 106.489 16.9856 107.242 16.9856Z" fill="#3366B0"/>
<path d="M110.482 18.5333V14.0378C110.482 13.7733 110.691 13.5633 110.963 13.5633C111.236 13.5633 111.452 13.7733 111.452 14.0378V14.2944C111.765 13.8667 112.205 13.5244 112.895 13.5244C113.889 13.5244 114.858 14.2867 114.858 15.6556V15.6711C114.858 17.0322 113.897 17.8022 112.895 17.8022C112.189 17.8022 111.749 17.46 111.452 17.0789V18.5333C111.452 18.7978 111.236 19 110.963 19C110.699 19 110.482 18.7978 110.482 18.5333ZM112.662 16.9856C113.327 16.9856 113.873 16.48 113.873 15.6711V15.6556C113.873 14.8622 113.319 14.3411 112.662 14.3411C112.005 14.3411 111.428 14.87 111.428 15.6556V15.6711C111.428 16.4567 112.005 16.9856 112.662 16.9856Z" fill="#3366B0"/>
<path d="M115.916 17.2889V12.4667C115.916 12.21 116.124 12 116.396 12C116.669 12 116.885 12.21 116.885 12.4667V17.2889C116.885 17.5533 116.669 17.7556 116.396 17.7556C116.132 17.7556 115.916 17.5533 115.916 17.2889Z" fill="#3366B0"/>
<path d="M118.882 15.3756H121.054C120.99 14.7689 120.621 14.2944 119.98 14.2944C119.387 14.2944 118.97 14.7378 118.882 15.3756ZM121.615 17.2656C121.231 17.6 120.75 17.81 120.092 17.81C118.866 17.81 117.92 16.9467 117.92 15.6789V15.6633C117.92 14.4889 118.778 13.5244 119.988 13.5244C121.335 13.5244 122 14.5978 122 15.5467C122 15.8111 121.792 15.9978 121.543 15.9978H118.89C118.994 16.6667 119.483 17.04 120.108 17.04C120.517 17.04 120.838 16.9 121.11 16.6822C121.182 16.6278 121.247 16.5967 121.359 16.5967C121.575 16.5967 121.744 16.76 121.744 16.9778C121.744 17.0944 121.687 17.1956 121.615 17.2656Z" fill="#3366B0"/>
</svg>
