<svg width="222" height="20" viewBox="0 0 222 20" fill="none" xmlns="http://www.w3.org/2000/svg">
<path d="M30.2459 1.87375C30.2484 1.45934 30.4148 1.06275 30.7088 0.7706C31.0027 0.478447 31.4004 0.314465 31.8149 0.314465C32.2294 0.314465 32.6271 0.478447 32.9211 0.7706C33.2151 1.06275 33.3815 1.45934 33.3839 1.87375V16.8719C33.3815 17.2863 33.2151 17.6829 32.9211 17.9751C32.6271 18.2672 32.2294 18.4312 31.8149 18.4312C31.4004 18.4312 31.0027 18.2672 30.7088 17.9751C30.4148 17.6829 30.2484 17.2863 30.2459 16.8719V1.87375Z" fill="#E4002B"/>
<path d="M72.6507 16.2597L79.2841 1.46578C79.4359 1.08424 79.7002 0.757895 80.0419 0.530079C80.3836 0.302263 80.7866 0.183752 81.1972 0.190283C81.6179 0.182554 82.0314 0.299575 82.3857 0.526577C82.7399 0.75358 83.0189 1.08039 83.1875 1.46578L89.8211 16.2597C89.9252 16.4663 89.9859 16.692 89.9996 16.9229C90.0042 17.1197 89.9693 17.3154 89.8969 17.4984C89.8246 17.6814 89.7162 17.848 89.5782 17.9884C89.4402 18.1287 89.2754 18.2399 89.0936 18.3154C88.9119 18.391 88.7168 18.4292 88.5199 18.4279C88.1841 18.4199 87.8585 18.3109 87.5855 18.1153C87.3125 17.9197 87.1047 17.6465 86.9892 17.3311L85.5348 13.9896H76.8605L75.3551 17.4331C75.2419 17.7266 75.0422 17.9788 74.7826 18.1564C74.523 18.334 74.2155 18.4287 73.9009 18.4279C73.7093 18.4302 73.5192 18.3941 73.3418 18.3218C73.1643 18.2495 73.0031 18.1425 72.8676 18.0071C72.7321 17.8716 72.6251 17.7104 72.5528 17.533C72.4805 17.3556 72.4444 17.1655 72.4466 16.974C72.4612 16.7238 72.5309 16.4799 72.6507 16.2597ZM84.3357 11.2096L81.1977 3.99112L78.0596 11.2096H84.3357Z" fill="#E4002B"/>
<path d="M19.5587 17.3411L17.1142 14.8971C18.4859 12.9706 19.0835 10.5991 18.7884 8.25282C18.4934 5.90651 17.3273 3.75669 15.5213 2.2296C13.7153 0.702513 11.4013 -0.0903537 9.03802 0.00819843C6.67476 0.106751 4.43482 1.08953 2.7623 2.76168C1.08977 4.43383 0.106775 6.67326 0.00820027 9.03599C-0.090374 11.3987 0.70267 13.7122 2.2301 15.5178C3.75754 17.3234 5.90783 18.4893 8.25467 18.7842C10.6015 19.0792 12.9735 18.4818 14.9005 17.1103L17.345 19.5543C17.6397 19.8422 18.036 20.0023 18.4481 20C18.8601 19.9976 19.2546 19.8329 19.546 19.5416C19.8373 19.2503 20.0021 18.8559 20.0045 18.4439C20.0068 18.032 19.8467 17.6357 19.5587 17.3411ZM3.16096 9.44397C3.16096 8.20118 3.52958 6.98629 4.22019 5.95295C4.91081 4.9196 5.8924 4.11421 7.04085 3.63862C8.18931 3.16302 9.45303 3.03859 10.6722 3.28105C11.8914 3.52351 13.0113 4.12198 13.8903 5.00077C14.7693 5.87956 15.3678 6.99921 15.6104 8.21812C15.8529 9.43704 15.7284 10.7005 15.2527 11.8487C14.777 12.9969 13.9714 13.9782 12.9378 14.6687C11.9042 15.3591 10.6891 15.7276 9.44598 15.7276C7.77966 15.7257 6.18213 15.0631 5.00387 13.8851C3.82561 12.7071 3.16284 11.1099 3.16096 9.44397Z" fill="#E4002B"/>
<path d="M45.331 1.92476C45.331 0.21843 47.7268 -0.324376 48.6987 1.1851L54.1074 9.65343L59.5416 1.15933C60.4052 -0.325794 62.884 0.211109 62.884 1.92454V16.8717C62.8846 17.0784 62.8438 17.2831 62.7642 17.4738C62.6846 17.6645 62.5677 17.8374 62.4204 17.9824C62.273 18.1273 62.0982 18.2413 61.9062 18.3178C61.7141 18.3943 61.5087 18.4317 61.3021 18.4277C60.8965 18.4197 60.5106 18.2515 60.2286 17.96C59.9466 17.6685 59.7915 17.2772 59.797 16.8717V6.20354C59.797 6.20354 56.1004 11.7152 55.4098 12.7143C55.278 12.9436 55.0881 13.1341 54.8592 13.2665C54.6303 13.399 54.3705 13.4687 54.106 13.4687C53.8415 13.4687 53.5817 13.399 53.3528 13.2665C53.1239 13.1341 52.934 12.9436 52.8022 12.7143L48.4182 6.21001V16.8976C48.419 17.101 48.3792 17.3025 48.3009 17.4902C48.2227 17.6779 48.1077 17.8481 47.9626 17.9908C47.8176 18.1334 47.6455 18.2455 47.4564 18.3207C47.2674 18.3958 47.0652 18.4323 46.8618 18.4281C46.6598 18.4318 46.4591 18.3948 46.2717 18.3192C46.0843 18.2436 45.914 18.131 45.7711 17.9881C45.6283 17.8453 45.5156 17.6751 45.44 17.4877C45.3644 17.3004 45.3273 17.0997 45.331 16.8977V1.92476Z" fill="#E4002B"/>
<path d="M94 17.2889V14.0378C94 13.7733 94.2074 13.5633 94.4786 13.5633C94.7498 13.5633 94.9651 13.7733 94.9651 14.0378V14.2322C95.2363 13.8667 95.6032 13.5244 96.2493 13.5244C96.8555 13.5244 97.2862 13.8122 97.5096 14.2478C97.8446 13.8122 98.2913 13.5244 98.9294 13.5244C99.8466 13.5244 100.405 14.0922 100.405 15.0956V17.2889C100.405 17.5533 100.198 17.7556 99.9264 17.7556C99.6552 17.7556 99.4399 17.5533 99.4399 17.2889V15.3833C99.4399 14.73 99.1288 14.38 98.5864 14.38C98.06 14.38 97.6851 14.7378 97.6851 15.3989V17.2889C97.6851 17.5533 97.4697 17.7556 97.2065 17.7556C96.9353 17.7556 96.7199 17.5533 96.7199 17.2889V15.3756C96.7199 14.7378 96.4009 14.38 95.8665 14.38C95.332 14.38 94.9651 14.7689 94.9651 15.3989V17.2889C94.9651 17.5533 94.7498 17.7556 94.4786 17.7556C94.2154 17.7556 94 17.5533 94 17.2889Z" fill="#3366B0"/>
<path d="M102.791 17.8022C102.002 17.8022 101.3 17.3589 101.3 16.5344V16.5189C101.3 15.6322 102.01 15.1967 103.039 15.1967C103.509 15.1967 103.844 15.2667 104.171 15.3678V15.2667C104.171 14.6833 103.804 14.3722 103.126 14.3722C102.76 14.3722 102.456 14.4344 102.193 14.5356C102.137 14.5511 102.09 14.5589 102.042 14.5589C101.818 14.5589 101.635 14.3878 101.635 14.17C101.635 13.9989 101.755 13.8511 101.898 13.7967C102.297 13.6489 102.704 13.5556 103.254 13.5556C103.884 13.5556 104.355 13.7189 104.65 14.0144C104.961 14.31 105.105 14.7456 105.105 15.2822V17.3044C105.105 17.5611 104.897 17.7556 104.634 17.7556C104.355 17.7556 104.163 17.5689 104.163 17.3589V17.2033C103.876 17.5378 103.438 17.8022 102.791 17.8022ZM103.063 17.1178C103.701 17.1178 104.187 16.76 104.187 16.2389V15.9589C103.94 15.8656 103.613 15.7956 103.23 15.7956C102.608 15.7956 102.241 16.0522 102.241 16.48V16.4956C102.241 16.8922 102.6 17.1178 103.063 17.1178Z" fill="#3366B0"/>
<path d="M106.26 17.2889V14.0378C106.26 13.7733 106.468 13.5633 106.739 13.5633C107.01 13.5633 107.226 13.7733 107.226 14.0378V14.4578C107.449 13.9444 107.864 13.5556 108.286 13.5556C108.59 13.5556 108.765 13.75 108.765 14.0222C108.765 14.2711 108.598 14.4344 108.382 14.4733C107.696 14.59 107.226 15.1033 107.226 16.0756V17.2889C107.226 17.5456 107.01 17.7556 106.739 17.7556C106.476 17.7556 106.26 17.5533 106.26 17.2889Z" fill="#3366B0"/>
<path d="M109.555 17.2889V12.4667C109.555 12.21 109.763 12 110.034 12C110.305 12 110.521 12.21 110.521 12.4667V15.5L112.331 13.7656C112.459 13.6411 112.578 13.5633 112.746 13.5633C113.001 13.5633 113.169 13.7656 113.169 13.9911C113.169 14.1467 113.089 14.2633 112.953 14.3878L111.837 15.3911L113.113 17.0167C113.201 17.1333 113.24 17.2189 113.24 17.3278C113.24 17.5844 113.033 17.7556 112.786 17.7556C112.594 17.7556 112.483 17.6933 112.363 17.5456L111.159 15.9822L110.521 16.5733V17.2889C110.521 17.5533 110.305 17.7556 110.034 17.7556C109.771 17.7556 109.555 17.5533 109.555 17.2889Z" fill="#3366B0"/>
<path d="M114.791 15.3756H116.953C116.889 14.7689 116.522 14.2944 115.884 14.2944C115.294 14.2944 114.879 14.7378 114.791 15.3756ZM117.511 17.2656C117.128 17.6 116.65 17.81 115.996 17.81C114.775 17.81 113.834 16.9467 113.834 15.6789V15.6633C113.834 14.4889 114.688 13.5244 115.892 13.5244C117.232 13.5244 117.894 14.5978 117.894 15.5467C117.894 15.8111 117.687 15.9978 117.439 15.9978H114.799C114.903 16.6667 115.39 17.04 116.012 17.04C116.418 17.04 116.738 16.9 117.009 16.6822C117.08 16.6278 117.144 16.5967 117.256 16.5967C117.471 16.5967 117.639 16.76 117.639 16.9778C117.639 17.0944 117.583 17.1956 117.511 17.2656Z" fill="#3366B0"/>
<path d="M120.291 17.7867C119.581 17.7867 119.079 17.4833 119.079 16.5811V14.4189H118.919C118.688 14.4189 118.504 14.24 118.504 14.0144C118.504 13.7889 118.688 13.61 118.919 13.61H119.079V12.91C119.079 12.6533 119.294 12.4433 119.565 12.4433C119.828 12.4433 120.044 12.6533 120.044 12.91V13.61H120.802C121.033 13.61 121.224 13.7889 121.224 14.0144C121.224 14.24 121.033 14.4189 120.802 14.4189H120.044V16.4333C120.044 16.7989 120.235 16.9467 120.562 16.9467C120.674 16.9467 120.77 16.9233 120.802 16.9233C121.017 16.9233 121.208 17.0944 121.208 17.3122C121.208 17.4833 121.089 17.6233 120.953 17.6778C120.746 17.7478 120.546 17.7867 120.291 17.7867Z" fill="#3366B0"/>
<path d="M122.143 12.5522V12.5056C122.143 12.2256 122.382 12.0467 122.693 12.0467C123.004 12.0467 123.243 12.2256 123.243 12.5056V12.5522C123.243 12.8322 123.004 13.0189 122.693 13.0189C122.382 13.0189 122.143 12.8322 122.143 12.5522ZM122.214 17.2889V14.0378C122.214 13.7733 122.422 13.5633 122.693 13.5633C122.964 13.5633 123.18 13.7733 123.18 14.0378V17.2889C123.18 17.5533 122.964 17.7556 122.693 17.7556C122.43 17.7556 122.214 17.5533 122.214 17.2889Z" fill="#3366B0"/>
<path d="M124.441 17.2889V14.0378C124.441 13.7733 124.648 13.5633 124.919 13.5633C125.191 13.5633 125.406 13.7733 125.406 14.0378V14.24C125.677 13.8589 126.068 13.5244 126.722 13.5244C127.671 13.5244 128.222 14.1467 128.222 15.0956V17.2889C128.222 17.5533 128.014 17.7556 127.743 17.7556C127.472 17.7556 127.257 17.5533 127.257 17.2889V15.3833C127.257 14.7456 126.93 14.38 126.355 14.38C125.797 14.38 125.406 14.7611 125.406 15.3989V17.2889C125.406 17.5533 125.191 17.7556 124.919 17.7556C124.656 17.7556 124.441 17.5533 124.441 17.2889Z" fill="#3366B0"/>
<path d="M131.262 18.9767C130.671 18.9767 130.145 18.8522 129.634 18.6111C129.467 18.5489 129.363 18.4167 129.363 18.2378C129.363 18.0278 129.547 17.8489 129.77 17.8489C129.842 17.8489 129.898 17.8644 129.946 17.8878C130.328 18.0978 130.751 18.2144 131.238 18.2144C132.099 18.2144 132.57 17.7789 132.57 16.9544V16.6356C132.219 17.0789 131.78 17.39 131.086 17.39C130.097 17.39 129.172 16.6744 129.172 15.4689V15.4533C129.172 14.24 130.105 13.5244 131.086 13.5244C131.796 13.5244 132.235 13.8433 132.562 14.2244V14.03C132.562 13.7733 132.777 13.5633 133.04 13.5633C133.312 13.5633 133.527 13.7733 133.527 14.0378V16.8767C133.527 17.5689 133.343 18.0822 132.992 18.4244C132.61 18.7978 132.019 18.9767 131.262 18.9767ZM131.341 16.5889C132.011 16.5889 132.578 16.13 132.578 15.4611V15.4456C132.578 14.7767 132.011 14.3178 131.341 14.3178C130.671 14.3178 130.145 14.7689 130.145 15.4456V15.4611C130.145 16.13 130.679 16.5889 131.341 16.5889Z" fill="#3366B0"/>
<path d="M137.13 18.5333V14.0378C137.13 13.7733 137.337 13.5633 137.608 13.5633C137.88 13.5633 138.095 13.7733 138.095 14.0378V14.2944C138.406 13.8667 138.845 13.5244 139.531 13.5244C140.52 13.5244 141.485 14.2867 141.485 15.6556V15.6711C141.485 17.0322 140.528 17.8022 139.531 17.8022C138.829 17.8022 138.39 17.46 138.095 17.0789V18.5333C138.095 18.7978 137.88 19 137.608 19C137.345 19 137.13 18.7978 137.13 18.5333ZM139.299 16.9856C139.961 16.9856 140.504 16.48 140.504 15.6711V15.6556C140.504 14.8622 139.953 14.3411 139.299 14.3411C138.645 14.3411 138.071 14.87 138.071 15.6556V15.6711C138.071 16.4567 138.645 16.9856 139.299 16.9856Z" fill="#3366B0"/>
<path d="M144.483 17.81C143.199 17.81 142.25 16.8533 142.25 15.6867V15.6711C142.25 14.4967 143.207 13.5244 144.499 13.5244C145.791 13.5244 146.74 14.4811 146.74 15.6556V15.6711C146.74 16.8378 145.783 17.81 144.483 17.81ZM144.499 16.9856C145.281 16.9856 145.775 16.3944 145.775 15.6867V15.6711C145.775 14.9478 145.241 14.3489 144.483 14.3489C143.709 14.3489 143.215 14.94 143.215 15.6556V15.6711C143.215 16.3867 143.749 16.9856 144.499 16.9856Z" fill="#3366B0"/>
<path d="M147.723 17.2889V14.0378C147.723 13.7733 147.931 13.5633 148.202 13.5633C148.473 13.5633 148.689 13.7733 148.689 14.0378V14.4578C148.912 13.9444 149.327 13.5556 149.749 13.5556C150.052 13.5556 150.228 13.75 150.228 14.0222C150.228 14.2711 150.06 14.4344 149.845 14.4733C149.159 14.59 148.689 15.1033 148.689 16.0756V17.2889C148.689 17.5456 148.473 17.7556 148.202 17.7556C147.939 17.7556 147.723 17.5533 147.723 17.2889Z" fill="#3366B0"/>
<path d="M152.43 17.7867C151.72 17.7867 151.218 17.4833 151.218 16.5811V14.4189H151.058C150.827 14.4189 150.643 14.24 150.643 14.0144C150.643 13.7889 150.827 13.61 151.058 13.61H151.218V12.91C151.218 12.6533 151.433 12.4433 151.704 12.4433C151.967 12.4433 152.183 12.6533 152.183 12.91V13.61H152.941C153.172 13.61 153.363 13.7889 153.363 14.0144C153.363 14.24 153.172 14.4189 152.941 14.4189H152.183V16.4333C152.183 16.7989 152.374 16.9467 152.701 16.9467C152.813 16.9467 152.909 16.9233 152.941 16.9233C153.156 16.9233 153.347 17.0944 153.347 17.3122C153.347 17.4833 153.228 17.6233 153.092 17.6778C152.885 17.7478 152.685 17.7867 152.43 17.7867Z" fill="#3366B0"/>
<path d="M155.51 17.8022C154.72 17.8022 154.018 17.3589 154.018 16.5344V16.5189C154.018 15.6322 154.728 15.1967 155.757 15.1967C156.228 15.1967 156.563 15.2667 156.89 15.3678V15.2667C156.89 14.6833 156.523 14.3722 155.845 14.3722C155.478 14.3722 155.175 14.4344 154.912 14.5356C154.856 14.5511 154.808 14.5589 154.76 14.5589C154.537 14.5589 154.353 14.3878 154.353 14.17C154.353 13.9989 154.473 13.8511 154.617 13.7967C155.015 13.6489 155.422 13.5556 155.973 13.5556C156.603 13.5556 157.073 13.7189 157.368 14.0144C157.68 14.31 157.823 14.7456 157.823 15.2822V17.3044C157.823 17.5611 157.616 17.7556 157.353 17.7556C157.073 17.7556 156.882 17.5689 156.882 17.3589V17.2033C156.595 17.5378 156.156 17.8022 155.51 17.8022ZM155.781 17.1178C156.419 17.1178 156.906 16.76 156.906 16.2389V15.9589C156.659 15.8656 156.332 15.7956 155.949 15.7956C155.327 15.7956 154.96 16.0522 154.96 16.48V16.4956C154.96 16.8922 155.319 17.1178 155.781 17.1178Z" fill="#3366B0"/>
<path d="M159.035 17.2889V12.4667C159.035 12.21 159.242 12 159.513 12C159.785 12 160 12.21 160 12.4667V17.2889C160 17.5533 159.785 17.7556 159.513 17.7556C159.25 17.7556 159.035 17.5533 159.035 17.2889Z" fill="#3366B0"/>
</svg>
