<svg width="222" height="20" viewBox="0 0 222 20" fill="none" xmlns="http://www.w3.org/2000/svg">
<path d="M30.5819 1.87375C30.5845 1.45934 30.7527 1.06275 31.05 0.7706C31.3472 0.478447 31.7493 0.314465 32.1684 0.314465C32.5875 0.314465 32.9896 0.478447 33.2869 0.7706C33.5841 1.06275 33.7524 1.45934 33.7549 1.87375V16.8719C33.7524 17.2863 33.5841 17.6829 33.2869 17.9751C32.9896 18.2672 32.5875 18.4312 32.1684 18.4312C31.7493 18.4312 31.3472 18.2672 31.05 17.9751C30.7527 17.6829 30.5845 17.2863 30.5819 16.8719V1.87375Z" fill="#E4002B"/>
<path d="M73.4579 16.2597L80.165 1.46578C80.3185 1.08424 80.5858 0.757895 80.9313 0.530079C81.2768 0.302263 81.6842 0.183752 82.0994 0.190283C82.5248 0.182554 82.9429 0.299575 83.3011 0.526577C83.6592 0.75358 83.9413 1.08039 84.1118 1.46578L90.8191 16.2597C90.9243 16.4663 90.9858 16.692 90.9996 16.9229C91.0043 17.1197 90.969 17.3154 90.8958 17.4984C90.8226 17.6814 90.713 17.848 90.5735 17.9884C90.434 18.1287 90.2674 18.2399 90.0836 18.3154C89.8998 18.391 89.7025 18.4292 89.5035 18.4279C89.164 18.4199 88.8348 18.3109 88.5587 18.1153C88.2827 17.9197 88.0726 17.6465 87.9557 17.3311L86.4852 13.9896H77.7145L76.1924 17.4331C76.0779 17.7266 75.8761 17.9788 75.6135 18.1564C75.351 18.334 75.0402 18.4287 74.7221 18.4279C74.5283 18.4302 74.3361 18.3941 74.1567 18.3218C73.9773 18.2495 73.8143 18.1425 73.6773 18.0071C73.5403 17.8716 73.432 17.7104 73.3589 17.533C73.2858 17.3556 73.2493 17.1655 73.2516 16.974C73.2663 16.7238 73.3368 16.4799 73.4579 16.2597ZM85.2728 11.2096L82.0999 3.99112L78.9269 11.2096H85.2728Z" fill="#E4002B"/>
<path d="M19.776 17.3411L17.3043 14.8971C18.6913 12.9706 19.2955 10.5991 18.9972 8.25282C18.6989 5.90651 17.5198 3.75669 15.6937 2.2296C13.8677 0.702513 11.528 -0.0903537 9.13844 0.00819843C6.74892 0.106751 4.4841 1.08953 2.79299 2.76168C1.10188 4.43383 0.107961 6.67326 0.00829139 9.03599C-0.0913781 11.3987 0.710478 13.7122 2.25488 15.5178C3.79929 17.3234 5.97348 18.4893 8.34639 18.7842C10.7193 19.0792 13.1177 18.4818 15.066 17.1103L17.5377 19.5543C17.8357 19.8422 18.2364 20.0023 18.6531 20C19.0697 19.9976 19.4686 19.8329 19.7632 19.5416C20.0578 19.2503 20.2243 18.8559 20.2267 18.4439C20.2291 18.032 20.0672 17.6357 19.776 17.3411ZM3.19608 9.44397C3.19608 8.20118 3.56879 6.98629 4.26708 5.95295C4.96537 4.9196 5.95788 4.11421 7.11909 3.63862C8.2803 3.16302 9.55806 3.03859 10.7908 3.28105C12.0235 3.52351 13.1559 4.12198 14.0446 5.00077C14.9334 5.87956 15.5386 6.99921 15.7838 8.21812C16.029 9.43704 15.9031 10.7005 15.4221 11.8487C14.9411 12.9969 14.1266 13.9782 13.0815 14.6687C12.0365 15.3591 10.8078 15.7276 9.55093 15.7276C7.8661 15.7257 6.25082 15.0631 5.05947 13.8851C3.86812 12.7071 3.19798 11.1099 3.19608 9.44397Z" fill="#E4002B"/>
<path d="M45.8347 1.92476C45.8347 0.21843 48.2571 -0.324376 49.2398 1.1851L54.7086 9.65343L60.2032 1.15933C61.0763 -0.325794 63.5827 0.211109 63.5827 1.92454V16.8717C63.5833 17.0784 63.5421 17.2831 63.4616 17.4738C63.3811 17.6645 63.2629 17.8374 63.1139 17.9824C62.9649 18.1273 62.7882 18.2413 62.594 18.3178C62.3998 18.3943 62.1922 18.4317 61.9832 18.4277C61.5731 18.4197 61.1829 18.2515 60.8978 17.96C60.6127 17.6685 60.4558 17.2772 60.4614 16.8717V6.20354C60.4614 6.20354 56.7238 11.7152 56.0255 12.7143C55.8922 12.9436 55.7002 13.1341 55.4687 13.2665C55.2373 13.399 54.9746 13.4687 54.7072 13.4687C54.4397 13.4687 54.1771 13.399 53.9456 13.2665C53.7142 13.1341 53.5221 12.9436 53.3889 12.7143L48.9562 6.21001V16.8976C48.957 17.101 48.9167 17.3025 48.8376 17.4902C48.7585 17.6779 48.6422 17.8481 48.4956 17.9908C48.3489 18.1334 48.1749 18.2455 47.9837 18.3207C47.7926 18.3958 47.5882 18.4323 47.3825 18.4281C47.1782 18.4318 46.9753 18.3948 46.7858 18.3192C46.5963 18.2436 46.4242 18.131 46.2797 17.9881C46.1352 17.8453 46.0214 17.6751 45.9449 17.4877C45.8684 17.3004 45.831 17.0997 45.8347 16.8977V1.92476Z" fill="#E4002B"/>
<path d="M96.491 17.8022C95.7016 17.8022 95 17.3589 95 16.5344V16.5189C95 15.6322 95.7096 15.1967 96.7381 15.1967C97.2085 15.1967 97.5434 15.2667 97.8703 15.3678V15.2667C97.8703 14.6833 97.5035 14.3722 96.8258 14.3722C96.4591 14.3722 96.1561 14.4344 95.893 14.5356C95.8372 14.5511 95.7893 14.5589 95.7415 14.5589C95.5182 14.5589 95.3349 14.3878 95.3349 14.17C95.3349 13.9989 95.4545 13.8511 95.598 13.7967C95.9966 13.6489 96.4032 13.5556 96.9534 13.5556C97.5833 13.5556 98.0537 13.7189 98.3487 14.0144C98.6596 14.31 98.8031 14.7456 98.8031 15.2822V17.3044C98.8031 17.5611 98.5958 17.7556 98.3327 17.7556C98.0537 17.7556 97.8623 17.5689 97.8623 17.3589V17.2033C97.5753 17.5378 97.1368 17.8022 96.491 17.8022ZM96.762 17.1178C97.3999 17.1178 97.8862 16.76 97.8862 16.2389V15.9589C97.6391 15.8656 97.3122 15.7956 96.9295 15.7956C96.3076 15.7956 95.9408 16.0522 95.9408 16.48V16.4956C95.9408 16.8922 96.2996 17.1178 96.762 17.1178Z" fill="#3366B0"/>
<path d="M103.698 14.0378V17.2889C103.698 17.5456 103.483 17.7556 103.211 17.7556C102.948 17.7556 102.725 17.5533 102.725 17.2889V17.0789C102.454 17.4678 102.063 17.8022 101.41 17.8022C100.461 17.8022 99.9107 17.18 99.9107 16.2233V14.0378C99.9107 13.7733 100.126 13.5633 100.389 13.5633C100.66 13.5633 100.875 13.7733 100.875 14.0378V15.9433C100.875 16.5811 101.202 16.9389 101.776 16.9389C102.334 16.9389 102.725 16.5656 102.725 15.9278V14.0378C102.725 13.7733 102.94 13.5633 103.211 13.5633C103.475 13.5633 103.698 13.7733 103.698 14.0378Z" fill="#3366B0"/>
<path d="M109.041 12.4667V17.2889C109.041 17.5533 108.825 17.7556 108.562 17.7556C108.291 17.7556 108.076 17.5533 108.076 17.2889V17.0322C107.765 17.46 107.326 17.8022 106.641 17.8022C105.652 17.8022 104.687 17.0322 104.687 15.6711V15.6556C104.687 14.2944 105.636 13.5244 106.641 13.5244C107.334 13.5244 107.773 13.8589 108.076 14.2478V12.4667C108.076 12.2022 108.291 12 108.554 12C108.825 12 109.041 12.2022 109.041 12.4667ZM106.872 14.3411C106.21 14.3411 105.66 14.8389 105.66 15.6556V15.6711C105.66 16.4644 106.218 16.9856 106.872 16.9856C107.518 16.9856 108.092 16.4567 108.092 15.6711V15.6556C108.092 14.8622 107.518 14.3411 106.872 14.3411Z" fill="#3366B0"/>
<path d="M110.236 12.5522V12.5056C110.236 12.2256 110.475 12.0467 110.786 12.0467C111.097 12.0467 111.336 12.2256 111.336 12.5056V12.5522C111.336 12.8322 111.097 13.0189 110.786 13.0189C110.475 13.0189 110.236 12.8322 110.236 12.5522ZM110.308 17.2889V14.0378C110.308 13.7733 110.515 13.5633 110.786 13.5633C111.057 13.5633 111.272 13.7733 111.272 14.0378V17.2889C111.272 17.5533 111.057 17.7556 110.786 17.7556C110.523 17.7556 110.308 17.5533 110.308 17.2889Z" fill="#3366B0"/>
<path d="M113.944 17.7867C113.235 17.7867 112.732 17.4833 112.732 16.5811V14.4189H112.573C112.342 14.4189 112.158 14.24 112.158 14.0144C112.158 13.7889 112.342 13.61 112.573 13.61H112.732V12.91C112.732 12.6533 112.948 12.4433 113.219 12.4433C113.482 12.4433 113.697 12.6533 113.697 12.91V13.61H114.455C114.686 13.61 114.877 13.7889 114.877 14.0144C114.877 14.24 114.686 14.4189 114.455 14.4189H113.697V16.4333C113.697 16.7989 113.889 16.9467 114.215 16.9467C114.327 16.9467 114.423 16.9233 114.455 16.9233C114.67 16.9233 114.861 17.0944 114.861 17.3122C114.861 17.4833 114.742 17.6233 114.606 17.6778C114.399 17.7478 114.199 17.7867 113.944 17.7867Z" fill="#3366B0"/>
<path d="M117.696 17.81C116.412 17.81 115.463 16.8533 115.463 15.6867V15.6711C115.463 14.4967 116.42 13.5244 117.711 13.5244C119.003 13.5244 119.952 14.4811 119.952 15.6556V15.6711C119.952 16.8378 118.995 17.81 117.696 17.81ZM117.711 16.9856C118.493 16.9856 118.987 16.3944 118.987 15.6867V15.6711C118.987 14.9478 118.453 14.3489 117.696 14.3489C116.922 14.3489 116.428 14.94 116.428 15.6556V15.6711C116.428 16.3867 116.962 16.9856 117.711 16.9856Z" fill="#3366B0"/>
<path d="M120.934 17.2889V14.0378C120.934 13.7733 121.142 13.5633 121.413 13.5633C121.684 13.5633 121.899 13.7733 121.899 14.0378V14.4578C122.122 13.9444 122.537 13.5556 122.959 13.5556C123.262 13.5556 123.438 13.75 123.438 14.0222C123.438 14.2711 123.27 14.4344 123.055 14.4733C122.369 14.59 121.899 15.1033 121.899 16.0756V17.2889C121.899 17.5456 121.684 17.7556 121.413 17.7556C121.15 17.7556 120.934 17.5533 120.934 17.2889Z" fill="#3366B0"/>
<path d="M127.83 17.8022C127.041 17.8022 126.339 17.3589 126.339 16.5344V16.5189C126.339 15.6322 127.049 15.1967 128.077 15.1967C128.548 15.1967 128.883 15.2667 129.209 15.3678V15.2667C129.209 14.6833 128.843 14.3722 128.165 14.3722C127.798 14.3722 127.495 14.4344 127.232 14.5356C127.176 14.5511 127.128 14.5589 127.081 14.5589C126.857 14.5589 126.674 14.3878 126.674 14.17C126.674 13.9989 126.794 13.8511 126.937 13.7967C127.336 13.6489 127.742 13.5556 128.293 13.5556C128.922 13.5556 129.393 13.7189 129.688 14.0144C129.999 14.31 130.142 14.7456 130.142 15.2822V17.3044C130.142 17.5611 129.935 17.7556 129.672 17.7556C129.393 17.7556 129.201 17.5689 129.201 17.3589V17.2033C128.914 17.5378 128.476 17.8022 127.83 17.8022ZM128.101 17.1178C128.739 17.1178 129.225 16.76 129.225 16.2389V15.9589C128.978 15.8656 128.651 15.7956 128.269 15.7956C127.647 15.7956 127.28 16.0522 127.28 16.48V16.4956C127.28 16.8922 127.639 17.1178 128.101 17.1178Z" fill="#3366B0"/>
<path d="M131.298 18.5333V14.0378C131.298 13.7733 131.505 13.5633 131.776 13.5633C132.047 13.5633 132.262 13.7733 132.262 14.0378V14.2944C132.573 13.8667 133.012 13.5244 133.698 13.5244C134.686 13.5244 135.651 14.2867 135.651 15.6556V15.6711C135.651 17.0322 134.694 17.8022 133.698 17.8022C132.996 17.8022 132.557 17.46 132.262 17.0789V18.5333C132.262 18.7978 132.047 19 131.776 19C131.513 19 131.298 18.7978 131.298 18.5333ZM133.466 16.9856C134.128 16.9856 134.67 16.48 134.67 15.6711V15.6556C134.67 14.8622 134.12 14.3411 133.466 14.3411C132.813 14.3411 132.238 14.87 132.238 15.6556V15.6711C132.238 16.4567 132.813 16.9856 133.466 16.9856Z" fill="#3366B0"/>
<path d="M136.647 18.5333V14.0378C136.647 13.7733 136.854 13.5633 137.125 13.5633C137.396 13.5633 137.611 13.7733 137.611 14.0378V14.2944C137.922 13.8667 138.361 13.5244 139.047 13.5244C140.035 13.5244 141 14.2867 141 15.6556V15.6711C141 17.0322 140.043 17.8022 139.047 17.8022C138.345 17.8022 137.906 17.46 137.611 17.0789V18.5333C137.611 18.7978 137.396 19 137.125 19C136.862 19 136.647 18.7978 136.647 18.5333ZM138.815 16.9856C139.477 16.9856 140.019 16.48 140.019 15.6711V15.6556C140.019 14.8622 139.469 14.3411 138.815 14.3411C138.162 14.3411 137.588 14.87 137.588 15.6556V15.6711C137.588 16.4567 138.162 16.9856 138.815 16.9856Z" fill="#3366B0"/>
</svg>
