<svg width="222" height="20" viewBox="0 0 222 20" fill="none" xmlns="http://www.w3.org/2000/svg">
<path d="M30.5819 1.87375C30.5845 1.45934 30.7527 1.06275 31.05 0.7706C31.3472 0.478447 31.7493 0.314465 32.1684 0.314465C32.5875 0.314465 32.9896 0.478447 33.2869 0.7706C33.5841 1.06275 33.7524 1.45934 33.7549 1.87375V16.8719C33.7524 17.2863 33.5841 17.6829 33.2869 17.9751C32.9896 18.2672 32.5875 18.4312 32.1684 18.4312C31.7493 18.4312 31.3472 18.2672 31.05 17.9751C30.7527 17.6829 30.5845 17.2863 30.5819 16.8719V1.87375Z" fill="#E4002B"/>
<path d="M73.4579 16.2597L80.165 1.46578C80.3185 1.08424 80.5858 0.757895 80.9313 0.530079C81.2768 0.302263 81.6842 0.183752 82.0994 0.190283C82.5248 0.182554 82.9429 0.299575 83.3011 0.526577C83.6592 0.75358 83.9413 1.08039 84.1118 1.46578L90.8191 16.2597C90.9243 16.4663 90.9858 16.692 90.9996 16.9229C91.0043 17.1197 90.969 17.3154 90.8958 17.4984C90.8226 17.6814 90.713 17.848 90.5735 17.9884C90.434 18.1287 90.2674 18.2399 90.0836 18.3154C89.8998 18.391 89.7025 18.4292 89.5035 18.4279C89.164 18.4199 88.8348 18.3109 88.5587 18.1153C88.2827 17.9197 88.0726 17.6465 87.9557 17.3311L86.4852 13.9896H77.7145L76.1924 17.4331C76.0779 17.7266 75.8761 17.9788 75.6135 18.1564C75.351 18.334 75.0402 18.4287 74.7221 18.4279C74.5283 18.4302 74.3361 18.3941 74.1567 18.3218C73.9773 18.2495 73.8143 18.1425 73.6773 18.0071C73.5403 17.8716 73.432 17.7104 73.3589 17.533C73.2858 17.3556 73.2493 17.1655 73.2516 16.974C73.2663 16.7238 73.3368 16.4799 73.4579 16.2597ZM85.2728 11.2096L82.0999 3.99112L78.9269 11.2096H85.2728Z" fill="#E4002B"/>
<path d="M19.776 17.3411L17.3043 14.8971C18.6913 12.9706 19.2955 10.5991 18.9972 8.25282C18.6989 5.90651 17.5198 3.75669 15.6937 2.2296C13.8677 0.702513 11.528 -0.0903537 9.13844 0.00819843C6.74892 0.106751 4.4841 1.08953 2.79299 2.76168C1.10188 4.43383 0.107961 6.67326 0.00829139 9.03599C-0.0913781 11.3987 0.710478 13.7122 2.25488 15.5178C3.79929 17.3234 5.97348 18.4893 8.34639 18.7842C10.7193 19.0792 13.1177 18.4818 15.066 17.1103L17.5377 19.5543C17.8357 19.8422 18.2364 20.0023 18.6531 20C19.0697 19.9976 19.4686 19.8329 19.7632 19.5416C20.0578 19.2503 20.2243 18.8559 20.2267 18.4439C20.2291 18.032 20.0672 17.6357 19.776 17.3411ZM3.19608 9.44397C3.19608 8.20118 3.56879 6.98629 4.26708 5.95295C4.96537 4.9196 5.95788 4.11421 7.11909 3.63862C8.2803 3.16302 9.55806 3.03859 10.7908 3.28105C12.0235 3.52351 13.1559 4.12198 14.0446 5.00077C14.9334 5.87956 15.5386 6.99921 15.7838 8.21812C16.029 9.43704 15.9031 10.7005 15.4221 11.8487C14.9411 12.9969 14.1266 13.9782 13.0815 14.6687C12.0365 15.3591 10.8078 15.7276 9.55093 15.7276C7.8661 15.7257 6.25082 15.0631 5.05947 13.8851C3.86812 12.7071 3.19798 11.1099 3.19608 9.44397Z" fill="#E4002B"/>
<path d="M45.8347 1.92476C45.8347 0.21843 48.2571 -0.324376 49.2398 1.1851L54.7086 9.65343L60.2032 1.15933C61.0763 -0.325794 63.5827 0.211109 63.5827 1.92454V16.8717C63.5833 17.0784 63.5421 17.2831 63.4616 17.4738C63.3811 17.6645 63.2629 17.8374 63.1139 17.9824C62.9649 18.1273 62.7882 18.2413 62.594 18.3178C62.3998 18.3943 62.1922 18.4317 61.9832 18.4277C61.5731 18.4197 61.1829 18.2515 60.8978 17.96C60.6127 17.6685 60.4558 17.2772 60.4614 16.8717V6.20354C60.4614 6.20354 56.7238 11.7152 56.0255 12.7143C55.8922 12.9436 55.7002 13.1341 55.4687 13.2665C55.2373 13.399 54.9746 13.4687 54.7072 13.4687C54.4397 13.4687 54.1771 13.399 53.9456 13.2665C53.7142 13.1341 53.5221 12.9436 53.3889 12.7143L48.9562 6.21001V16.8976C48.957 17.101 48.9167 17.3025 48.8376 17.4902C48.7585 17.6779 48.6422 17.8481 48.4956 17.9908C48.3489 18.1334 48.1749 18.2455 47.9837 18.3207C47.7926 18.3958 47.5882 18.4323 47.3825 18.4281C47.1782 18.4318 46.9753 18.3948 46.7858 18.3192C46.5963 18.2436 46.4242 18.131 46.2797 17.9881C46.1352 17.8453 46.0214 17.6751 45.9449 17.4877C45.8684 17.3004 45.831 17.0997 45.8347 16.8977V1.92476Z" fill="#E4002B"/>
<path d="M96.5064 17.8151C95.7089 17.8151 95 17.3708 95 16.5445V16.529C95 15.6403 95.717 15.2038 96.7561 15.2038C97.2314 15.2038 97.5697 15.2739 97.9 15.3753V15.2739C97.9 14.6893 97.5295 14.3775 96.8447 14.3775C96.4742 14.3775 96.1681 14.4399 95.9022 14.5412C95.8458 14.5568 95.7975 14.5646 95.7492 14.5646C95.5236 14.5646 95.3383 14.3931 95.3383 14.1748C95.3383 14.0033 95.4592 13.8552 95.6042 13.8007C96.007 13.6526 96.4178 13.559 96.9736 13.559C97.61 13.559 98.0853 13.7227 98.3834 14.0189C98.6975 14.3151 98.8425 14.7517 98.8425 15.2895V17.3163C98.8425 17.5735 98.6331 17.7684 98.3673 17.7684C98.0853 17.7684 97.892 17.5813 97.892 17.3708V17.2149C97.602 17.5501 97.1589 17.8151 96.5064 17.8151ZM96.7803 17.1292C97.4248 17.1292 97.9161 16.7706 97.9161 16.2483V15.9677C97.6664 15.8742 97.3361 15.804 96.9495 15.804C96.3211 15.804 95.9506 16.0612 95.9506 16.49V16.5056C95.9506 16.9031 96.3131 17.1292 96.7803 17.1292Z" fill="#3366B0"/>
<path d="M101.976 17.8229C100.711 17.8229 99.7763 16.8641 99.7763 15.6949V15.6793C99.7763 14.51 100.711 13.5278 101.992 13.5278C102.66 13.5278 103.119 13.7383 103.482 14.0423C103.546 14.0969 103.635 14.2138 103.635 14.3697C103.635 14.6114 103.434 14.7984 103.184 14.7984C103.063 14.7984 102.958 14.7517 102.894 14.7049C102.644 14.5022 102.37 14.3541 101.984 14.3541C101.275 14.3541 100.751 14.9465 100.751 15.6637V15.6793C100.751 16.412 101.275 16.9967 102.024 16.9967C102.411 16.9967 102.709 16.8486 102.974 16.6303C103.031 16.5835 103.127 16.529 103.24 16.529C103.474 16.529 103.659 16.716 103.659 16.9421C103.659 17.0668 103.611 17.1682 103.522 17.2383C103.144 17.5891 102.684 17.8229 101.976 17.8229Z" fill="#3366B0"/>
<path d="M105.836 17.8151C105.039 17.8151 104.33 17.3708 104.33 16.5445V16.529C104.33 15.6403 105.047 15.2038 106.086 15.2038C106.561 15.2038 106.9 15.2739 107.23 15.3753V15.2739C107.23 14.6893 106.86 14.3775 106.175 14.3775C105.804 14.3775 105.498 14.4399 105.232 14.5412C105.176 14.5568 105.128 14.5646 105.079 14.5646C104.854 14.5646 104.668 14.3931 104.668 14.1748C104.668 14.0033 104.789 13.8552 104.934 13.8007C105.337 13.6526 105.748 13.559 106.304 13.559C106.94 13.559 107.415 13.7227 107.713 14.0189C108.028 14.3151 108.173 14.7517 108.173 15.2895V17.3163C108.173 17.5735 107.963 17.7684 107.697 17.7684C107.415 17.7684 107.222 17.5813 107.222 17.3708V17.2149C106.932 17.5501 106.489 17.8151 105.836 17.8151ZM106.11 17.1292C106.755 17.1292 107.246 16.7706 107.246 16.2483V15.9677C106.996 15.8742 106.666 15.804 106.28 15.804C105.651 15.804 105.281 16.0612 105.281 16.49V16.5056C105.281 16.9031 105.643 17.1292 106.11 17.1292Z" fill="#3366B0"/>
<path d="M113.521 12.4677V17.3007C113.521 17.5657 113.303 17.7684 113.038 17.7684C112.764 17.7684 112.546 17.5657 112.546 17.3007V17.0434C112.232 17.4722 111.789 17.8151 111.096 17.8151C110.097 17.8151 109.122 17.0434 109.122 15.6793V15.6637C109.122 14.2996 110.081 13.5278 111.096 13.5278C111.797 13.5278 112.24 13.863 112.546 14.2528V12.4677C112.546 12.2027 112.764 12 113.029 12C113.303 12 113.521 12.2027 113.521 12.4677ZM111.33 14.3463C110.661 14.3463 110.105 14.8452 110.105 15.6637V15.6793C110.105 16.4744 110.669 16.9967 111.33 16.9967C111.982 16.9967 112.562 16.4666 112.562 15.6793V15.6637C112.562 14.8686 111.982 14.3463 111.33 14.3463Z" fill="#3366B0"/>
<path d="M115.478 15.3831H117.661C117.596 14.7751 117.226 14.2996 116.581 14.2996C115.985 14.2996 115.566 14.7439 115.478 15.3831ZM118.225 17.2773C117.838 17.6125 117.355 17.8229 116.694 17.8229C115.461 17.8229 114.511 16.9577 114.511 15.6871V15.6715C114.511 14.4944 115.373 13.5278 116.589 13.5278C117.943 13.5278 118.611 14.6036 118.611 15.5546C118.611 15.8196 118.402 16.0067 118.152 16.0067H115.486C115.59 16.6771 116.082 17.0512 116.71 17.0512C117.121 17.0512 117.443 16.9109 117.717 16.6926C117.79 16.6381 117.854 16.6069 117.967 16.6069C118.184 16.6069 118.353 16.7706 118.353 16.9889C118.353 17.1058 118.297 17.2071 118.225 17.2773Z" fill="#3366B0"/>
<path d="M119.606 17.3007V14.0423C119.606 13.7773 119.816 13.5668 120.09 13.5668C120.363 13.5668 120.581 13.7773 120.581 14.0423V14.2372C120.855 13.8708 121.225 13.5278 121.878 13.5278C122.49 13.5278 122.925 13.8163 123.151 14.2528C123.489 13.8163 123.94 13.5278 124.585 13.5278C125.511 13.5278 126.075 14.0969 126.075 15.1025V17.3007C126.075 17.5657 125.865 17.7684 125.592 17.7684C125.318 17.7684 125.1 17.5657 125.1 17.3007V15.3909C125.1 14.7361 124.786 14.3853 124.238 14.3853C123.707 14.3853 123.328 14.7439 123.328 15.4065V17.3007C123.328 17.5657 123.11 17.7684 122.845 17.7684C122.571 17.7684 122.353 17.5657 122.353 17.3007V15.3831C122.353 14.7439 122.031 14.3853 121.491 14.3853C120.952 14.3853 120.581 14.7751 120.581 15.4065V17.3007C120.581 17.5657 120.363 17.7684 120.09 17.7684C119.824 17.7684 119.606 17.5657 119.606 17.3007Z" fill="#3366B0"/>
<path d="M127.971 19C127.697 19 127.496 18.961 127.294 18.8831C127.149 18.8363 126.988 18.7194 126.988 18.4933C126.988 18.2595 127.174 18.1036 127.383 18.1036C127.464 18.1036 127.512 18.1192 127.56 18.1347C127.673 18.1659 127.762 18.1893 127.899 18.1893C128.189 18.1893 128.342 18.0724 128.503 17.7528L128.535 17.667L126.956 14.2528C126.924 14.1826 126.9 14.0891 126.9 14.0267C126.9 13.7617 127.109 13.5668 127.383 13.5668C127.633 13.5668 127.77 13.7071 127.858 13.9254L129.002 16.6615L130.066 13.9254C130.146 13.7305 130.283 13.5668 130.533 13.5668C130.791 13.5668 131 13.7617 131 14.0111C131 14.0891 130.976 14.1904 130.96 14.2372L129.405 17.8463C129.042 18.6882 128.656 19 127.971 19Z" fill="#3366B0"/>
</svg>
