<svg width="222" height="20" viewBox="0 0 222 20" fill="none" xmlns="http://www.w3.org/2000/svg">
<path d="M9.65824 13.5126H10.7765V10.4874H13.5891V9.41178H10.7765V6.38656H9.65824V9.41178H6.87957V10.4874H9.65824V13.5126Z" fill="#E8762D"/>
<path d="M4.47247 17.8824H5.42129V15.1933H7.92887V14.353H5.42129V11.6303H4.47247V14.353H1.96488V15.1933H4.47247V17.8824Z" fill="#C72037"/>
<path d="M15.0124 8.16806H15.9612V5.47897H18.5027V4.67225H15.9612V1.94955H15.0124V4.67225H12.5048V5.47897H15.0124V8.16806Z" fill="#5B879B"/>
<path d="M9.82651 20H10.6398V18.084H12.368V17.3781H10.6398V15.4622H9.82651V17.3781H8.1322V18.084H9.82651V20Z" fill="#5C6692"/>
<path d="M4.50636 8.16806H5.3874V5.44536H7.92887V4.67225H5.3874V1.94955H4.50636V4.67225H1.96488V5.44536H4.50636V8.16806Z" fill="#EB9129"/>
<path d="M17.891 12.2017H18.7042V10.3193H20.4324V9.57985H18.7042V7.69749H17.891V9.57985H16.1966V10.3193H17.891V12.2017Z" fill="#5C6692"/>
<path fill-rule="evenodd" clip-rule="evenodd" d="M15.0124 17.8824H15.9612V15.1933H18.5027V14.353H15.9612V11.6303H15.0124V14.353H12.5048V15.1933H15.0124V17.8824Z" fill="#1F457E"/>
<path d="M12.233 2.42018V1.84875H10.5386V0H9.92869V1.84875H8.23438V2.42018H9.92869V4.26892H10.5386V2.42018H12.233ZM1.69432 12.0673H2.30427V10.2185H3.99859V9.64709H2.30427V7.83196H1.69432V9.64709H0V10.2521L1.69432 10.2185V12.0673Z" fill="#7199A6"/>
<path d="M25.5405 7.45841V6.66667H31.7482V7.45841H29.1455V14.0371H28.1432V7.45841H25.5405Z" fill="#191919"/>
<path d="M34.1478 14.1667C33.7544 14.1667 33.3974 14.1007 33.0768 13.9687C32.7562 13.8344 32.5016 13.6412 32.313 13.3893C32.1244 13.135 32.0301 12.8279 32.0301 12.468C32.0301 12.1513 32.1001 11.8946 32.2402 11.6979C32.3803 11.4987 32.5676 11.3428 32.802 11.23C33.0364 11.1172 33.295 11.0333 33.5779 10.9781C33.8635 10.9205 34.1505 10.8749 34.4387 10.8413C34.8159 10.7981 35.1217 10.7658 35.3561 10.7442C35.5932 10.7202 35.7657 10.6806 35.8735 10.6254C35.9839 10.5702 36.0392 10.4742 36.0392 10.3375V10.3087C36.0392 9.95361 35.93 9.6777 35.7118 9.48097C35.4963 9.28423 35.1689 9.18586 34.7297 9.18586C34.2744 9.18586 33.9174 9.27463 33.6588 9.45218C33.4001 9.62972 33.2182 9.81926 33.1132 10.0208L32.2079 9.73289C32.3695 9.39699 32.5851 9.13548 32.8545 8.94834C33.1266 8.7588 33.423 8.62684 33.7436 8.55246C34.0669 8.47569 34.3849 8.4373 34.6974 8.4373C34.8968 8.4373 35.1258 8.45889 35.3844 8.50208C35.6458 8.54287 35.8977 8.62804 36.1402 8.7576C36.3854 8.88716 36.5888 9.08269 36.7504 9.34421C36.9121 9.60573 36.9929 9.95601 36.9929 10.3951V14.0371H36.0392V13.2885H35.9907C35.926 13.4085 35.8182 13.5369 35.6673 13.6736C35.5165 13.8104 35.3157 13.9267 35.0652 14.0227C34.8146 14.1187 34.5088 14.1667 34.1478 14.1667ZM34.2933 13.4037C34.6705 13.4037 34.9884 13.3377 35.247 13.2058C35.5084 13.0738 35.7051 12.9035 35.8371 12.6947C35.9718 12.486 36.0392 12.2665 36.0392 12.0361V11.2588C35.9987 11.302 35.9098 11.3416 35.7724 11.3776C35.6377 11.4111 35.4814 11.4411 35.3036 11.4675C35.1285 11.4915 34.9574 11.5131 34.7903 11.5323C34.626 11.5491 34.4926 11.5635 34.3903 11.5755C34.1424 11.6043 33.9107 11.6511 33.6951 11.7159C33.4823 11.7782 33.3098 11.873 33.1778 12.0002C33.0485 12.1249 32.9838 12.2953 32.9838 12.5112C32.9838 12.8063 33.1064 13.0294 33.3516 13.1806C33.5995 13.3293 33.9134 13.4037 34.2933 13.4037Z" fill="#191919"/>
<path d="M38.8631 14.0371V6.66667H39.8169V9.3874H39.8977C39.9678 9.29143 40.0647 9.16907 40.1887 9.02031C40.3153 8.86916 40.4958 8.73481 40.7302 8.61724C40.9673 8.49728 41.2879 8.4373 41.6921 8.4373C42.2148 8.4373 42.6755 8.55366 43.0743 8.78639C43.473 9.01911 43.7842 9.34901 44.0078 9.77607C44.2315 10.2031 44.3433 10.707 44.3433 11.2876C44.3433 11.873 44.2315 12.3804 44.0078 12.8099C43.7842 13.237 43.4744 13.5681 43.0783 13.8032C42.6822 14.0359 42.2256 14.1523 41.7083 14.1523C41.3095 14.1523 40.9902 14.0935 40.7504 13.9759C40.5106 13.856 40.3261 13.7204 40.1968 13.5693C40.0674 13.4157 39.9678 13.2885 39.8977 13.1878H39.7845V14.0371H38.8631ZM39.8007 11.2732C39.8007 11.6907 39.8694 12.0589 40.0068 12.378C40.1442 12.6947 40.345 12.9431 40.609 13.123C40.873 13.3005 41.1963 13.3893 41.5789 13.3893C41.9777 13.3893 42.3104 13.2957 42.5772 13.1086C42.8466 12.9191 43.0487 12.6647 43.1834 12.3456C43.3208 12.0242 43.3895 11.6667 43.3895 11.2732C43.3895 10.8845 43.3221 10.5342 43.1874 10.2223C43.0554 9.90803 42.8547 9.65971 42.5852 9.47737C42.3185 9.29263 41.9831 9.20026 41.5789 9.20026C41.191 9.20026 40.8649 9.28783 40.6009 9.46297C40.3369 9.63572 40.1375 9.87804 40.0028 10.1899C39.8681 10.4994 39.8007 10.8605 39.8007 11.2732Z" fill="#191919"/>
<path d="M46.756 6.66667V14.0371H45.8022V6.66667H46.756Z" fill="#191919"/>
<path d="M56.9535 14.1667C56.5602 14.1667 56.2032 14.1007 55.8825 13.9687C55.5619 13.8344 55.3073 13.6412 55.1187 13.3893C54.9301 13.135 54.8358 12.8279 54.8358 12.468C54.8358 12.1513 54.9059 11.8946 55.046 11.6979C55.1861 11.4987 55.3733 11.3428 55.6077 11.23C55.8421 11.1172 56.1008 11.0333 56.3837 10.9781C56.6693 10.9205 56.9562 10.8749 57.2445 10.8413C57.6217 10.7981 57.9275 10.7658 58.1619 10.7442C58.399 10.7202 58.5714 10.6806 58.6792 10.6254C58.7897 10.5702 58.8449 10.4742 58.8449 10.3375V10.3087C58.8449 9.95361 58.7358 9.6777 58.5176 9.48097C58.302 9.28423 57.9747 9.18586 57.5355 9.18586C57.0802 9.18586 56.7232 9.27463 56.4645 9.45218C56.2059 9.62972 56.024 9.81926 55.9189 10.0208L55.0136 9.73289C55.1753 9.39699 55.3908 9.13548 55.6603 8.94834C55.9324 8.7588 56.2288 8.62684 56.5494 8.55246C56.8727 8.47569 57.1906 8.4373 57.5032 8.4373C57.7025 8.4373 57.9315 8.45889 58.1902 8.50208C58.4515 8.54287 58.7035 8.62804 58.9459 8.7576C59.1911 8.88716 59.3945 9.08269 59.5562 9.34421C59.7179 9.60573 59.7987 9.95601 59.7987 10.3951V14.0371H58.8449V13.2885H58.7964C58.7318 13.4085 58.624 13.5369 58.4731 13.6736C58.3222 13.8104 58.1215 13.9267 57.8709 14.0227C57.6204 14.1187 57.3146 14.1667 56.9535 14.1667ZM57.099 13.4037C57.4762 13.4037 57.7941 13.3377 58.0528 13.2058C58.3141 13.0738 58.5108 12.9035 58.6428 12.6947C58.7775 12.486 58.8449 12.2665 58.8449 12.0361V11.2588C58.8045 11.302 58.7156 11.3416 58.5782 11.3776C58.4435 11.4111 58.2872 11.4411 58.1094 11.4675C57.9342 11.4915 57.7632 11.5131 57.5961 11.5323C57.4318 11.5491 57.2984 11.5635 57.196 11.5755C56.9481 11.6043 56.7164 11.6511 56.5009 11.7159C56.288 11.7782 56.1156 11.873 55.9836 12.0002C55.8543 12.1249 55.7896 12.2953 55.7896 12.5112C55.7896 12.8063 55.9122 13.0294 56.1574 13.1806C56.4052 13.3293 56.7191 13.4037 57.099 13.4037Z" fill="#191919"/>
<path d="M65.4516 11.777V8.50928H66.4054V14.0371H65.4516V13.1014H65.387C65.2415 13.3821 65.0152 13.6208 64.708 13.8176C64.4009 14.0119 64.0129 14.1091 63.5441 14.1091C63.1561 14.1091 62.8112 14.0335 62.5095 13.8824C62.2077 13.7288 61.9706 13.4985 61.7982 13.1914C61.6257 12.8819 61.5395 12.492 61.5395 12.0218V8.50928H62.4933V11.9642C62.4933 12.3672 62.6199 12.6887 62.8732 12.9287C63.1292 13.1686 63.4552 13.2885 63.8512 13.2885C64.0883 13.2885 64.3295 13.2346 64.5746 13.1266C64.8225 13.0186 65.03 12.8531 65.197 12.63C65.3668 12.4068 65.4516 12.1225 65.4516 11.777Z" fill="#191919"/>
<path fill-rule="evenodd" clip-rule="evenodd" d="M51.1056 14.1523C50.5075 14.1523 49.9915 14.0347 49.5577 13.7996C49.1266 13.5621 48.7939 13.231 48.5595 12.8063C48.3278 12.3792 48.2119 11.8826 48.2119 11.3164C48.2119 10.7502 48.3278 10.2511 48.5595 9.81926C48.7939 9.385 49.1199 9.04671 49.5375 8.80438C49.9578 8.55966 50.4482 8.4373 51.0086 8.4373C51.3319 8.4373 51.6512 8.48528 51.9664 8.58125C52.2816 8.67722 52.5686 8.83317 52.8272 9.0491C53.0859 9.26264 53.292 9.54575 53.4456 9.89843C53.5991 10.2511 53.6759 10.6854 53.6759 11.2012V11.5611H49.1678C49.1815 11.9289 49.2616 12.2444 49.4082 12.5076C49.5725 12.7955 49.8002 13.015 50.0912 13.1662C50.3822 13.3149 50.7203 13.3893 51.1056 13.3893C51.3561 13.3893 51.5825 13.3581 51.7845 13.2957C51.9893 13.231 52.1658 13.135 52.314 13.0078C52.4622 12.8783 52.5767 12.7175 52.6575 12.5256L53.5789 12.7559C53.4819 13.0342 53.3189 13.279 53.0899 13.4901C52.8609 13.6988 52.578 13.862 52.2412 13.9795C51.9044 14.0947 51.5259 14.1523 51.1056 14.1523ZM52.4958 9.992C52.6359 10.2367 52.706 10.515 52.706 10.8269H49.1702C49.1884 10.5705 49.261 10.3282 49.388 10.1C49.5362 9.83365 49.7477 9.61772 50.0225 9.45218C50.3 9.28423 50.6287 9.20026 51.0086 9.20026C51.3535 9.20026 51.6525 9.27103 51.9058 9.41259C52.1617 9.55414 52.3584 9.74728 52.4958 9.992Z" fill="#191919"/>
</svg>
