<svg width="222" height="20" viewBox="0 0 222 20" fill="none" xmlns="http://www.w3.org/2000/svg">
<path d="M30.5819 1.87375C30.5845 1.45934 30.7527 1.06275 31.05 0.7706C31.3472 0.478447 31.7493 0.314465 32.1684 0.314465C32.5875 0.314465 32.9896 0.478447 33.2869 0.7706C33.5841 1.06275 33.7524 1.45934 33.7549 1.87375V16.8719C33.7524 17.2863 33.5841 17.6829 33.2869 17.9751C32.9896 18.2672 32.5875 18.4312 32.1684 18.4312C31.7493 18.4312 31.3472 18.2672 31.05 17.9751C30.7527 17.6829 30.5845 17.2863 30.5819 16.8719V1.87375Z" fill="#E4002B"/>
<path d="M73.4579 16.2597L80.165 1.46578C80.3185 1.08424 80.5858 0.757895 80.9313 0.530079C81.2768 0.302263 81.6842 0.183752 82.0994 0.190283C82.5248 0.182554 82.9429 0.299575 83.3011 0.526577C83.6592 0.75358 83.9413 1.08039 84.1118 1.46578L90.8191 16.2597C90.9243 16.4663 90.9858 16.692 90.9996 16.9229C91.0043 17.1197 90.969 17.3154 90.8958 17.4984C90.8226 17.6814 90.713 17.848 90.5735 17.9884C90.434 18.1287 90.2674 18.2399 90.0836 18.3154C89.8998 18.391 89.7025 18.4292 89.5035 18.4279C89.164 18.4199 88.8348 18.3109 88.5587 18.1153C88.2827 17.9197 88.0726 17.6465 87.9557 17.3311L86.4852 13.9896H77.7145L76.1924 17.4331C76.0779 17.7266 75.8761 17.9788 75.6135 18.1564C75.351 18.334 75.0402 18.4287 74.7221 18.4279C74.5283 18.4302 74.3361 18.3941 74.1567 18.3218C73.9773 18.2495 73.8143 18.1425 73.6773 18.0071C73.5403 17.8716 73.432 17.7104 73.3589 17.533C73.2858 17.3556 73.2493 17.1655 73.2516 16.974C73.2663 16.7238 73.3368 16.4799 73.4579 16.2597ZM85.2728 11.2096L82.0999 3.99112L78.9269 11.2096H85.2728Z" fill="#E4002B"/>
<path d="M19.776 17.3411L17.3043 14.8971C18.6913 12.9706 19.2955 10.5991 18.9972 8.25282C18.6989 5.90651 17.5198 3.75669 15.6937 2.2296C13.8677 0.702513 11.528 -0.0903537 9.13844 0.00819843C6.74892 0.106751 4.4841 1.08953 2.79299 2.76168C1.10188 4.43383 0.107961 6.67326 0.00829139 9.03599C-0.0913781 11.3987 0.710478 13.7122 2.25488 15.5178C3.79929 17.3234 5.97348 18.4893 8.34639 18.7842C10.7193 19.0792 13.1177 18.4818 15.066 17.1103L17.5377 19.5543C17.8357 19.8422 18.2364 20.0023 18.6531 20C19.0697 19.9976 19.4686 19.8329 19.7632 19.5416C20.0578 19.2503 20.2243 18.8559 20.2267 18.4439C20.2291 18.032 20.0672 17.6357 19.776 17.3411ZM3.19608 9.44397C3.19608 8.20118 3.56879 6.98629 4.26708 5.95295C4.96537 4.9196 5.95788 4.11421 7.11909 3.63862C8.2803 3.16302 9.55806 3.03859 10.7908 3.28105C12.0235 3.52351 13.1559 4.12198 14.0446 5.00077C14.9334 5.87956 15.5386 6.99921 15.7838 8.21812C16.029 9.43704 15.9031 10.7005 15.4221 11.8487C14.9411 12.9969 14.1266 13.9782 13.0815 14.6687C12.0365 15.3591 10.8078 15.7276 9.55093 15.7276C7.8661 15.7257 6.25082 15.0631 5.05947 13.8851C3.86812 12.7071 3.19798 11.1099 3.19608 9.44397Z" fill="#E4002B"/>
<path d="M45.8347 1.92476C45.8347 0.21843 48.2571 -0.324376 49.2398 1.1851L54.7086 9.65343L60.2032 1.15933C61.0763 -0.325794 63.5827 0.211109 63.5827 1.92454V16.8717C63.5833 17.0784 63.5421 17.2831 63.4616 17.4738C63.3811 17.6645 63.2629 17.8374 63.1139 17.9824C62.9649 18.1273 62.7882 18.2413 62.594 18.3178C62.3998 18.3943 62.1922 18.4317 61.9832 18.4277C61.5731 18.4197 61.1829 18.2515 60.8978 17.96C60.6127 17.6685 60.4558 17.2772 60.4614 16.8717V6.20354C60.4614 6.20354 56.7238 11.7152 56.0255 12.7143C55.8922 12.9436 55.7002 13.1341 55.4687 13.2665C55.2373 13.399 54.9746 13.4687 54.7072 13.4687C54.4397 13.4687 54.1771 13.399 53.9456 13.2665C53.7142 13.1341 53.5221 12.9436 53.3889 12.7143L48.9562 6.21001V16.8976C48.957 17.101 48.9167 17.3025 48.8376 17.4902C48.7585 17.6779 48.6422 17.8481 48.4956 17.9908C48.3489 18.1334 48.1749 18.2455 47.9837 18.3207C47.7926 18.3958 47.5882 18.4323 47.3825 18.4281C47.1782 18.4318 46.9753 18.3948 46.7858 18.3192C46.5963 18.2436 46.4242 18.131 46.2797 17.9881C46.1352 17.8453 46.0214 17.6751 45.9449 17.4877C45.8684 17.3004 45.831 17.0997 45.8347 16.8977V1.92476Z" fill="#E4002B"/>
<path d="M97.5079 19C96.0659 19 95 17.8838 95 16.5227V16.5045C95 15.1343 96.0748 14 97.5258 14C98.9768 14 100.043 15.1162 100.043 16.4864V16.5045C100.043 17.8657 98.9679 19 97.5079 19ZM97.5258 18.0381C98.4036 18.0381 98.9589 17.3485 98.9589 16.5227V16.5045C98.9589 15.6606 98.3588 14.9619 97.5079 14.9619C96.6391 14.9619 96.0838 15.6515 96.0838 16.4864V16.5045C96.0838 17.3394 96.6839 18.0381 97.5258 18.0381Z" fill="#3366B0"/>
<path d="M101.146 18.392V14.5989C101.146 14.2904 101.379 14.0454 101.684 14.0454C101.988 14.0454 102.23 14.2904 102.23 14.5989V14.8348C102.535 14.3902 102.974 14 103.708 14C104.774 14 105.392 14.726 105.392 15.833V18.392C105.392 18.7005 105.159 18.9365 104.855 18.9365C104.55 18.9365 104.308 18.7005 104.308 18.392V16.1688C104.308 15.4247 103.941 14.9982 103.296 14.9982C102.669 14.9982 102.23 15.4428 102.23 16.1869V18.392C102.23 18.7005 101.988 18.9365 101.684 18.9365C101.388 18.9365 101.146 18.7005 101.146 18.392Z" fill="#3366B0"/>
<path d="M107.516 16.1597H109.943C109.871 15.4519 109.459 14.8984 108.743 14.8984C108.08 14.8984 107.614 15.4156 107.516 16.1597ZM110.57 18.3648C110.14 18.755 109.603 19 108.868 19C107.498 19 106.441 17.9927 106.441 16.5136V16.4955C106.441 15.1252 107.399 14 108.752 14C110.257 14 111 15.2523 111 16.3593C111 16.6679 110.767 16.8857 110.489 16.8857H107.525C107.641 17.6661 108.188 18.1016 108.886 18.1016C109.343 18.1016 109.701 17.9383 110.006 17.6842C110.086 17.6207 110.158 17.5844 110.283 17.5844C110.525 17.5844 110.713 17.775 110.713 18.029C110.713 18.1652 110.651 18.2831 110.57 18.3648Z" fill="#3366B0"/>
</svg>
