<svg width="222" height="20" viewBox="0 0 222 20" fill="none" xmlns="http://www.w3.org/2000/svg">
<path d="M59.8846 4.29895V18.0165L57.9199 19.8696V6.44584L59.8846 4.29895Z" fill="#E79225"/>
<path d="M47.0075 4.31013L44.9727 6.44572L45.0779 6.58131L57.8364 6.53612L57.9533 6.44572L59.8829 4.29883L47.0075 4.31013Z" fill="#FFF16D"/>
<path d="M44.9727 6.4458H57.9533V19.8808H44.9727V6.4458Z" fill="url(#paint0_linear_1151_15649)"/>
<path d="M55.9795 11.2819C55.7222 10.6604 55.3363 10.0955 54.8335 9.60959C54.354 9.13501 53.8161 8.77343 53.2079 8.53614C52.6115 8.29885 51.9684 8.17456 51.2667 8.17456C50.565 8.17456 49.9102 8.29885 49.3138 8.53614C48.7057 8.77343 48.1677 9.13501 47.6883 9.60959C47.1854 10.0955 46.8112 10.6604 46.5539 11.2819C46.2966 11.9034 46.1797 12.5813 46.1797 13.3271C46.1797 14.0503 46.3083 14.7282 46.5656 15.361C46.8229 15.9938 47.1971 16.5587 47.6999 17.0559C48.1677 17.5192 48.7057 17.8695 49.3021 18.1068C49.8985 18.3441 50.565 18.4683 51.2784 18.4683C51.9684 18.4683 52.6115 18.3441 53.2079 18.1068C53.8044 17.8695 54.354 17.5192 54.8335 17.0559C55.3363 16.5587 55.7222 15.9938 55.9795 15.3723C56.2368 14.7508 56.3654 14.0616 56.3654 13.3384C56.3654 12.5813 56.2368 11.9034 55.9795 11.2819ZM53.3015 15.7113C52.7987 16.2876 52.1321 16.5813 51.2667 16.5813C50.4013 16.5813 49.7231 16.2876 49.2202 15.7113C48.7173 15.135 48.4718 14.3328 48.4718 13.3158C48.4718 12.2763 48.729 11.474 49.2202 10.8864C49.7231 10.2989 50.3896 10.0164 51.2667 10.0164C52.1321 10.0164 52.7987 10.3102 53.3015 10.8864C53.7927 11.474 54.0499 12.2763 54.0499 13.3158C54.0499 14.3328 53.8044 15.135 53.3015 15.7113Z" fill="white"/>
<path d="M43.6988 3.18042V3.24822L45.3594 15.5759L44.3887 18.1748L44.2601 18.0844L42.5527 6.26517L42.5878 6.10697L43.652 3.24822L43.6988 3.18042Z" fill="#009ADA"/>
<path d="M30.9152 4.89793L43.697 3.18042L42.6212 6.14087L42.4691 6.29906L30.5176 7.99398L30.576 5.88099L30.9152 4.89793Z" fill="#91C9ED"/>
<path d="M42.6222 6.14087L44.3881 18.1748L31.7933 19.881L30.0977 8.25386L30.8344 7.70019L42.6222 6.14087Z" fill="url(#paint1_linear_1151_15649)"/>
<path d="M40.4816 8.44594C40.4232 8.07306 40.2945 7.79058 40.084 7.59849C39.9086 7.45159 39.6981 7.3725 39.4526 7.3725C39.3941 7.3725 39.3239 7.3725 39.2538 7.3838C38.9263 7.42899 38.6807 7.57589 38.5287 7.81318C38.4118 7.98267 38.365 8.19736 38.365 8.44594C38.365 8.53634 38.3767 8.63803 38.3884 8.73973L38.8445 11.8697L35.2192 12.3894L34.7631 9.2595C34.7047 8.89792 34.576 8.61543 34.3655 8.42334C34.1901 8.26515 33.9796 8.18606 33.7457 8.18606C33.6873 8.18606 33.6288 8.18606 33.5703 8.19736C33.2312 8.24255 32.9739 8.38945 32.8102 8.62673C32.6933 8.79623 32.6465 9.01092 32.6465 9.2595C32.6465 9.3499 32.6582 9.45159 32.6699 9.56459L33.9095 17.7115C33.9679 18.0844 34.0966 18.3668 34.3305 18.5589C34.5059 18.7058 34.7164 18.7736 34.9736 18.7736C35.0438 18.7736 35.114 18.7736 35.1841 18.7623C35.4999 18.7171 35.7338 18.5702 35.8858 18.3329C35.991 18.1635 36.0378 17.9601 36.0378 17.7228C36.0378 17.6324 36.0261 17.5307 36.0144 17.429L35.5116 14.2087L39.1368 13.6889L39.6397 16.9092C39.6981 17.2821 39.8268 17.5646 40.049 17.7454C40.2244 17.8923 40.4349 17.9714 40.6805 17.9714C40.7389 17.9714 40.8091 17.9714 40.8793 17.9601C41.2067 17.9149 41.4523 17.768 41.6043 17.5307C41.7095 17.3612 41.768 17.1578 41.768 16.9092C41.768 16.8188 41.7563 16.7171 41.7446 16.6154L40.4816 8.44594Z" fill="white"/>
<path d="M18.9534 0.0390625L14.4043 10.4797L15.0241 15.0673L15.0592 15.056L20.1696 3.94867L20.1462 3.71138L19.0469 0.185955L18.9534 0.0390625Z" fill="#66BF6B"/>
<path d="M18.9531 0.0390625L20.1342 3.86957L20.1576 3.94867L31.4075 8.81872L31.4426 8.79612L30.4837 5.13511L18.9531 0.0390625Z" fill="#98D0A0"/>
<path d="M20.1358 3.86963L31.4442 8.79618L26.3338 19.9939L15.0254 15.0674L20.1358 3.86963Z" fill="url(#paint2_linear_1151_15649)"/>
<path d="M28.0163 9.69998C27.7707 9.06721 27.4316 8.52484 26.9872 8.07286C26.5428 7.62088 26.0049 7.2593 25.3734 6.99941C24.7419 6.73953 24.1104 6.61523 23.4672 6.61523H23.4322C22.7773 6.61523 22.1341 6.76213 21.5026 7.03331C20.836 7.3158 20.263 7.69998 19.7718 8.20845C19.2807 8.70563 18.8831 9.3158 18.579 10.0164C18.275 10.7056 18.1113 11.4062 18.0762 12.0955V12.3327C18.0762 12.9429 18.1814 13.5418 18.4036 14.1294C18.6375 14.7508 18.9766 15.2819 19.421 15.7339C19.8654 16.1859 20.415 16.5474 21.0699 16.8073C21.6897 17.0672 22.3212 17.1915 22.9644 17.1915H22.9761C23.6193 17.1915 24.2624 17.0559 24.8939 16.796C25.5605 16.5135 26.1452 16.1181 26.6364 15.6096C27.1275 15.1124 27.5368 14.5135 27.8409 13.813C28.1449 13.1124 28.3087 12.4231 28.3437 11.7339V11.5305C28.3554 10.909 28.2502 10.2988 28.0163 9.69998ZM25.7593 12.9542C25.3383 13.926 24.7653 14.5926 24.0753 14.9542C23.7011 15.1463 23.3152 15.248 22.9293 15.248C22.5902 15.248 22.2276 15.1689 21.8651 15.022C21.0699 14.6943 20.5787 14.1746 20.3683 13.4288C20.2981 13.1802 20.263 12.9203 20.263 12.6491C20.263 12.1068 20.4033 11.5079 20.684 10.8638C21.1167 9.86947 21.6897 9.1915 22.3797 8.81862C22.7539 8.61523 23.1398 8.52484 23.5257 8.52484C23.8765 8.52484 24.2274 8.60393 24.6016 8.75083C25.3851 9.07851 25.8763 9.59828 26.0868 10.344C26.1569 10.5813 26.192 10.8412 26.192 11.1124C26.192 11.6774 26.0517 12.2876 25.7593 12.9542Z" fill="white"/>
<path d="M13.504 1.81299L15.3516 13.7678L14.5097 17.9712L14.3927 17.8243L12.5918 6.27627V6.05028L13.387 2.01638L13.504 1.81299Z" fill="#760D16"/>
<path d="M0.0078125 7.99378L0.884883 3.76779L13.503 1.81299L12.6493 6.11807V6.40056L0.159838 8.10677L0.0078125 7.99378Z" fill="#EF463E"/>
<path d="M12.6493 6.1181L14.5087 17.9712L2.01923 19.8582L0.0078125 7.99381L12.6493 6.1181Z" fill="url(#paint3_linear_1151_15649)"/>
<path d="M11.303 16.0841C11.2095 15.9711 11.0691 15.892 10.9054 15.8355C10.7417 15.779 10.5429 15.7564 10.2973 15.7564C10.0751 15.7564 9.81786 15.779 9.5372 15.8242L6.23941 16.3666C6.2745 16.118 6.40313 15.8016 6.62532 15.4061C6.8709 14.9654 7.24512 14.4344 7.72459 13.8242C7.88831 13.6095 8.01694 13.4513 8.1105 13.3383C8.16897 13.2592 8.26252 13.1575 8.37947 13.0106C9.13959 12.0502 9.59567 11.2705 9.78278 10.6604C9.88803 10.3101 9.9465 9.95979 9.96989 9.60951C9.98158 9.50782 9.98158 9.41742 9.98158 9.32703C9.98158 9.07844 9.95819 8.82985 9.91142 8.58126C9.87633 8.35528 9.81786 8.17448 9.736 8.02759C9.65414 7.8807 9.56059 7.76771 9.44364 7.69991C9.31501 7.62081 9.11621 7.58691 8.87063 7.58691C8.67182 7.58691 8.42624 7.60951 8.13389 7.65471L4.32155 8.28748C3.86547 8.36657 3.51465 8.49087 3.30415 8.69426C3.12874 8.85245 3.04688 9.05584 3.04688 9.28183C3.04688 9.33833 3.04688 9.40612 3.05857 9.47392C3.11704 9.7903 3.28076 10.0163 3.54973 10.1293C3.71345 10.1971 3.90056 10.231 4.13444 10.231C4.28647 10.231 4.46188 10.2197 4.64899 10.1858L7.82983 9.64341C7.82983 9.69991 7.84153 9.75641 7.84153 9.8016C7.84153 9.99369 7.80645 10.1858 7.73628 10.3666C7.64273 10.6265 7.40884 10.988 7.02293 11.4513C6.91768 11.5756 6.75396 11.779 6.53177 12.0389C5.66639 13.0445 5.05829 13.9033 4.68407 14.6152C4.41511 15.1123 4.23969 15.5869 4.13444 16.0728C4.07597 16.3553 4.04089 16.6152 4.04089 16.875C4.04089 17.0558 4.05258 17.2366 4.08767 17.4061C4.13444 17.6547 4.19291 17.8581 4.27477 18.0163C4.35663 18.1745 4.47358 18.2988 4.60221 18.3666C4.73085 18.4344 4.90626 18.457 5.16354 18.457C5.47928 18.457 5.91197 18.4118 6.4616 18.3214L9.92311 17.7451C10.5312 17.6434 10.9639 17.4965 11.2095 17.3044C11.4083 17.1462 11.5135 16.9315 11.5135 16.683C11.5135 16.6152 11.5018 16.5474 11.4901 16.4796C11.4668 16.3327 11.4083 16.1971 11.303 16.0841Z" fill="white"/>
<defs>
<linearGradient id="paint0_linear_1151_15649" x1="51.4625" y1="6.63806" x2="51.4625" y2="19.4752" gradientUnits="userSpaceOnUse">
<stop offset="0.00562" stop-color="#FFE513"/>
<stop offset="1" stop-color="#FDB924"/>
</linearGradient>
<linearGradient id="paint1_linear_1151_15649" x1="30.7424" y1="7.99496" x2="43.3629" y2="18.5881" gradientUnits="userSpaceOnUse">
<stop offset="0.00562" stop-color="#008CD2"/>
<stop offset="1" stop-color="#00649D"/>
</linearGradient>
<linearGradient id="paint2_linear_1151_15649" x1="23.2351" y1="8.3488" x2="23.2351" y2="19.5955" gradientUnits="userSpaceOnUse">
<stop stop-color="#26A146"/>
<stop offset="1" stop-color="#008A52"/>
</linearGradient>
<linearGradient id="paint3_linear_1151_15649" x1="6.34964" y1="7.24589" x2="8.15233" y2="18.9544" gradientUnits="userSpaceOnUse">
<stop stop-color="#D92231"/>
<stop offset="1" stop-color="#BA2234"/>
</linearGradient>
</defs>
</svg>
